<svg width="24" height="24" viewBox="0 0 24 24" fill="none" xmlns="http://www.w3.org/2000/svg">
<path d="M19.0461 20.6601H4.39213C3.98507 20.6601 3.69607 20.4851 3.5251 20.135C3.35414 19.7849 3.38263 19.4471 3.61058 19.1214L8.20217 12.6737C8.38128 12.4132 8.60923 12.2137 8.88602 12.0753C9.16282 11.9369 9.46404 11.8677 9.78969 11.8677H13.7218L19.2904 5.3711C19.5834 5.02917 19.9417 4.93555 20.365 5.09023C20.7883 5.24491 21 5.5502 21 6.00611V18.7062C21 19.2436 20.8087 19.7035 20.4261 20.0862C20.0434 20.4688 19.5834 20.6601 19.0461 20.6601ZM7.8114 9.91384L4.7829 14.1879C4.62008 14.4159 4.40841 14.5502 4.1479 14.5909C3.88738 14.6316 3.64315 14.5706 3.4152 14.4077C3.18725 14.2449 3.05292 14.0332 3.01221 13.7727C2.97151 13.5122 3.03256 13.268 3.19539 13.04L6.2483 8.79037C6.42741 8.52985 6.65536 8.32632 6.93216 8.17978C7.20896 8.03324 7.51018 7.95997 7.83582 7.95997H11.768L15.7246 3.34396C15.9037 3.13229 16.1235 3.01832 16.384 3.00204C16.6445 2.98575 16.8806 3.06716 17.0923 3.24627C17.3039 3.42537 17.4179 3.64518 17.4342 3.9057C17.4505 4.16621 17.3691 4.40231 17.19 4.61398L13.2334 9.22999C13.0543 9.45794 12.8345 9.6289 12.5739 9.74288C12.3134 9.85685 12.0448 9.91384 11.768 9.91384H7.8114Z" fill="#E7E6E2"/>
</svg>
