<svg width="24" height="24" viewBox="0 0 24 24" fill="none" xmlns="http://www.w3.org/2000/svg">
<path fill-rule="evenodd" clip-rule="evenodd" d="M18.8652 15.9802C20.4581 15.9806 21.75 17.2721 21.75 18.865C21.7498 20.4578 20.458 21.7495 18.8652 21.7498C17.2722 21.7498 15.9806 20.458 15.9805 18.865C15.9805 17.2719 17.2721 15.9802 18.8652 15.9802ZM18.7793 17.4226C18.6783 17.4227 18.5894 17.4612 18.5137 17.5369L17.5273 18.5232C17.4578 18.5928 17.4229 18.6813 17.4228 18.7888C17.4229 18.8963 17.4578 18.9849 17.5273 19.0545C17.6032 19.1302 17.6919 19.167 17.793 19.1638C17.8939 19.1605 17.9794 19.1239 18.0488 19.0545L18.4004 18.7127V19.9275C18.4004 20.0349 18.4362 20.1253 18.5088 20.198C18.5814 20.2705 18.6721 20.3073 18.7793 20.3074C18.8866 20.3073 18.9772 20.2706 19.0498 20.198C19.1224 20.1253 19.1591 20.0349 19.1592 19.9275V18.7224L19.4912 19.0545C19.567 19.1302 19.6575 19.1687 19.7617 19.1687C19.8659 19.1686 19.9564 19.1303 20.0322 19.0545C20.1079 18.9786 20.1464 18.8899 20.1465 18.7888C20.1464 18.6878 20.1079 18.599 20.0322 18.5232L19.0449 17.5369C18.9691 17.4611 18.8803 17.4227 18.7793 17.4226Z" fill="#E7E6E2"/>
<path d="M18.664 5.28004C18.9458 4.95144 19.2903 4.86085 19.6973 5.00953C20.1041 5.15825 20.3075 5.45224 20.3076 5.89039V14.7849C19.8565 14.6255 19.3709 14.5379 18.8652 14.5379C16.4757 14.538 14.5383 16.4755 14.5381 18.865C14.5381 19.2506 14.5899 19.6245 14.6846 19.9802H4.33885C3.94745 19.9802 3.66926 19.812 3.50487 19.4754C3.34075 19.1389 3.36782 18.8137 3.5869 18.5007L8.00194 12.3015C8.17402 12.0513 8.39332 11.8594 8.65917 11.7263C8.92521 11.5933 9.21534 11.5262 9.52831 11.5261H13.3096L18.664 5.28004Z" fill="#E7E6E2"/>
<path d="M15.8691 3.00172C16.1193 2.98611 16.3464 3.06424 16.5498 3.2361C16.7532 3.40825 16.8632 3.62049 16.8789 3.87086C16.8945 4.12108 16.8164 4.34818 16.6445 4.55153L12.8398 8.99C12.6677 9.20904 12.4563 9.37358 12.206 9.48317C11.9556 9.59275 11.6968 9.64722 11.4306 9.64723H7.62596L4.71385 13.7576C4.55735 13.9765 4.35381 14.1061 4.1035 14.1453C3.85313 14.1843 3.61849 14.125 3.3994 13.9685C3.18028 13.812 3.05084 13.6086 3.0117 13.3582C2.97268 13.108 3.03124 12.873 3.18749 12.6541L6.12303 8.56715C6.29522 8.31678 6.51518 8.12109 6.78124 7.98024C7.04714 7.83956 7.33662 7.76936 7.6494 7.7693H11.4306L15.2353 3.33082C15.4075 3.12745 15.6187 3.01739 15.8691 3.00172Z" fill="#E7E6E2"/>
</svg>
