<svg width="24" height="24" viewBox="0 0 24 24" fill="none" xmlns="http://www.w3.org/2000/svg">
<path d="M6.74938 9.37505C6.74938 13.7241 10.2739 17.2498 14.6215 17.25C14.7077 17.25 14.7928 17.2404 14.8783 17.2374C13.9358 19.4491 11.7428 21 9.18688 21C5.77106 21 3.00134 18.2295 3.00134 14.8125C3.00134 12.2558 4.55188 10.062 6.76208 9.11919C6.75983 9.20469 6.74938 9.2888 6.74938 9.37505Z" fill="#E7E6E2"/>
<path d="M17.8568 15.2041C18.1574 14.9214 18.6324 14.9339 18.9174 15.2354L20.6 17.0215C21.1319 17.5532 21.132 18.446 20.5843 18.9942L18.9174 20.7647C18.7697 20.9214 18.5709 21 18.3715 21C18.187 21 18.0015 20.9324 17.8568 20.7959C17.5556 20.5117 17.5415 20.0368 17.8256 19.7354L18.7543 18.75H16.4974C16.0836 18.75 15.7474 18.414 15.7474 18C15.7474 17.586 16.0836 17.25 16.4974 17.25H18.7543L17.8256 16.2647C17.5422 15.9633 17.5556 15.4884 17.8568 15.2041Z" fill="#E7E6E2"/>
<path fill-rule="evenodd" clip-rule="evenodd" d="M14.6224 3.00005C18.1365 3.00005 20.9955 5.8598 20.9955 9.37505C20.9955 12.8903 18.1365 15.75 14.6224 15.75C11.1085 15.7499 8.24938 12.8902 8.24938 9.37505C8.24938 5.85996 11.1093 3.00031 14.6224 3.00005ZM12.4799 5.66704C12.4777 5.66948 12.4752 5.67387 12.473 5.67387C12.3959 5.67471 12.3331 5.74922 12.3324 5.8311C12.332 5.91448 12.3314 5.99772 12.3314 6.0811C12.3316 6.22834 12.332 6.37624 12.3324 6.52348C12.3328 6.61381 12.4026 6.68613 12.4955 6.69048C12.5282 6.69191 12.5614 6.6934 12.5941 6.69341C12.8271 6.69398 13.0604 6.69249 13.2933 6.69536C13.3949 6.69666 13.4967 6.70505 13.598 6.71294C13.7269 6.72299 13.8545 6.74572 13.9789 6.7813C14.1028 6.81674 14.2216 6.86637 14.3304 6.93559C14.4595 7.01767 14.5622 7.12593 14.6341 7.26176C14.6374 7.26777 14.6399 7.27427 14.6439 7.28227H12.558C12.5278 7.28227 12.4972 7.28542 12.4672 7.28813C12.3986 7.2943 12.3351 7.35644 12.3334 7.44048C12.3319 7.51726 12.3314 7.59416 12.3314 7.67094C12.3313 7.77226 12.3315 7.87431 12.3324 7.97563C12.3327 8.01374 12.3404 8.05044 12.3656 8.0811C12.3901 8.111 12.4201 8.13259 12.4593 8.13774C12.4861 8.14116 12.5133 8.14456 12.5404 8.14458C13.0273 8.14501 13.5144 8.14555 14.0013 8.14555C14.2325 8.14555 14.4635 8.14458 14.6947 8.14458H14.7181C14.7086 8.17542 14.7003 8.20338 14.6908 8.23051C14.6371 8.38163 14.5505 8.51164 14.433 8.62114C14.3118 8.73401 14.1713 8.81388 14.0179 8.87309C13.8706 8.92992 13.7178 8.96637 13.5619 8.98833C13.4279 9.00712 13.293 9.01803 13.1576 9.0186C12.9428 9.0196 12.7279 9.02107 12.5131 9.02251C12.4438 9.02308 12.3866 9.04882 12.3529 9.11137C12.3415 9.13249 12.3342 9.15868 12.3334 9.18266C12.3308 9.27547 12.3314 9.36901 12.3314 9.46196C12.3311 9.58423 12.3327 9.70688 12.3314 9.82915C12.3309 9.88759 12.3508 9.93574 12.39 9.97758C12.4461 10.0379 12.5009 10.0991 12.556 10.1602C12.7941 10.4247 13.0341 10.6877 13.2699 10.9541C13.494 11.2072 13.7158 11.463 13.9359 11.7198C14.179 12.0034 14.4191 12.2892 14.6605 12.5743C14.7576 12.6889 14.8547 12.8042 14.9515 12.919C14.955 12.923 14.959 12.9275 14.9623 12.9317C15.0024 12.9828 15.0565 13.0003 15.1195 13C15.2821 12.9995 15.447 13 15.6078 13C15.7685 13 15.9295 13.0008 16.0902 12.9991C16.122 12.9988 16.156 12.9938 16.1849 12.9815C16.2726 12.9438 16.3056 12.8226 16.2494 12.7461C16.2058 12.6872 16.1581 12.6309 16.1117 12.5743C15.9893 12.4247 15.8672 12.2744 15.7435 12.126C15.4528 11.7773 15.1626 11.428 14.8685 11.0821C14.6654 10.8431 14.4574 10.6079 14.2494 10.3731C14.1229 10.2303 13.992 10.0913 13.8636 9.95024C13.8603 9.94663 13.8578 9.94228 13.8549 9.93852C13.9469 9.9229 14.0381 9.909 14.1283 9.89165C14.266 9.86525 14.4021 9.83112 14.5345 9.78423C14.6833 9.73141 14.8296 9.6714 14.9652 9.58989C15.1143 9.50009 15.2566 9.40088 15.3812 9.27739C15.499 9.16043 15.6026 9.03314 15.6898 8.89165C15.801 8.71136 15.8747 8.51637 15.9242 8.31157C15.9358 8.26367 15.9449 8.21468 15.9535 8.16606C15.9565 8.14927 15.9625 8.1436 15.9799 8.1436C16.2306 8.14432 16.4811 8.14515 16.7318 8.14458C16.7793 8.14443 16.8273 8.1425 16.8744 8.13676C16.9273 8.13046 16.9788 8.07985 16.9896 8.02739C16.9938 8.00658 16.9965 7.98418 16.9965 7.96294C16.9969 7.79662 16.9966 7.63023 16.9965 7.46391C16.9963 7.43181 16.9952 7.39955 16.9789 7.37016C16.9503 7.31879 16.9064 7.2902 16.848 7.28618C16.8048 7.28318 16.7615 7.28227 16.7181 7.28227C16.4667 7.28184 16.2147 7.28184 15.9633 7.28227C15.9465 7.2822 15.9407 7.27648 15.9369 7.25981C15.902 7.10743 15.853 6.9596 15.7845 6.81841C15.7374 6.72094 15.6759 6.63193 15.6166 6.54204C15.6151 6.53982 15.6139 6.53721 15.6107 6.53227C15.6184 6.53184 15.6241 6.5313 15.6293 6.5313C16.017 6.5313 16.4047 6.53158 16.7924 6.5313C16.813 6.5313 16.8345 6.52902 16.8549 6.52544C16.9264 6.51261 16.9761 6.45899 16.9847 6.38579C16.987 6.3664 16.9886 6.34673 16.9886 6.32719C16.9889 6.17378 16.9884 6.01967 16.9877 5.86626C16.9875 5.84279 16.9847 5.81913 16.9808 5.79594C16.9707 5.73366 16.9169 5.68307 16.8549 5.67485C16.8457 5.67356 16.8364 5.66962 16.8275 5.66704H12.4799Z" fill="#E7E6E2"/>
<path d="M5.07946 3.2354C5.36362 2.9339 5.83936 2.92065 6.14001 3.20415C6.44135 3.4884 6.45465 3.96321 6.17126 4.26469L5.24352 5.25005H7.50036C7.91408 5.25022 8.24938 5.58615 8.24938 6.00005C8.24938 6.41394 7.91408 6.74987 7.50036 6.75005H5.24255L6.17126 7.7354C6.4554 8.03688 6.44135 8.51169 6.14001 8.79594C5.99531 8.93244 5.8098 9.00005 5.62536 9.00005C5.42603 8.99997 5.22709 8.92137 5.07946 8.76469L3.39782 6.97758C2.86552 6.44509 2.86541 5.55415 3.41345 5.00591L5.07946 3.2354Z" fill="#E7E6E2"/>
</svg>
