<svg width="24" height="24" viewBox="0 0 24 24" fill="none" xmlns="http://www.w3.org/2000/svg">
<path d="M6.33019 3.25742C6.72274 2.90274 7.32882 2.91455 7.70714 3.29287L11.7071 7.29287C12.0977 7.6834 12.0977 8.31661 11.7071 8.70713C11.3166 9.09764 10.6834 9.09765 10.2929 8.70713L8.00001 6.41426V20C8.00001 20.5523 7.5523 21 7.00001 21C6.44774 21 6.00002 20.5523 6.00001 20V6.41426L3.70714 8.70713C3.31662 9.09764 2.68341 9.09765 2.29289 8.70713C1.90237 8.31661 1.90237 7.6834 2.29289 7.29287L6.29289 3.29287L6.33019 3.25742Z" fill="#E7E6E2"/>
<path d="M17 3C17.5523 3 18 3.44772 18 4V17.5857L20.2929 15.2929C20.6834 14.9023 21.3166 14.9024 21.7071 15.2929C22.0977 15.6834 22.0977 16.3166 21.7071 16.7071L17.7071 20.7071C17.3166 21.0976 16.6834 21.0977 16.2929 20.7071L12.2929 16.7071C11.9024 16.3166 11.9024 15.6834 12.2929 15.2929C12.6834 14.9023 13.3166 14.9024 13.7071 15.2929L16 17.5857V4C16 3.44772 16.4477 3.00001 17 3Z" fill="#E7E6E2"/>
</svg>
