<svg width="24" height="24" viewBox="0 0 24 24" fill="none" xmlns="http://www.w3.org/2000/svg">
<path d="M5.35924 16.0676V12.4591C5.35924 12.1317 5.47668 11.8541 5.71156 11.6263C5.94643 11.3986 6.22757 11.2847 6.55497 11.2847C6.88237 11.2847 7.15995 11.3986 7.38771 11.6263C7.61547 11.8541 7.72935 12.1317 7.72935 12.4591V16.089C7.72935 16.4164 7.61547 16.694 7.38771 16.9217C7.15995 17.1495 6.88237 17.2633 6.55497 17.2633C6.22757 17.2633 5.94643 17.1459 5.71156 16.911C5.47668 16.6762 5.35924 16.395 5.35924 16.0676ZM10.8254 16.089V12.4591C10.8254 12.1317 10.9393 11.8541 11.1671 11.6263C11.3948 11.3986 11.6724 11.2847 11.9998 11.2847C12.3272 11.2847 12.6048 11.3986 12.8325 11.6263C13.0603 11.8541 13.1742 12.1317 13.1742 12.4591V16.089C13.1742 16.4164 13.0603 16.694 12.8325 16.9217C12.6048 17.1495 12.3272 17.2633 11.9998 17.2633C11.6724 17.2633 11.3948 17.1495 11.1671 16.9217C10.9393 16.694 10.8254 16.4164 10.8254 16.089ZM4.07811 21C3.708 21 3.39127 20.8683 3.12793 20.605C2.86458 20.3416 2.73291 20.0249 2.73291 19.6548C2.73291 19.2847 2.86458 18.968 3.12793 18.7046C3.39127 18.4413 3.708 18.3096 4.07811 18.3096H19.9215C20.2916 18.3096 20.6083 18.4413 20.8717 18.7046C21.135 18.968 21.2667 19.2847 21.2667 19.6548C21.2667 20.0249 21.135 20.3416 20.8717 20.605C20.6083 20.8683 20.2916 21 19.9215 21H4.07811ZM16.2703 16.0676V12.4591C16.2703 12.1317 16.3877 11.8541 16.6226 11.6263C16.8575 11.3986 17.1386 11.2847 17.466 11.2847C17.7934 11.2847 18.071 11.3986 18.2987 11.6263C18.5265 11.8541 18.6404 12.1317 18.6404 12.4591V16.089C18.6404 16.4164 18.5265 16.694 18.2987 16.9217C18.071 17.1495 17.7934 17.2633 17.466 17.2633C17.1386 17.2633 16.8575 17.1459 16.6226 16.911C16.3877 16.6762 16.2703 16.395 16.2703 16.0676ZM19.8361 10.2171H4.01405C3.65818 10.2171 3.35569 10.0925 3.10658 9.84342C2.85747 9.59431 2.73291 9.29181 2.73291 8.93594V8.12455C2.73291 7.88256 2.79697 7.65836 2.92508 7.45196C3.05319 7.24555 3.22401 7.08541 3.43754 6.97153L10.8041 3.29893C11.1742 3.09964 11.5728 3 11.9998 3C12.4269 3 12.8254 3.09964 13.1955 3.29893L20.4767 6.92883C20.7187 7.0427 20.9108 7.21708 21.0532 7.45196C21.1955 7.68683 21.2667 7.94662 21.2667 8.23132V8.76512C21.2667 9.1637 21.1279 9.50534 20.8503 9.79004C20.5728 10.0747 20.2347 10.2171 19.8361 10.2171Z" fill="#E7E6E2"/>
</svg>
