<svg width="24" height="24" viewBox="0 0 24 24" fill="none" xmlns="http://www.w3.org/2000/svg">
<path d="M7.71363 3.96766C8.90136 2.77993 10.5123 2.11267 12.192 2.11267C13.8717 2.11267 15.4826 2.77993 16.6703 3.96766C17.858 5.15539 18.5253 6.7663 18.5253 8.446C18.5253 11.4098 19.159 13.2417 19.7365 14.3005C20.0267 14.8324 20.3081 15.1793 20.5013 15.3833C20.5981 15.4855 20.6735 15.5525 20.7176 15.5892C20.7396 15.6076 20.7539 15.6185 20.7592 15.6224C21.1166 15.8689 21.2752 16.3191 21.1491 16.7358C21.0214 17.1575 20.6326 17.446 20.192 17.446H4.19197C3.75131 17.446 3.36258 17.1575 3.23488 16.7358C3.10872 16.3191 3.26673 15.8693 3.62414 15.6229C3.6294 15.6189 3.64431 15.6076 3.66637 15.5892C3.71047 15.5525 3.78584 15.4855 3.88269 15.3833C4.07586 15.1793 4.35728 14.8324 4.64741 14.3005C5.2249 13.2417 5.85864 11.4098 5.85864 8.446C5.85864 6.7663 6.5259 5.15539 7.71363 3.96766ZM18.0862 15.446C18.051 15.3851 18.0159 15.3226 17.9807 15.2582C17.2249 13.8725 16.5253 11.7045 16.5253 8.446C16.5253 7.29673 16.0688 6.19453 15.2561 5.38187C14.4434 4.56922 13.3412 4.11267 12.192 4.11267C11.0427 4.11267 9.9405 4.56922 9.12784 5.38187C8.31519 6.19453 7.85864 7.29673 7.85864 8.446C7.85864 11.7045 7.15904 13.8725 6.4032 15.2582C6.36809 15.3226 6.33291 15.3851 6.29772 15.446H18.0862ZM10.1524 19.1366C10.6301 18.8594 11.2421 19.0221 11.5192 19.4998C11.5876 19.6177 11.6857 19.7155 11.8038 19.7835C11.9218 19.8515 12.0557 19.8873 12.192 19.8873C12.3282 19.8873 12.4621 19.8515 12.5802 19.7835C12.6982 19.7155 12.7964 19.6177 12.8648 19.4998C13.1419 19.0221 13.7538 18.8594 14.2315 19.1366C14.7092 19.4137 14.8719 20.0256 14.5948 20.5033C14.3506 20.9243 14.0001 21.2737 13.5784 21.5166C13.1567 21.7595 12.6786 21.8873 12.192 21.8873C11.7053 21.8873 11.2272 21.7595 10.8055 21.5166C10.3839 21.2737 10.0334 20.9243 9.7892 20.5033C9.51207 20.0256 9.6747 19.4137 10.1524 19.1366Z" fill="#E7E6E2"/>
</svg>
