<svg width="24" height="24" viewBox="0 0 24 24" fill="none" xmlns="http://www.w3.org/2000/svg">
<path fill-rule="evenodd" clip-rule="evenodd" d="M1.29289 1.29289C1.68342 0.902369 2.31658 0.902369 2.70711 1.29289L22.7071 21.2929C23.0976 21.6834 23.0976 22.3166 22.7071 22.7071C22.3166 23.0976 21.6834 23.0976 21.2929 22.7071C20.678 22.0922 16.2445 17.6719 16.1323 17.5593L3.81819 17.5454C3.37753 17.5454 2.9888 17.257 2.8611 16.8352C2.73494 16.4185 2.89294 15.9688 3.25035 15.7223C3.2556 15.7184 3.27053 15.7071 3.29259 15.6887C3.33669 15.6519 3.41206 15.5849 3.50891 15.4827C3.70209 15.2788 3.9835 14.9318 4.27363 14.3999C4.85113 13.3412 5.48486 11.5092 5.48486 8.54544C5.48486 8.04534 5.54402 7.55128 5.65846 7.07267L1.29289 2.70711C0.902369 2.31658 0.902369 1.68342 1.29289 1.29289ZM7.48212 8.89633L14.1312 15.5454H5.92394C5.95913 15.4846 5.99431 15.422 6.02942 15.3576C6.7578 14.0223 7.43394 11.9604 7.48212 8.89633Z" fill="#E7E6E2"/>
<path d="M11.689 1.9085C12.8569 1.85216 14.0182 2.11414 15.0488 2.66645C16.0794 3.21876 16.9406 4.04066 17.5405 5.04436C18.1379 6.04399 18.4536 7.21526 18.4545 8.37963C18.4314 9.81986 18.6124 11.2561 18.992 12.6456C19.1375 13.1784 18.8236 13.7282 18.2908 13.8738C17.7581 14.0193 17.2082 13.7054 17.0627 13.1726C16.6345 11.6051 16.4297 9.98495 16.4545 8.36022C16.4554 7.55392 16.2374 6.7625 15.8237 6.07036C15.4097 5.37767 14.8154 4.81044 14.1041 4.42927C13.3928 4.04809 12.5914 3.86729 11.7853 3.90618C10.9793 3.94506 10.199 4.20217 9.5277 4.65004C9.06828 4.95655 8.44737 4.83261 8.14085 4.37319C7.83433 3.91377 7.95828 3.29286 8.4177 2.98634C9.39037 2.33738 10.521 1.96484 11.689 1.9085Z" fill="#E7E6E2"/>
<path d="M9.92552 19.3168C10.4032 19.0397 11.0152 19.2023 11.2923 19.6801C11.3642 19.8041 11.4674 19.907 11.5917 19.9785C11.7159 20.05 11.8567 20.0877 12 20.0877C12.1434 20.0877 12.2842 20.05 12.4084 19.9785C12.5326 19.907 12.6358 19.8041 12.7077 19.6801C12.9849 19.2023 13.5968 19.0397 14.0745 19.3168C14.5522 19.594 14.7149 20.2059 14.4377 20.6836C14.19 21.1107 13.8344 21.4652 13.4066 21.7116C12.9788 21.958 12.4937 22.0877 12 22.0877C11.5063 22.0877 11.0212 21.958 10.5934 21.7116C10.1656 21.4652 9.81002 21.1107 9.56229 20.6836C9.28517 20.2059 9.44779 19.594 9.92552 19.3168Z" fill="#E7E6E2"/>
</svg>
