<svg width="24" height="24" viewBox="0 0 24 24" fill="none" xmlns="http://www.w3.org/2000/svg">
<path d="M15.751 12.75C16.4106 12.7477 17.053 12.9639 17.5771 13.3643C18.1013 13.7648 18.4782 14.3278 18.6494 14.9648C18.8206 15.602 18.7763 16.2783 18.5234 16.8877C18.2705 17.4967 17.8237 18.0054 17.252 18.334V20.459C17.252 20.566 17.2196 20.6708 17.1602 20.7598C17.1008 20.8486 17.0166 20.9181 16.918 20.959C16.8192 20.9999 16.7103 21.0101 16.6055 20.9893C16.5006 20.9684 16.4037 20.9174 16.3281 20.8418L15.751 20.2656L15.1748 20.8418C15.0992 20.9174 15.0024 20.9684 14.8975 20.9893C14.7926 21.0101 14.6838 20.9999 14.585 20.959C14.4863 20.9181 14.4022 20.8486 14.3428 20.7598C14.2834 20.6708 14.2509 20.566 14.251 20.459V18.334C13.6791 18.0053 13.2314 17.4969 12.9785 16.8877C12.7256 16.2784 12.6814 15.602 12.8525 14.9648C13.0237 14.3277 13.4015 13.7648 13.9258 13.3643C14.4498 12.964 15.0915 12.7478 15.751 12.75Z" fill="#E7E6E2"/>
<path fill-rule="evenodd" clip-rule="evenodd" d="M14.251 3C15.2452 3.00119 16.1983 3.39668 16.9014 4.09961C17.6044 4.80259 17.9997 5.75584 18.001 6.75V11.8574C17.3176 11.4612 16.5419 11.252 15.752 11.251C14.9617 11.25 14.1846 11.4577 13.5 11.8525C12.8155 12.2474 12.2474 12.8156 11.8525 13.5C11.4577 14.1844 11.2501 14.9608 11.251 15.751C11.2511 16.3828 11.385 17.0084 11.6436 17.585C11.9021 18.1613 12.2794 18.6765 12.751 19.0967V19.502H8.25C7.25588 19.5007 6.30259 19.1053 5.59961 18.4023C4.89653 17.6993 4.50119 16.7453 4.5 15.751V6.75C4.5013 5.75584 4.89663 4.80259 5.59961 4.09961C6.30259 3.39663 7.25584 3.0013 8.25 3H14.251ZM8.25 12.001C8.05121 12.0011 7.8603 12.0801 7.71973 12.2207C7.57918 12.3613 7.50002 12.5521 7.5 12.751C7.5 12.9498 7.57921 13.1406 7.71973 13.2812C7.8603 13.4218 8.05121 13.5009 8.25 13.501H10.501C10.6998 13.5009 10.8907 13.4218 11.0312 13.2812C11.1718 13.1406 11.251 12.9498 11.251 12.751C11.251 12.5521 11.1718 12.3613 11.0312 12.2207C10.8907 12.0801 10.6998 12.0011 10.501 12.001H8.25ZM8.25 9.00098C8.05121 9.00108 7.8603 9.08013 7.71973 9.2207C7.57926 9.36134 7.5 9.5522 7.5 9.75098C7.50006 9.94978 7.57917 10.1406 7.71973 10.2812C7.8603 10.4218 8.05121 10.5009 8.25 10.501H14.251C14.4498 10.501 14.6406 10.4218 14.7812 10.2812C14.9219 10.1406 15.0009 9.94982 15.001 9.75098C15.001 9.55208 14.9219 9.36136 14.7812 9.2207C14.6406 9.08004 14.4499 9.00098 14.251 9.00098H8.25ZM8.25 6C8.05121 6.00011 7.8603 6.07915 7.71973 6.21973C7.57915 6.3603 7.50011 6.55121 7.5 6.75C7.5 6.94893 7.57906 7.14058 7.71973 7.28125C7.86029 7.42177 8.05125 7.49989 8.25 7.5H14.251C14.4498 7.5 14.6406 7.42171 14.7812 7.28125C14.9219 7.14058 15.001 6.94893 15.001 6.75C15.0009 6.55121 14.9218 6.3603 14.7812 6.21973C14.6406 6.07921 14.4498 6 14.251 6H8.25Z" fill="#E7E6E2"/>
</svg>
