<svg width="24" height="24" viewBox="0 0 24 24" fill="none" xmlns="http://www.w3.org/2000/svg">
<path d="M20.4899 7.51999C20.4843 7.49362 20.4843 7.46635 20.4899 7.43999C20.4851 7.41691 20.4851 7.39307 20.4899 7.36999V7.27999L20.4299 7.12999C20.4056 7.08906 20.3752 7.05199 20.3399 7.01999L20.2499 6.93999H20.1999L16.2599 4.44999L12.5399 2.14999C12.4539 2.08172 12.3554 2.03078 12.2499 1.99999H12.1699C12.0806 1.98507 11.9893 1.98507 11.8999 1.99999H11.7999C11.6838 2.02568 11.5724 2.06956 11.4699 2.12999L3.99995 6.77999L3.90995 6.84999L3.81995 6.92999L3.71995 6.99999L3.66995 7.05999L3.60995 7.20999V7.35999C3.60023 7.4263 3.60023 7.49368 3.60995 7.55999V16.29C3.60961 16.4599 3.65258 16.6272 3.73482 16.7759C3.81705 16.9246 3.93583 17.0499 4.07995 17.14L11.5799 21.78L11.7299 21.84H11.8099C11.9791 21.8936 12.1608 21.8936 12.3299 21.84H12.4099L12.5599 21.78L19.9999 17.21C20.1441 17.1199 20.2628 16.9946 20.3451 16.8459C20.4273 16.6972 20.4703 16.5299 20.4699 16.36V7.62999C20.4699 7.62999 20.4899 7.55999 20.4899 7.51999ZM11.9999 4.16999L13.7799 5.26999L8.18995 8.72999L6.39995 7.62999L11.9999 4.16999ZM10.9999 19.17L5.49995 15.81V9.41999L10.9999 12.82V19.17ZM11.9999 11.06L10.0899 9.90999L15.6799 6.43999L17.5999 7.62999L11.9999 11.06ZM18.4999 15.78L12.9999 19.2V12.82L18.4999 9.41999V15.78Z" fill="#E7E6E2"/>
</svg>
