<svg width="24" height="24" viewBox="0 0 24 24" fill="none" xmlns="http://www.w3.org/2000/svg">
<path d="M10.296 12.7896C10.4948 12.7896 10.6856 12.8681 10.8263 13.0085C10.9668 13.1491 11.0459 13.34 11.046 13.5388L11.0453 20.2603C11.0451 20.6743 10.7094 21.0103 10.2953 21.0103C9.88119 21.0102 9.54541 20.6743 9.54525 20.2603V15.3992L4.26962 20.5452C3.97306 20.8343 3.49823 20.8278 3.20907 20.5312C2.92017 20.2347 2.92579 19.7598 3.22226 19.4707L8.53524 14.2896L3.75985 14.2925C3.34593 14.2925 3.01022 13.9564 3.00985 13.5425C3.00971 13.1283 3.34568 12.7927 3.75985 12.7925L10.296 12.7896Z" fill="#E7E6E2"/>
<path d="M16.5999 12.8943C18.8354 12.8943 20.6473 14.7069 20.6473 16.9424C20.6471 19.1777 18.8353 20.9897 16.5999 20.9897C14.3646 20.9897 12.5528 19.1777 12.5526 16.9424C12.5526 14.7069 14.3645 12.8943 16.5999 12.8943Z" fill="#E7E6E2"/>
<path d="M15.8287 3.52002C16.1918 2.87551 17.0484 2.87551 17.4115 3.52002L20.8648 9.64233C21.2465 10.307 20.7999 11.173 20.0738 11.1731H13.1568C12.4307 11.1731 11.9841 10.307 12.3658 9.64233L15.8287 3.52002Z" fill="#E7E6E2"/>
<path d="M9.06625 2.98975C10.1707 2.98993 11.0658 3.88554 11.0658 4.98999V9.05127C11.0657 10.1557 10.1706 11.0513 9.06625 11.0515H5.00424C3.89976 11.0514 3.00475 10.1558 3.00473 9.05127V4.98999C3.00473 3.88548 3.89975 2.98984 5.00424 2.98975H9.06625Z" fill="#E7E6E2"/>
</svg>
