<svg width="24" height="24" viewBox="0 0 24 24" fill="none" xmlns="http://www.w3.org/2000/svg">
<path d="M10.5242 12.8016C10.723 12.8016 10.9138 12.8809 11.0544 13.0214C11.1951 13.162 11.2749 13.3527 11.2749 13.5516L11.2742 20.3163C11.2739 20.7302 10.9381 21.0654 10.5242 21.0656C10.11 21.0655 9.77413 20.7298 9.77417 20.3156V15.382L4.28247 20.6063C3.98237 20.8915 3.50733 20.8791 3.22192 20.5792C2.93671 20.2792 2.94863 19.8049 3.24829 19.5194L8.73413 14.3016L3.78003 14.3046C3.36594 14.3046 3.03019 13.9687 3.03003 13.5546C3.0299 13.1405 3.36527 12.8049 3.7793 12.8046L10.5242 12.8016Z" fill="#E7E6E2"/>
<path d="M18.9375 12.7745C20.0766 12.7746 21 13.698 21 14.837V18.8719C21 20.011 20.0766 20.9344 18.9375 20.9344H14.9026C13.7635 20.9344 12.8401 20.011 12.8401 18.8719V14.837C12.8401 13.6979 13.7635 12.7745 14.9026 12.7745H18.9375Z" fill="#E7E6E2"/>
<path d="M9.21533 2.93445C10.3199 2.93445 11.2156 3.83012 11.2156 4.93469V9.14978C11.2156 10.2543 10.3199 11.15 9.21533 11.15H5.00024C3.89567 11.15 3 10.2543 3 9.14978V4.93469C3 3.83012 3.89567 2.93445 5.00024 2.93445H9.21533Z" fill="#E7E6E2"/>
<path d="M18.9932 2.96741C20.0977 2.96748 20.9927 3.86313 20.9927 4.96765V9.12415C20.9927 10.2287 20.0977 11.1243 18.9932 11.1244H14.8367C13.7321 11.1244 12.8364 10.2287 12.8364 9.12415V4.96765C12.8364 3.86308 13.7321 2.96741 14.8367 2.96741H18.9932Z" fill="#E7E6E2"/>
</svg>
