<svg width="24" height="24" viewBox="0 0 24 24" fill="none" xmlns="http://www.w3.org/2000/svg">
<path d="M20.61 19.19C21.2367 18.3499 21.6668 17.3799 21.8685 16.3514C22.0702 15.3229 22.0383 14.2623 21.7753 13.2478C21.5124 12.2332 21.0249 11.2907 20.349 10.4897C19.673 9.68877 18.8259 9.0498 17.87 8.61999C17.6618 7.42209 17.1833 6.28741 16.4708 5.30216C15.7584 4.31691 14.8307 3.50702 13.7583 2.93402C12.686 2.36102 11.4971 2.04 10.2821 1.99533C9.06702 1.95066 7.85778 2.18354 6.74623 2.67625C5.63469 3.16897 4.65007 3.90857 3.86719 4.83884C3.08432 5.76912 2.52379 6.86561 2.22819 8.04499C1.9326 9.22437 1.90971 10.4556 2.16128 11.6452C2.41284 12.8347 2.93224 13.9513 3.68 14.91L2.29 16.29C2.15124 16.4306 2.05724 16.6092 2.01987 16.8032C1.9825 16.9972 2.00342 17.1979 2.08 17.38C2.15502 17.5626 2.28242 17.7189 2.44614 17.8293C2.60986 17.9396 2.80257 17.999 3 18H8.69C9.25664 19.1946 10.15 20.2043 11.2667 20.9122C12.3835 21.6201 13.6778 21.9972 15 22H21C21.1974 21.999 21.3901 21.9396 21.5539 21.8293C21.7176 21.7189 21.845 21.5626 21.92 21.38C21.9966 21.1979 22.0175 20.9972 21.9801 20.8032C21.9428 20.6092 21.8488 20.4306 21.71 20.29L20.61 19.19ZM8 15C8.00137 15.3349 8.02812 15.6692 8.08 16H5.41L5.76 15.66C5.85373 15.567 5.92812 15.4564 5.97889 15.3346C6.02966 15.2127 6.0558 15.082 6.0558 14.95C6.0558 14.818 6.02966 14.6873 5.97889 14.5654C5.92812 14.4436 5.85373 14.333 5.76 14.24C5.19956 13.6857 4.75525 13.0252 4.45305 12.2972C4.15086 11.5692 3.99684 10.7882 4 9.99999C4 8.40869 4.63214 6.88257 5.75736 5.75735C6.88258 4.63213 8.4087 3.99999 10 3.99999C11.2417 3.99253 12.4545 4.37438 13.4679 5.09186C14.4814 5.80934 15.2445 6.82637 15.65 7.99999C15.43 7.99999 15.22 7.99999 15 7.99999C13.1435 7.99999 11.363 8.73749 10.0503 10.0502C8.7375 11.363 8 13.1435 8 15ZM18.54 20L18.59 20.05H15C13.8433 20.0479 12.7232 19.6449 11.8303 18.9096C10.9375 18.1743 10.3272 17.1521 10.1034 16.0173C9.87962 14.8825 10.0562 13.7052 10.6031 12.686C11.1499 11.6668 12.0333 10.8687 13.1026 10.4277C14.1718 9.98669 15.361 9.93005 16.4673 10.2674C17.5737 10.6048 18.5289 11.3153 19.1701 12.2779C19.8114 13.2406 20.0991 14.3957 19.9842 15.5467C19.8693 16.6976 19.3589 17.7731 18.54 18.59C18.3516 18.7746 18.2438 19.0262 18.24 19.29C18.2405 19.4223 18.2673 19.5532 18.3188 19.6751C18.3703 19.7969 18.4455 19.9074 18.54 20Z" fill="#E7E6E2"/>
</svg>
