<svg width="24" height="24" viewBox="0 0 24 24" fill="none" xmlns="http://www.w3.org/2000/svg">
<path d="M10.1899 5.23C10.7809 5.07603 11.3892 4.99873 11.9999 5C13.8565 5 15.6369 5.7375 16.9497 7.05025C18.2624 8.36301 18.9999 10.1435 18.9999 12C19.0012 12.6107 18.9239 13.219 18.7699 13.81C18.735 13.9367 18.7255 14.0691 18.7418 14.1995C18.7581 14.33 18.7999 14.4559 18.8649 14.5701C18.93 14.6844 19.0169 14.7847 19.1207 14.8653C19.2245 14.9459 19.3432 15.0053 19.4699 15.04C19.5563 15.0498 19.6436 15.0498 19.7299 15.04C19.9557 15.0477 20.1774 14.9788 20.359 14.8444C20.5406 14.7101 20.6713 14.5182 20.7299 14.3C20.9196 13.5483 21.0104 12.7751 20.9999 12C20.9999 9.61305 20.0517 7.32387 18.3639 5.63604C16.6761 3.94821 14.3869 3 11.9999 3C11.2134 2.99673 10.43 3.0976 9.66994 3.3C9.41944 3.37644 9.20892 3.54811 9.08363 3.77811C8.95835 4.00811 8.9283 4.27808 8.99994 4.53C9.07029 4.77728 9.23316 4.98796 9.45476 5.11831C9.67635 5.24866 9.93963 5.28866 10.1899 5.23ZM21.7099 20.29L3.70994 2.29C3.52164 2.1017 3.26624 1.99591 2.99994 1.99591C2.73364 1.99591 2.47824 2.1017 2.28994 2.29C2.10164 2.47831 1.99585 2.7337 1.99585 3C1.99585 3.2663 2.10164 3.5217 2.28994 3.71L4.99994 6.38C3.72442 7.97546 3.02956 9.95735 3.02956 12C3.02956 14.0427 3.72442 16.0245 4.99994 17.62L3.28994 19.29C3.15118 19.4306 3.05719 19.6092 3.01981 19.8032C2.98244 19.9972 3.00336 20.1979 3.07994 20.38C3.15496 20.5626 3.28236 20.7189 3.44608 20.8293C3.6098 20.9396 3.80252 20.999 3.99994 21H11.9999C14.0462 20.9916 16.0284 20.2862 17.6199 19L20.2899 21.68C20.3829 21.7737 20.4935 21.8481 20.6154 21.8989C20.7372 21.9497 20.8679 21.9758 20.9999 21.9758C21.132 21.9758 21.2627 21.9497 21.3845 21.8989C21.5064 21.8481 21.617 21.7737 21.7099 21.68C21.8902 21.4935 21.9909 21.2443 21.9909 20.985C21.9909 20.7257 21.8902 20.4765 21.7099 20.29ZM11.9999 19H6.40994L7.04994 18.37C7.23619 18.1826 7.34073 17.9292 7.34073 17.665C7.34073 17.4008 7.23619 17.1474 7.04994 16.96C5.85843 15.7685 5.13672 14.1871 5.01732 12.5063C4.89792 10.8255 5.38884 9.158 6.39994 7.81L16.1899 17.6C14.981 18.5067 13.5111 18.9978 11.9999 19Z" fill="#E7E6E2"/>
</svg>
