<svg width="24" height="24" viewBox="0 0 24 24" fill="none" xmlns="http://www.w3.org/2000/svg">
<path fill-rule="evenodd" clip-rule="evenodd" d="M12 3C16.9706 3 21 7.02944 21 12C21 16.9706 16.9706 21 12 21C7.02944 21 3 16.9706 3 12C3 7.02944 7.02944 3 12 3ZM12.7837 6.91772C12.5145 6.19035 11.4855 6.19035 11.2163 6.91772L10.4553 8.97437C10.2015 9.66042 9.66042 10.2015 8.97437 10.4553L6.91772 11.2163C6.19035 11.4855 6.19035 12.5145 6.91772 12.7837L8.97437 13.5447C9.66039 13.7985 10.2014 14.3396 10.4553 15.0256L11.2163 17.083C11.4855 17.8101 12.5144 17.81 12.7837 17.083L13.5447 15.0256C13.7985 14.3396 14.3396 13.7985 15.0256 13.5447L17.083 12.7837C17.81 12.5144 17.8101 11.4855 17.083 11.2163L15.0256 10.4553C14.3396 10.2014 13.7985 9.66039 13.5447 8.97437L12.7837 6.91772Z" fill="#E7E6E2"/>
</svg>
