<svg width="24" height="24" viewBox="0 0 24 24" fill="none" xmlns="http://www.w3.org/2000/svg">
<path d="M12.0059 10.2062C13.0036 10.2094 13.7978 11.0129 13.794 12.0138C13.7892 13.008 12.9789 13.8082 11.9834 13.8C11.0018 13.7922 10.2022 12.9841 10.2041 12.0011C10.206 11.0036 11.0096 10.2032 12.0059 10.2062Z" fill="#E7E6E2"/>
<path fill-rule="evenodd" clip-rule="evenodd" d="M16.1377 3.07828C16.8281 2.9722 17.5205 2.96308 18.2051 3.11929C19.7497 3.47228 20.7761 4.6386 20.958 6.22574C21.109 7.54599 20.8107 8.79332 20.3184 9.99917C20.0625 10.6246 19.738 11.2231 19.4326 11.8273C19.3678 11.955 19.3635 12.043 19.4346 12.1681C20.1064 13.3465 20.6434 14.5788 20.8877 15.923C21.0207 16.6545 21.0518 17.3881 20.8994 18.1203C20.5612 19.7459 19.3328 20.8242 17.6602 20.9669C17.4616 20.9849 17.2624 20.9931 17.1416 21.0002C15.7248 20.9687 14.4815 20.5718 13.2832 20.0099C12.9097 19.8351 12.5436 19.6424 12.1856 19.4386C12.0431 19.3578 11.9443 19.3673 11.8076 19.4455C10.7529 20.0471 9.65132 20.5374 8.46095 20.8068C7.58988 21.0041 6.71176 21.0839 5.82912 20.8839C4.21885 20.5194 3.18495 19.3222 3.03322 17.674C2.90723 16.3055 3.24476 15.0243 3.77052 13.7843C4.00324 13.236 4.28771 12.7089 4.56349 12.1798C4.63344 12.0456 4.6376 11.9518 4.56252 11.8195C3.87854 10.6219 3.33654 9.36776 3.1006 7.99917C2.96884 7.23691 2.95174 6.4731 3.13869 5.71597C3.49997 4.2509 4.62823 3.2551 6.1338 3.05581C7.37431 2.89137 8.5623 3.12443 9.70705 3.57242C10.4185 3.85071 11.101 4.2054 11.7861 4.54605C11.9539 4.62962 12.0636 4.62888 12.2236 4.53824C13.4495 3.84273 14.7332 3.29496 16.1377 3.07828ZM18.1904 13.7296C16.9118 15.4255 15.4268 16.9119 13.7149 18.2677C14.2828 18.4856 14.8433 18.7266 15.4209 18.9142C16.1401 19.1482 16.8803 19.2801 17.6426 19.1593C18.2816 19.0584 18.8013 18.7642 19.0186 18.1291C19.1349 17.7877 19.194 17.4093 19.1914 17.048C19.1817 15.8718 18.7642 14.8022 18.25 13.7648C18.2423 13.75 18.2161 13.7437 18.1904 13.7296ZM5.6758 13.9113C5.47594 14.4099 5.25725 14.9024 5.08693 15.4113C4.87543 16.0432 4.76487 16.6985 4.80666 17.3703C4.86848 18.3639 5.37758 18.9913 6.28517 19.1418C6.61559 19.1964 6.96261 19.2036 7.29689 19.1759C8.29589 19.0924 9.21877 18.7421 10.1143 18.3127C10.1708 18.2857 10.224 18.2509 10.2979 18.2091C8.57699 16.9145 7.08667 15.4228 5.79005 13.7013C5.74381 13.7861 5.70213 13.8458 5.6758 13.9113ZM12.1699 6.89664C12.0365 6.80241 11.9512 6.81022 11.8242 6.90054C9.89759 8.2634 8.25512 9.90976 6.89162 11.8351C6.80568 11.9564 6.80264 12.0376 6.89064 12.1623C7.61448 13.1901 8.42751 14.1412 9.32619 15.0187C10.1509 15.8235 11.0328 16.5589 11.9932 17.2082C12.034 17.1865 12.0544 17.178 12.0723 17.1652C14.0548 15.7888 15.7361 14.1105 17.126 12.1388C17.2164 12.0104 17.1758 11.9327 17.1026 11.8293C15.741 9.90272 14.0971 8.25879 12.1699 6.89664ZM17.4902 4.82535C17.1047 4.79583 16.7082 4.81729 16.3252 4.8732C15.4066 5.00756 14.5548 5.35136 13.6953 5.78335C15.4187 7.07931 16.9081 8.56805 18.2246 10.3146C18.3718 9.98427 18.509 9.70079 18.626 9.41031C18.9937 8.49424 19.2643 7.55638 19.1885 6.55289C19.1113 5.53284 18.5084 4.90312 17.4902 4.82535ZM8.81056 5.15542C8.05344 4.89449 7.27727 4.73252 6.46681 4.82242C5.54496 4.92463 4.98581 5.44695 4.84181 6.3566C4.8174 6.50891 4.8037 6.66427 4.80177 6.81851C4.7903 7.78133 5.07079 8.67844 5.43459 9.55386C5.53547 9.79607 5.65274 10.0322 5.77931 10.3097C7.0887 8.57416 8.58241 7.08124 10.334 5.76089C9.79281 5.54364 9.30935 5.32768 8.81056 5.15542Z" fill="#E7E6E2"/>
</svg>
