<svg width="24" height="24" viewBox="0 0 24 24" fill="none" xmlns="http://www.w3.org/2000/svg">
<path d="M9.55048 14.4504C9.74157 14.4466 9.92857 14.5098 10.0778 14.6292C10.227 14.7485 10.3296 14.9166 10.3679 15.1038L11.1843 19.1887C11.2054 19.3086 11.2002 19.4318 11.1677 19.5491C11.1352 19.6663 11.0765 19.7746 10.9968 19.8665C10.9209 19.96 10.8251 20.0359 10.7165 20.0881C10.6078 20.1404 10.4885 20.1684 10.3679 20.1692H3.8327C3.70936 20.1708 3.587 20.1443 3.47528 20.092C3.36351 20.0397 3.26494 19.9623 3.1872 19.8665C3.11026 19.7732 3.05474 19.6643 3.02509 19.5471C2.99542 19.4299 2.99194 19.3074 3.01532 19.1887L3.8327 15.1038C3.87098 14.9167 3.97362 14.7485 4.12274 14.6292C4.2719 14.51 4.45821 14.4466 4.64911 14.4504H9.55048Z" fill="#E7E6E2"/>
<path d="M19.3542 14.4504C19.5451 14.4467 19.7314 14.5099 19.8806 14.6292C20.0297 14.7485 20.1323 14.9167 20.1706 15.1038L20.988 19.1887C21.0092 19.3086 21.0029 19.4318 20.9704 19.5491C20.9379 19.6663 20.8793 19.7746 20.7995 19.8665C20.7235 19.9601 20.6279 20.0359 20.5192 20.0881C20.4105 20.1404 20.2913 20.1684 20.1706 20.1692H13.6354C13.512 20.1708 13.3898 20.1444 13.278 20.092C13.1662 20.0397 13.0677 19.9623 12.9899 19.8665C12.913 19.7732 12.8575 19.6643 12.8278 19.5471C12.7982 19.4299 12.7947 19.3074 12.8181 19.1887L13.6354 15.1038C13.6737 14.9167 13.7763 14.7485 13.9255 14.6292C14.0746 14.5099 14.261 14.4467 14.4518 14.4504H19.3542Z" fill="#E7E6E2"/>
<path d="M14.4518 7.09888C14.643 7.09502 14.8299 7.15818 14.9792 7.27759C15.1283 7.39699 15.2311 7.56498 15.2692 7.7522L16.0856 11.8362C16.1068 11.9559 16.1015 12.0793 16.069 12.1965C16.0365 12.3138 15.978 12.423 15.8981 12.5149C15.8222 12.6085 15.7265 12.6844 15.6179 12.7366C15.5091 12.7888 15.3899 12.8158 15.2692 12.8167H8.73407C8.61065 12.8183 8.48843 12.7919 8.37665 12.7395C8.26495 12.6872 8.16629 12.6107 8.08856 12.5149C8.01156 12.4216 7.95612 12.3118 7.92645 12.1946C7.89686 12.0774 7.89332 11.9547 7.91669 11.8362L8.73407 7.7522C8.77226 7.56493 8.87488 7.397 9.02411 7.27759C9.17329 7.15824 9.35947 7.0951 9.55048 7.09888H14.4518Z" fill="#E7E6E2"/>
<path d="M18.2751 3.01294C18.7259 3.01319 19.0923 3.37946 19.0925 3.83032V4.64673H19.9089C20.3597 4.64695 20.726 5.01326 20.7263 5.46411C20.7263 5.91515 20.3599 6.28128 19.9089 6.28149H19.0925V7.0979C19.0925 7.54892 18.726 7.91504 18.2751 7.91528C17.8239 7.91528 17.4577 7.54907 17.4577 7.0979V6.28149H16.6413C16.1901 6.28149 15.8239 5.91528 15.8239 5.46411C15.8241 5.01312 16.1903 4.64673 16.6413 4.64673H17.4577V3.83032C17.4579 3.37931 17.824 3.01294 18.2751 3.01294Z" fill="#E7E6E2"/>
</svg>
