<svg width="24" height="24" viewBox="0 0 24 24" fill="none" xmlns="http://www.w3.org/2000/svg">
<path d="M10.66 5.99994H18C18.2652 5.99994 18.5196 6.1053 18.7071 6.29283C18.8946 6.48037 19 6.73472 19 6.99994V12.9999C19.0012 13.1764 18.9527 13.3497 18.86 13.4999C18.7897 13.6109 18.742 13.7346 18.7195 13.864C18.6971 13.9934 18.7004 14.126 18.7291 14.2542C18.7579 14.3823 18.8117 14.5035 18.8873 14.6109C18.963 14.7183 19.059 14.8097 19.17 14.8799C19.3266 14.9853 19.5113 15.041 19.7 15.0399C19.8673 15.0397 20.0319 14.9974 20.1786 14.917C20.3254 14.8367 20.4496 14.7208 20.54 14.5799C20.8406 14.1078 21.0002 13.5597 21 12.9999V6.99994C21 6.20429 20.6839 5.44123 20.1213 4.87862C19.5587 4.31601 18.7957 3.99994 18 3.99994H10.66C10.3948 3.99994 10.1404 4.1053 9.9529 4.29283C9.76536 4.48037 9.66 4.73472 9.66 4.99994C9.66 5.26516 9.76536 5.51951 9.9529 5.70705C10.1404 5.89458 10.3948 5.99994 10.66 5.99994ZM21.71 20.2899L5.86 4.44994L3.71 2.28994C3.61676 2.1967 3.50607 2.12274 3.38425 2.07228C3.26243 2.02182 3.13186 1.99585 3 1.99585C2.86814 1.99585 2.73758 2.02182 2.61575 2.07228C2.49393 2.12274 2.38324 2.1967 2.29 2.28994C2.1017 2.47824 1.99591 2.73364 1.99591 2.99994C1.99591 3.26624 2.1017 3.52164 2.29 3.70994L3.69 5.09994C3.24713 5.63438 3.00328 6.30586 3 6.99994V12.9999C3 13.7956 3.31607 14.5587 3.87868 15.1213C4.44129 15.6839 5.20435 15.9999 6 15.9999H11V17.9999H7C6.73479 17.9999 6.48043 18.1053 6.2929 18.2928C6.10536 18.4804 6 18.7347 6 18.9999C6 19.2652 6.10536 19.5195 6.2929 19.707C6.48043 19.8946 6.73479 19.9999 7 19.9999H17C17.2038 19.9978 17.4021 19.9335 17.5683 19.8155C17.7345 19.6975 17.8607 19.5316 17.93 19.3399L20.29 21.7099C20.383 21.8037 20.4936 21.8781 20.6154 21.9288C20.7373 21.9796 20.868 22.0057 21 22.0057C21.132 22.0057 21.2627 21.9796 21.3846 21.9288C21.5064 21.8781 21.617 21.8037 21.71 21.7099C21.8037 21.617 21.8781 21.5064 21.9289 21.3845C21.9797 21.2627 22.0058 21.132 22.0058 20.9999C22.0058 20.8679 21.9797 20.7372 21.9289 20.6154C21.8781 20.4935 21.8037 20.3829 21.71 20.2899ZM6 13.9999C5.73479 13.9999 5.48043 13.8946 5.2929 13.707C5.10536 13.5195 5 13.2652 5 12.9999V6.99994C5.00244 6.83919 5.04361 6.6814 5.12 6.53994L12.59 13.9999H6ZM13 17.9999V15.9999H14.59L16.59 17.9999H13Z" fill="#E7E6E2"/>
</svg>
