<svg width="24" height="24" viewBox="0 0 24 24" fill="none" xmlns="http://www.w3.org/2000/svg">
<path d="M12 13.9165L10.0835 12L12 10.0835L13.9165 12L12 13.9165ZM9.96376 8.28685L7.56818 5.89128L10.6345 2.82494C10.8262 2.63329 11.0418 2.48956 11.2813 2.39373C11.5209 2.29791 11.7604 2.25 12 2.25C12.2396 2.25 12.4791 2.29791 12.7187 2.39373C12.9582 2.48956 13.1738 2.63329 13.3655 2.82494L16.4318 5.89128L14.0362 8.28685L12 6.25061L9.96376 8.28685ZM5.89128 16.4318L2.82494 13.3655C2.63329 13.1738 2.48956 12.9582 2.39373 12.7187C2.29791 12.4791 2.25 12.2396 2.25 12C2.25 11.7604 2.29791 11.5209 2.39373 11.2813C2.48956 11.0418 2.63329 10.8262 2.82494 10.6345L5.89128 7.56818L8.28685 9.96376L6.25061 12L8.28685 14.0362L5.89128 16.4318ZM18.1087 16.4318L15.7131 14.0362L17.7494 12L15.7131 9.96376L18.1087 7.56818L21.1751 10.6345C21.3667 10.8262 21.5104 11.0418 21.6063 11.2813C21.7021 11.5209 21.75 11.7604 21.75 12C21.75 12.2396 21.7021 12.4791 21.6063 12.7187C21.5104 12.9582 21.3667 13.1738 21.1751 13.3655L18.1087 16.4318ZM10.6345 21.1751L7.56818 18.1087L9.96376 15.7131L12 17.7494L14.0362 15.7131L16.4318 18.1087L13.3655 21.1751C13.1738 21.3667 12.9582 21.5104 12.7187 21.6063C12.4791 21.7021 12.2396 21.75 12 21.75C11.7604 21.75 11.5209 21.7021 11.2813 21.6063C11.0418 21.5104 10.8262 21.3667 10.6345 21.1751Z" fill="#E7E6E2"/>
</svg>
