<svg width="24" height="24" viewBox="0 0 24 24" fill="none" xmlns="http://www.w3.org/2000/svg">
<path d="M12.1129 20.9831C9.41774 20.5804 7.28022 19.5387 5.7003 17.8581C4.12039 16.1775 3.22201 13.889 3.00516 10.9925C2.98967 10.8221 3.00904 10.6711 3.06325 10.5394C3.11746 10.4078 3.19103 10.2955 3.28397 10.2025C3.37691 10.1096 3.4892 10.0399 3.62086 9.99343C3.75252 9.94696 3.8958 9.93922 4.05069 9.97019C6.88524 10.3574 9.06923 11.4494 10.6027 13.2462C12.1361 15.0429 12.988 17.2889 13.1584 19.984C13.1739 20.1234 13.1545 20.259 13.1003 20.3906C13.0461 20.5223 12.9648 20.6346 12.8564 20.7275C12.7634 20.8205 12.6511 20.894 12.5195 20.9483C12.3878 21.0025 12.2523 21.0141 12.1129 20.9831ZM12.2523 12.3401C12.0354 11.9993 11.5359 11.4998 10.7537 10.8415C9.97149 10.1832 9.30932 9.7456 8.76719 9.52875C8.89111 8.75428 9.20476 7.77458 9.70817 6.58965C10.2116 5.40472 10.8118 4.33208 11.5088 3.37174C11.6017 3.24783 11.714 3.15489 11.8457 3.09294C11.9774 3.03098 12.1129 3 12.2523 3C12.3917 3 12.5234 3.03098 12.6473 3.09294C12.7712 3.15489 12.8796 3.25557 12.9725 3.39498C13.6696 4.37081 14.2775 5.43957 14.7964 6.60127C15.3153 7.76297 15.629 8.73879 15.7374 9.52875C15.1333 9.80756 14.4595 10.2606 13.716 10.8879C12.9725 11.5153 12.4846 11.9993 12.2523 12.3401ZM14.9939 20.3093C14.9629 19.3645 14.8196 18.2918 14.5641 17.0914C14.3085 15.891 13.9096 14.8571 13.3675 13.9897C14.0336 12.9674 15.021 12.0845 16.3299 11.341C17.6387 10.5975 19.0211 10.1406 20.4771 9.97019C20.632 9.93922 20.7714 9.95083 20.8953 10.005C21.0192 10.0593 21.1277 10.1328 21.2206 10.2258C21.3135 10.3187 21.3871 10.4271 21.4413 10.551C21.4955 10.675 21.5149 10.8144 21.4994 10.9693C21.3755 13.463 20.6978 15.4883 19.4664 17.0449C18.235 18.6016 16.7442 19.6897 14.9939 20.3093Z" fill="#E7E6E2"/>
</svg>
