<svg width="24" height="24" viewBox="0 0 24 24" fill="none" xmlns="http://www.w3.org/2000/svg">
<path fill-rule="evenodd" clip-rule="evenodd" d="M11.5367 3.18917C11.794 2.93715 12.2051 2.93715 12.4625 3.18917L14.5396 5.22335C14.6615 5.34275 14.825 5.40995 14.9957 5.41182L17.9029 5.4421C18.263 5.44583 18.5544 5.73722 18.5582 6.09737L18.5884 9.0046C18.5902 9.1752 18.6576 9.33871 18.7769 9.46065L20.8121 11.5378C21.0637 11.795 21.0636 12.2063 20.8121 12.4636L18.7769 14.5407C18.6576 14.6626 18.5903 14.8262 18.5884 14.9968L18.5582 17.904C18.5544 18.2642 18.263 18.5555 17.9029 18.5593L14.9957 18.5896C14.8251 18.5914 14.6615 18.6587 14.5396 18.778L12.4625 20.8132C12.2052 21.0648 11.7939 21.0648 11.5367 20.8132L9.45952 18.778C9.33758 18.6587 9.17408 18.5914 9.00347 18.5896L6.09624 18.5593C5.7361 18.5555 5.4447 18.2642 5.44097 17.904L5.41069 14.9968C5.40882 14.8262 5.34162 14.6626 5.22222 14.5407L3.18804 12.4636C2.93602 12.2063 2.93602 11.7951 3.18804 11.5378L5.22222 9.46065C5.34162 9.3387 5.40888 9.17526 5.41069 9.0046L5.44097 6.09737C5.4447 5.73722 5.7361 5.44583 6.09624 5.4421L9.00347 5.41182C9.17413 5.41001 9.33757 5.34274 9.45952 5.22335L11.5367 3.18917ZM12.8394 7.40206C12.7208 7.35962 12.6065 7.35695 12.4966 7.39327C12.3867 7.42968 12.296 7.49735 12.2251 7.59639L8.77593 12.572C8.67334 12.7171 8.66332 12.8685 8.74565 13.0251C8.828 13.1816 8.95758 13.2595 9.13433 13.2595H10.7359L10.3345 16.0417C10.3204 16.1605 10.3422 16.2694 10.4 16.3679C10.4576 16.4664 10.5395 16.5397 10.6441 16.5876C10.7485 16.6353 10.8556 16.6454 10.9654 16.6189C11.0752 16.5922 11.1685 16.5343 11.2447 16.444L15.0582 11.8757C15.1803 11.7306 15.2035 11.574 15.1265 11.406C15.0496 11.238 14.9166 11.154 14.7291 11.154H12.7652L13.1617 7.95284C13.1758 7.83425 13.155 7.72359 13.1001 7.62081C13.0451 7.51789 12.9582 7.44457 12.8394 7.40206Z" fill="#E7E6E2"/>
</svg>
