<svg width="24" height="24" viewBox="0 0 24 24" fill="none" xmlns="http://www.w3.org/2000/svg">
<path d="M2.53945 21C2.11331 21 1.80649 20.8125 1.61899 20.4375C1.43149 20.0625 1.46558 19.7045 1.72126 19.3636L5.81217 13.9176C5.91444 13.7813 6.03802 13.679 6.18291 13.6108C6.3278 13.5426 6.47694 13.5085 6.63035 13.5085C6.78376 13.5085 6.93291 13.5426 7.0778 13.6108C7.22268 13.679 7.34626 13.7813 7.44854 13.9176L10.619 18.1364C10.7894 18.375 11.011 18.5114 11.2838 18.5455C11.5565 18.5795 11.8122 18.5114 12.0508 18.3409C12.2894 18.1705 12.4301 17.9446 12.4727 17.6634C12.5153 17.3821 12.4429 17.1222 12.2554 16.8835L10.4144 14.4545C10.2781 14.267 10.2099 14.0625 10.2099 13.8409C10.2099 13.6193 10.2781 13.4148 10.4144 13.2273L12.9713 9.8267C13.0735 9.69034 13.1971 9.58807 13.342 9.51989C13.4869 9.4517 13.636 9.41761 13.7894 9.41761C13.9429 9.41761 14.092 9.4517 14.2369 9.51989C14.3818 9.58807 14.5054 9.69034 14.6076 9.8267L21.7667 19.3636C22.0224 19.7045 22.0565 20.0625 21.869 20.4375C21.6815 20.8125 21.3747 21 20.9485 21H2.53945ZM18.9031 10.0227C18.6133 10.0227 18.3704 9.92472 18.1744 9.72869C17.9784 9.53267 17.8804 9.28977 17.8804 9V5.72727L16.9343 6.64773C16.7468 6.83523 16.5167 6.93324 16.244 6.94176C15.9713 6.95028 15.7326 6.85227 15.5281 6.64773C15.3406 6.46023 15.2468 6.22159 15.2468 5.93182C15.2468 5.64205 15.3406 5.40341 15.5281 5.21591L18.1872 2.55682C18.3917 2.35227 18.6304 2.25 18.9031 2.25C19.1758 2.25 19.4144 2.35227 19.619 2.55682L22.2781 5.21591C22.4826 5.42045 22.5849 5.65909 22.5849 5.93182C22.5849 6.20455 22.4826 6.44318 22.2781 6.64773C22.0735 6.85227 21.8306 6.95455 21.5494 6.95455C21.2681 6.95455 21.0252 6.85227 20.8207 6.64773L19.9258 5.75284V9C19.9258 9.28977 19.8278 9.53267 19.6318 9.72869C19.4358 9.92472 19.1929 10.0227 18.9031 10.0227Z" fill="#E7E6E2"/>
</svg>
