<svg width="24" height="24" viewBox="0 0 24 24" fill="none" xmlns="http://www.w3.org/2000/svg">
<path d="M12 2C9.43637 2.00731 6.97347 2.99891 5.11998 4.77V3C5.11998 2.73478 5.01463 2.48043 4.82709 2.29289C4.63956 2.10536 4.3852 2 4.11998 2C3.85477 2 3.60041 2.10536 3.41288 2.29289C3.22534 2.48043 3.11998 2.73478 3.11998 3V7.5C3.11998 7.76522 3.22534 8.01957 3.41288 8.20711C3.60041 8.39464 3.85477 8.5 4.11998 8.5H8.61998C8.8852 8.5 9.13955 8.39464 9.32709 8.20711C9.51463 8.01957 9.61998 7.76522 9.61998 7.5C9.61998 7.23478 9.51463 6.98043 9.32709 6.79289C9.13955 6.60536 8.8852 6.5 8.61998 6.5H6.21998C7.50576 5.15636 9.21949 4.30265 11.0665 4.08567C12.9135 3.86868 14.7785 4.30198 16.3406 5.31104C17.9028 6.32011 19.0646 7.84191 19.6263 9.61479C20.188 11.3877 20.1145 13.3009 19.4184 15.0254C18.7223 16.7499 17.4471 18.1781 15.8121 19.0643C14.1771 19.9505 12.2845 20.2394 10.4595 19.8813C8.63461 19.5232 6.99145 18.5405 5.81258 17.1022C4.6337 15.6638 3.99277 13.8597 3.99998 12C3.99998 11.7348 3.89463 11.4804 3.70709 11.2929C3.51956 11.1054 3.2652 11 2.99998 11C2.73477 11 2.48041 11.1054 2.29288 11.2929C2.10534 11.4804 1.99998 11.7348 1.99998 12C1.99998 13.9778 2.58647 15.9112 3.68529 17.5557C4.7841 19.2002 6.34589 20.4819 8.17315 21.2388C10.0004 21.9957 12.0111 22.1937 13.9509 21.8079C15.8907 21.422 17.6725 20.4696 19.0711 19.0711C20.4696 17.6725 21.422 15.8907 21.8078 13.9509C22.1937 12.0111 21.9957 10.0004 21.2388 8.17317C20.4819 6.3459 19.2002 4.78412 17.5557 3.6853C15.9112 2.58649 13.9778 2 12 2ZM12 8C11.7348 8 11.4804 8.10536 11.2929 8.29289C11.1053 8.48043 11 8.73478 11 9V12C11 12.2652 11.1053 12.5196 11.2929 12.7071C11.4804 12.8946 11.7348 13 12 13H14C14.2652 13 14.5196 12.8946 14.7071 12.7071C14.8946 12.5196 15 12.2652 15 12C15 11.7348 14.8946 11.4804 14.7071 11.2929C14.5196 11.1054 14.2652 11 14 11H13V9C13 8.73478 12.8946 8.48043 12.7071 8.29289C12.5196 8.10536 12.2652 8 12 8Z" fill="#E7E6E2"/>
</svg>
