<svg width="24" height="24" viewBox="0 0 24 24" fill="none" xmlns="http://www.w3.org/2000/svg">
<path d="M2.25 12.1095C2.25 11.7672 2.32712 11.4493 2.48135 11.156C2.63559 10.8627 2.85 10.6201 3.12459 10.4284L7.49992 7.30847C7.68802 7.173 7.88172 7.07516 8.081 7.01497C8.28029 6.95479 8.48335 6.92471 8.6902 6.92471C8.90066 6.92471 9.10463 6.95479 9.3021 7.01497C9.49958 7.07516 9.69237 7.173 9.88048 7.30847L14.2504 10.4284C14.525 10.6201 14.7394 10.8627 14.8936 11.156C15.0478 11.4493 15.125 11.7672 15.125 12.1095V18.527C15.125 19.0009 14.9563 19.4065 14.6189 19.7439C14.2815 20.0813 13.8758 20.25 13.4019 20.25H12.2285C11.7546 20.25 11.3489 20.0813 11.0115 19.7439C10.6741 19.4065 10.5054 19.0009 10.5054 18.527V16.0192C10.5054 15.6374 10.3713 15.3123 10.1029 15.044C9.8346 14.7756 9.50953 14.6415 9.12774 14.6415H8.25266C7.87086 14.6415 7.5458 14.7756 7.27746 15.044C7.00912 15.3123 6.87495 15.6374 6.87495 16.0192V18.527C6.87495 19.0009 6.70626 19.4065 6.36886 19.7439C6.03145 20.0813 5.62581 20.25 5.15194 20.25H3.97301C3.49914 20.25 3.09351 20.0813 2.75611 19.7439C2.41872 19.4065 2.25002 19.0009 2.25002 18.527L2.25 12.1095ZM22.4673 5.81484V18.1852C22.4673 18.7567 22.2661 19.2437 21.8636 19.6462C21.461 20.0487 20.974 20.25 20.4025 20.25H17.9726C17.6829 20.25 17.4384 20.1504 17.2391 19.9511C17.0398 19.7518 16.9402 19.5073 16.9402 19.2176V11.2127C16.9402 10.874 16.8669 10.558 16.7202 10.2647C16.5735 9.97133 16.3629 9.72879 16.0883 9.53707L11.4816 6.22032C11.2524 6.04735 11.0773 5.85225 10.9563 5.63504C10.8353 5.41783 10.7748 5.19068 10.7748 4.95358C10.7748 4.58265 10.8985 4.28932 11.146 4.07359C11.3934 3.85786 11.725 3.75 12.1406 3.75H20.4025C20.974 3.75 21.461 3.95126 21.8636 4.35377C22.2661 4.75627 22.4673 5.2433 22.4673 5.81484ZM17.3723 9.27713H18.3233C18.4407 9.27713 18.5421 9.23447 18.6274 9.14913C18.7128 9.06379 18.7554 8.96242 18.7554 8.84503V7.89398C18.7554 7.7766 18.7128 7.67523 18.6274 7.58988C18.5421 7.50455 18.4407 7.46188 18.3233 7.46188H17.3723C17.2549 7.46188 17.1535 7.50455 17.0682 7.58988C16.9829 7.67523 16.9402 7.7766 16.9402 7.89398V8.84503C16.9402 8.96242 16.9829 9.06379 17.0682 9.14913C17.1535 9.23447 17.2549 9.27713 17.3723 9.27713ZM17.3723 12.9076H18.3233C18.4407 12.9076 18.5421 12.865 18.6274 12.7796C18.7128 12.6943 18.7554 12.5929 18.7554 12.4755V11.5245C18.7554 11.4071 18.7128 11.3057 18.6274 11.2204C18.5421 11.135 18.4407 11.0924 18.3233 11.0924H17.3723C17.2549 11.0924 17.1535 11.135 17.0682 11.2204C16.9829 11.3057 16.9402 11.4071 16.9402 11.5245V12.4755C16.9402 12.5929 16.9829 12.6943 17.0682 12.7796C17.1535 12.865 17.2549 12.9076 17.3723 12.9076ZM17.3723 16.5381H18.3233C18.4407 16.5381 18.5421 16.4955 18.6274 16.4101C18.7128 16.3248 18.7554 16.2234 18.7554 16.106V15.155C18.7554 15.0376 18.7128 14.9362 18.6274 14.8509C18.5421 14.7655 18.4407 14.7229 18.3233 14.7229H17.3723C17.2549 14.7229 17.1535 14.7655 17.0682 14.8509C16.9829 14.9362 16.9402 15.0376 16.9402 15.155V16.106C16.9402 16.2234 16.9829 16.3248 17.0682 16.4101C17.1535 16.4955 17.2549 16.5381 17.3723 16.5381Z" fill="#E7E6E2"/>
</svg>
