<svg width="24" height="24" viewBox="0 0 24 24" fill="none" xmlns="http://www.w3.org/2000/svg">
<path fill-rule="evenodd" clip-rule="evenodd" d="M11.4736 2.01651C11.7651 1.7314 12.2309 1.73139 12.5224 2.01651L14.8769 4.32218C15.0152 4.45748 15.2001 4.53402 15.3935 4.53604L18.6884 4.57022C19.0963 4.57465 19.4262 4.90457 19.4306 5.31241L19.4648 8.60733C19.4668 8.80076 19.5434 8.98571 19.6787 9.12393L21.9843 11.4784C22.2695 11.7699 22.2695 12.2358 21.9843 12.5273L19.6787 14.8817C19.5434 15.02 19.4668 15.2049 19.4648 15.3983L19.4306 18.6933C19.4262 19.1011 19.0963 19.431 18.6884 19.4355L15.3935 19.4696C15.2001 19.4717 15.0152 19.5482 14.8769 19.6835L12.5224 21.9892C12.2309 22.2743 11.7651 22.2743 11.4736 21.9892L9.11911 19.6835C8.98089 19.5482 8.79593 19.4717 8.60251 19.4696L5.30759 19.4355C4.89975 19.431 4.56983 19.1011 4.5654 18.6933L4.53122 15.3983C4.5292 15.2049 4.45266 15.02 4.31735 14.8817L2.01169 12.5273C1.72657 12.2358 1.72657 11.7699 2.01169 11.4784L4.31735 9.12393C4.45266 8.98571 4.5292 8.80075 4.53122 8.60733L4.5654 5.31241C4.56982 4.90456 4.89974 4.57464 5.30759 4.57022L8.60251 4.53604C8.79593 4.53402 8.98089 4.45748 9.11911 4.32218L11.4736 2.01651ZM10.4043 9.19132C10.1478 9.19132 9.91984 9.29005 9.72165 9.48819C9.52343 9.68641 9.42478 9.91428 9.42478 10.1708C9.42479 10.4505 9.52069 10.6806 9.71286 10.8612C9.90525 11.042 10.1302 11.1327 10.3867 11.1327L11.6631 11.1503L9.42478 13.3886C9.22655 13.5868 9.12692 13.8206 9.12692 14.0888C9.12698 14.3569 9.2266 14.5898 9.42478 14.788C9.62296 14.9862 9.85588 15.0858 10.124 15.0858C10.3922 15.0858 10.626 14.9862 10.8242 14.788L13.0449 12.5673V13.7909C13.0449 14.0708 13.1416 14.3075 13.334 14.4999C13.5263 14.6921 13.7623 14.788 14.042 14.788C14.3216 14.788 14.5547 14.695 14.7412 14.5087C14.9277 14.3221 15.0215 14.0883 15.0215 13.8085V10.1708C15.0215 9.89098 14.9277 9.65815 14.7412 9.47159C14.5546 9.28503 14.3218 9.19132 14.042 9.19132H10.4043Z" fill="#E7E6E2"/>
</svg>
