<svg width="24" height="24" viewBox="0 0 24 24" fill="none" xmlns="http://www.w3.org/2000/svg">
<path fill-rule="evenodd" clip-rule="evenodd" d="M17.3057 4.52637C19.2966 3.16402 21.9998 4.58957 22 7.00196V17C22 18.6569 20.6569 20 19 20H5C3.34315 20 2 18.6569 2 17V12.1611C2 11.0846 2.57699 10.0898 3.51172 9.55567L8.80566 6.53028C9.4773 6.14648 10.272 6.037 11.0225 6.22461L13.3701 6.81153C13.6475 6.88088 13.9417 6.82848 14.1777 6.667L17.3057 4.52637ZM14.8682 14.7647C14.327 14.9449 13.7457 14.9674 13.1924 14.8291L10.3223 14.1113C10.1378 14.0652 9.94403 14.0727 9.76367 14.1328L4 16.0537V17C4 17.5523 4.44772 18 5 18H19C19.5523 18 20 17.5523 20 17V13.0537L14.8682 14.7647ZM20 7.00196C19.9998 6.19802 19.0991 5.72296 18.4355 6.17676L15.3066 8.31739C14.5987 8.80182 13.717 8.96002 12.8848 8.75196L10.5371 8.16504C10.2871 8.10255 10.0226 8.13891 9.79883 8.2666L4.50391 11.293C4.19243 11.471 4 11.8023 4 12.1611V13.9453L9.13086 12.2354C9.67213 12.0549 10.2541 12.0325 10.8076 12.1709L13.6777 12.8887C13.8621 12.9347 14.056 12.9273 14.2363 12.8672L20 10.9453V7.00196Z" fill="#E7E6E2"/>
</svg>
