<svg width="24" height="24" viewBox="0 0 24 24" fill="none" xmlns="http://www.w3.org/2000/svg">
<path d="M21 16.509C21 18.9891 18.9855 20.9993 16.5 20.9993C14.0145 20.9993 12 18.9891 12 16.509C12 14.0289 14.0145 12.0187 16.5 12.0187C18.9855 12.0187 21 14.0289 21 16.509ZM15.5685 14.2653L14.4435 15.3879C14.3175 15.5136 14.2508 15.682 14.2508 15.8527C14.2508 15.9372 14.2665 16.0225 14.301 16.1041C14.403 16.3496 14.643 16.509 14.91 16.509H15.7507V18.7541C15.7507 19.1672 16.086 19.5025 16.5007 19.5025C16.9155 19.5025 17.2507 19.1672 17.2507 18.7541V16.509H18.0915C18.3577 16.509 18.5985 16.3496 18.7005 16.1041C18.804 15.8579 18.747 15.5758 18.558 15.3879L17.433 14.2653C16.9193 13.7527 16.0823 13.7527 15.5685 14.2653ZM14.25 5.99351C14.25 4.34035 11.7315 3 8.625 3C5.5185 3 3 4.34035 3 5.99351C3 7.64668 5.5185 8.98703 8.625 8.98703C11.7315 8.98703 14.25 7.64668 14.25 5.99351ZM8.625 11.9805C5.5185 11.9805 3 10.6402 3 8.98703V7.49027C3 9.14344 5.5185 10.4838 8.625 10.4838C11.7315 10.4838 14.25 9.14344 14.25 7.49027V8.98703C14.25 10.6402 11.7315 11.9805 8.625 11.9805ZM8.625 19.5025C9.5265 19.5025 10.3785 19.3895 11.1337 19.1889C11.3573 19.6327 11.6333 20.0458 11.9557 20.4185C11.0235 20.7837 9.8715 21 8.625 21C5.5185 21 3 19.6597 3 18.0065V16.5097C3 18.1629 5.5185 19.5025 8.625 19.5025ZM8.625 13.5155C9.714 13.5155 10.7303 13.3508 11.5912 13.0657C11.2238 13.5858 10.938 14.1666 10.7513 14.7907C10.095 14.9336 9.37725 15.0122 8.625 15.0122C5.5185 15.0122 3 13.6719 3 12.0187V10.522C3 12.1751 5.5185 13.5155 8.625 13.5155ZM8.625 16.509C9.2835 16.509 9.915 16.4484 10.5023 16.3376C10.5008 16.3945 10.5 16.4514 10.5 16.509C10.5 16.955 10.5495 17.3891 10.6418 17.8074C10.0155 17.9354 9.336 18.0057 8.625 18.0057C5.5185 18.0057 3 16.6654 3 15.0122V13.5155C3 15.1686 5.5185 16.509 8.625 16.509Z" fill="#E7E6E2"/>
</svg>
