<svg width="24" height="24" viewBox="0 0 24 24" fill="none" xmlns="http://www.w3.org/2000/svg">
<path d="M11.9999 14.9999C13.0608 14.9999 14.0782 14.5785 14.8284 13.8284C15.5785 13.0782 15.9999 12.0608 15.9999 10.9999V4.99997C15.9999 3.93911 15.5785 2.9217 14.8284 2.17156C14.0782 1.42142 13.0608 0.999995 11.9999 0.999995C10.9391 0.999995 9.92167 1.42142 9.17153 2.17156C8.42138 2.9217 7.99996 3.93911 7.99996 4.99997V10.9999C7.99996 12.0608 8.42138 13.0782 9.17153 13.8284C9.92167 14.5785 10.9391 14.9999 11.9999 14.9999ZM9.99995 4.99997C9.99995 4.46954 10.2107 3.96084 10.5857 3.58577C10.9608 3.2107 11.4695 2.99998 11.9999 2.99998C12.5304 2.99998 13.0391 3.2107 13.4141 3.58577C13.7892 3.96084 13.9999 4.46954 13.9999 4.99997V10.9999C13.9999 11.5304 13.7892 12.0391 13.4141 12.4142C13.0391 12.7892 12.5304 12.9999 11.9999 12.9999C11.4695 12.9999 10.9608 12.7892 10.5857 12.4142C10.2107 12.0391 9.99995 11.5304 9.99995 10.9999V4.99997ZM19.9999 10.9999C19.9999 10.7347 19.8945 10.4804 19.707 10.2928C19.5195 10.1053 19.2651 9.99995 18.9999 9.99995C18.7347 9.99995 18.4803 10.1053 18.2928 10.2928C18.1053 10.4804 17.9999 10.7347 17.9999 10.9999C17.9999 12.5912 17.3678 14.1174 16.2426 15.2426C15.1173 16.3678 13.5912 16.9999 11.9999 16.9999C10.4086 16.9999 8.88253 16.3678 7.75732 15.2426C6.63211 14.1174 5.99997 12.5912 5.99997 10.9999C5.99997 10.7347 5.89461 10.4804 5.70708 10.2928C5.51954 10.1053 5.26519 9.99995 4.99997 9.99995C4.73476 9.99995 4.48041 10.1053 4.29287 10.2928C4.10534 10.4804 3.99998 10.7347 3.99998 10.9999C4.00175 12.9472 4.7137 14.827 6.00237 16.2869C7.29104 17.7468 9.06793 18.6865 10.9999 18.9299V20.9999H8.99995C8.73474 20.9999 8.48039 21.1052 8.29285 21.2928C8.10532 21.4803 7.99996 21.7347 7.99996 21.9999C7.99996 22.2651 8.10532 22.5195 8.29285 22.707C8.48039 22.8945 8.73474 22.9999 8.99995 22.9999H14.9999C15.2651 22.9999 15.5195 22.8945 15.707 22.707C15.8946 22.5195 15.9999 22.2651 15.9999 21.9999C15.9999 21.7347 15.8946 21.4803 15.707 21.2928C15.5195 21.1052 15.2651 20.9999 14.9999 20.9999H12.9999V18.9299C14.9319 18.6865 16.7088 17.7468 17.9975 16.2869C19.2862 14.827 19.9981 12.9472 19.9999 10.9999Z" fill="#E7E6E2"/>
</svg>
