<svg width="24" height="24" viewBox="0 0 24 24" fill="none" xmlns="http://www.w3.org/2000/svg">
<path d="M9.88 14.1201L9.73 14.0001L9.55 13.9001L9.37 13.8501C9.20935 13.8179 9.04325 13.8257 8.88632 13.8728C8.72938 13.9199 8.58642 14.0048 8.47 14.1201C8.37108 14.2107 8.29559 14.3239 8.25 14.4501C8.1971 14.5698 8.16977 14.6992 8.16977 14.8301C8.16977 14.961 8.1971 15.0904 8.25 15.2101C8.35746 15.4504 8.54971 15.6426 8.79 15.7501C8.91023 15.8013 9.03933 15.8285 9.17 15.8301C9.30381 15.8276 9.43602 15.8005 9.56 15.7501C9.68188 15.7018 9.79128 15.6266 9.88 15.5301C9.97354 15.4388 10.0483 15.3301 10.1 15.2101C10.1478 15.0892 10.1716 14.9601 10.17 14.8301C10.1734 14.6989 10.146 14.5688 10.09 14.4501C10.0442 14.3264 9.97261 14.2139 9.88 14.1201ZM3.51 8.76008C3.64231 8.75953 3.77319 8.73273 3.89507 8.68124C4.01694 8.62974 4.12739 8.55457 4.22 8.46008L8.46 4.22008C8.64626 4.03272 8.7508 3.77927 8.7508 3.51508C8.7508 3.25089 8.64626 2.99744 8.46 2.81008C8.27264 2.62383 8.01919 2.51929 7.755 2.51929C7.49082 2.51929 7.23737 2.62383 7.05 2.81008L2.81 7.05008C2.62375 7.23744 2.51921 7.49089 2.51921 7.75508C2.51921 8.01927 2.62375 8.27272 2.81 8.46008C2.99463 8.64849 3.24623 8.75632 3.51 8.76008ZM21.19 15.5401C21.0026 15.3538 20.7492 15.2493 20.485 15.2493C20.2208 15.2493 19.9674 15.3538 19.78 15.5401L15.54 19.7801C15.3996 19.9194 15.3036 20.0971 15.2642 20.2909C15.2248 20.4848 15.2438 20.6859 15.3187 20.8689C15.3937 21.052 15.5212 21.2087 15.6852 21.3192C15.8491 21.4298 16.0422 21.4893 16.24 21.4901C16.3723 21.4895 16.5032 21.4627 16.6251 21.4112C16.7469 21.3597 16.8574 21.2846 16.95 21.1901L21.19 17.0001C21.2899 16.9065 21.3696 16.7935 21.424 16.6679C21.4785 16.5424 21.5066 16.4069 21.5066 16.2701C21.5066 16.1332 21.4785 15.9978 21.424 15.8722C21.3696 15.7467 21.2899 15.6336 21.19 15.5401ZM21.36 9.88008C21.362 9.08613 21.0491 8.32378 20.49 7.76008L16.24 3.51008C15.6677 2.96707 14.9089 2.66436 14.12 2.66436C13.3311 2.66436 12.5723 2.96707 12 3.51008L3.51 12.0001C2.9482 12.5626 2.63264 13.3251 2.63264 14.1201C2.63264 14.9151 2.9482 15.6776 3.51 16.2401L7.76 20.4901C8.32251 21.0519 9.085 21.3674 9.88 21.3674C10.675 21.3674 11.4375 21.0519 12 20.4901L20.49 12.0001C21.0491 11.4364 21.362 10.674 21.36 9.88008ZM19.07 10.5901L10.59 19.0701C10.497 19.1638 10.3864 19.2382 10.2646 19.289C10.1427 19.3397 10.012 19.3659 9.88 19.3659C9.74799 19.3659 9.61729 19.3397 9.49543 19.289C9.37357 19.2382 9.26297 19.1638 9.17 19.0701L4.93 14.8301C4.83627 14.7371 4.76188 14.6265 4.71111 14.5047C4.66034 14.3828 4.63421 14.2521 4.63421 14.1201C4.63421 13.9881 4.66034 13.8574 4.71111 13.7355C4.76188 13.6136 4.83627 13.503 4.93 13.4101L13.41 4.93008C13.503 4.83635 13.6136 4.76196 13.7354 4.71119C13.8573 4.66042 13.988 4.63428 14.12 4.63428C14.252 4.63428 14.3827 4.66042 14.5046 4.71119C14.6264 4.76196 14.737 4.83635 14.83 4.93008L19.07 9.17008C19.1637 9.26304 19.2381 9.37364 19.2889 9.4955C19.3397 9.61736 19.3658 9.74807 19.3658 9.88008C19.3658 10.0121 19.3397 10.1428 19.2889 10.2647C19.2381 10.3865 19.1637 10.4971 19.07 10.5901Z" fill="#E7E6E2"/>
</svg>
