<svg width="24" height="24" viewBox="0 0 24 24" fill="none" xmlns="http://www.w3.org/2000/svg">
<path d="M3.40795 10.746C2.92025 10.537 2.79787 9.90153 3.17306 9.52634L6.58975 6.10966C6.82308 5.87632 7.09808 5.70966 7.41475 5.60966C7.73141 5.50966 8.05641 5.49299 8.38975 5.55966L9.38317 5.7698C9.52185 5.79914 9.57908 5.96601 9.48866 6.07517C8.68361 7.0471 8.0423 7.9336 7.56475 8.73466C7.15126 9.42824 6.74846 10.2392 6.35632 11.1677C6.19157 11.5577 5.7426 11.7466 5.3534 11.5798L3.40795 10.746ZM8.15672 13.2308C7.76225 12.8337 7.61585 12.2479 7.81704 11.7256C8.15808 10.8403 8.57815 9.99332 9.07725 9.18466C9.73558 8.11799 10.5314 7.11799 11.4647 6.18466C12.9314 4.71799 14.6064 3.62216 16.4897 2.89716C18.1737 2.24892 19.7576 2.00374 21.2417 2.16161C21.5567 2.19512 21.8043 2.44266 21.8379 2.75769C21.9966 4.24175 21.7555 5.82574 21.1147 7.50966C20.3981 9.39299 19.3064 11.068 17.8397 12.5347C16.9231 13.4513 15.9231 14.2472 14.8397 14.9222C14.0198 15.4331 13.1664 15.8604 12.2796 16.2042C11.7546 16.4078 11.165 16.2583 10.7681 15.8589L8.15672 13.2308ZM14.4147 9.58466C14.7981 9.96799 15.2689 10.1597 15.8272 10.1597C16.3856 10.1597 16.8564 9.96799 17.2397 9.58466C17.6231 9.20132 17.8147 8.73049 17.8147 8.17216C17.8147 7.61382 17.6231 7.14299 17.2397 6.75966C16.8564 6.37632 16.3856 6.18466 15.8272 6.18466C15.2689 6.18466 14.7981 6.37632 14.4147 6.75966C14.0314 7.14299 13.8397 7.61382 13.8397 8.17216C13.8397 8.73049 14.0314 9.20132 14.4147 9.58466ZM14.4932 20.8312C14.1194 21.2051 13.4863 21.085 13.2753 20.6002L12.4255 18.6483C12.2558 18.2585 12.4442 17.8068 12.8359 17.6415C13.7641 17.2499 14.5779 16.8476 15.2772 16.4347C16.0846 15.9579 16.9735 15.318 17.9441 14.515C18.0544 14.4236 18.2231 14.4832 18.2502 14.6239L18.4397 15.6097C18.5064 15.943 18.4897 16.2722 18.3897 16.5972C18.2897 16.9222 18.1231 17.2013 17.8897 17.4347L14.4932 20.8312ZM3.98975 15.7847C4.57308 15.2013 5.28141 14.9055 6.11475 14.8972C6.94808 14.8888 7.65641 15.1763 8.23975 15.7597C8.82308 16.343 9.11475 17.0513 9.11475 17.8847C9.11475 18.718 8.82308 19.4263 8.23975 20.0097C7.82308 20.4263 7.12725 20.7847 6.15225 21.0847C5.37024 21.3253 4.34968 21.5444 3.09057 21.7422C2.60082 21.8191 2.18031 21.3986 2.2573 20.9088C2.45501 19.6513 2.67416 18.6349 2.91475 17.8597C3.21475 16.893 3.57308 16.2013 3.98975 15.7847Z" fill="#E7E6E2"/>
</svg>
