<svg width="24" height="24" viewBox="0 0 24 24" fill="none" xmlns="http://www.w3.org/2000/svg">
<path d="M13.1145 3.94249C13.1145 3.63599 13.2295 3.39079 13.4593 3.20689C13.6892 3.02299 13.9497 2.96169 14.2409 3.02299C16.0033 3.42144 17.509 4.25282 18.758 5.51714C20.007 6.78145 20.8154 8.2948 21.1832 10.0572C21.2445 10.3177 21.187 10.5514 21.0108 10.7583C20.8345 10.9652 20.5931 11.0686 20.2866 11.0686H14.9765C14.9152 11.0686 14.8616 11.0533 14.8156 11.0227C14.7696 10.992 14.7313 10.946 14.7007 10.8847C14.5627 10.5629 14.3712 10.2756 14.126 10.0227C13.8808 9.76984 13.6049 9.57444 13.2984 9.43652C13.2371 9.40587 13.1912 9.37139 13.1605 9.33307C13.1299 9.29476 13.1145 9.24495 13.1145 9.18365V3.94249ZM10.0802 20.9303C8.02661 20.4552 6.3332 19.3901 4.99992 17.735C3.66664 16.0799 3 14.1643 3 11.9881C3 9.81198 3.66664 7.90018 4.99992 6.25274C6.3332 4.6053 8.02661 3.53638 10.0802 3.04598C10.3867 2.96935 10.6625 3.03448 10.9077 3.24137C11.1529 3.44826 11.2755 3.71261 11.2755 4.03444V9.22963C11.2755 9.24495 11.2295 9.30625 11.1376 9.41353C10.6165 9.62808 10.2028 9.96906 9.89627 10.4365C9.58977 10.9039 9.43652 11.4211 9.43652 11.9881C9.43652 12.5552 9.58977 13.0647 9.89627 13.5168C10.2028 13.9689 10.6165 14.3022 11.1376 14.5168C11.1682 14.5321 11.2142 14.5934 11.2755 14.7007V19.9418C11.2755 20.2637 11.1529 20.528 10.9077 20.7349C10.6625 20.9418 10.3867 21.0069 10.0802 20.9303ZM14.126 20.9763C13.8655 21.0376 13.6317 20.9801 13.4249 20.8039C13.218 20.6276 13.1145 20.4016 13.1145 20.1257V14.7696C13.1145 14.7083 13.1299 14.6547 13.1605 14.6087C13.1912 14.5627 13.2371 14.5244 13.2984 14.4938C13.6049 14.3559 13.8808 14.1643 14.126 13.9191C14.3712 13.6739 14.5627 13.398 14.7007 13.0915C14.716 13.0609 14.8003 12.9996 14.9535 12.9076H20.2866C20.5625 12.9076 20.7924 13.0226 20.9763 13.2525C21.1602 13.4823 21.2215 13.7429 21.1602 14.034C20.777 15.7964 19.9495 17.3021 18.6775 18.5511C17.4055 19.8001 15.8884 20.6085 14.126 20.9763Z" fill="#E7E6E2"/>
</svg>
