<svg width="24" height="24" viewBox="0 0 24 24" fill="none" xmlns="http://www.w3.org/2000/svg">
<path d="M20.5486 19.0001C20.9479 19.0002 21.2899 19.1467 21.574 19.4403C21.8581 19.7339 22.0002 20.0875 22.0002 20.5001C22.0002 20.9127 21.8581 21.2663 21.574 21.5599C21.2899 21.8534 20.9478 22.0001 20.5486 22.0001H3.45166C3.0524 22.0001 2.71039 21.8534 2.42627 21.5599C2.14215 21.2663 2.00006 20.9127 2 20.5001C2 20.0875 2.14217 19.7339 2.42627 19.4403C2.71042 19.1468 3.05234 19.0001 3.45166 19.0001H20.5486Z" fill="#E7E6E2"/>
<path fill-rule="evenodd" clip-rule="evenodd" d="M11.9998 1.99988C17.5225 1.99988 22.0001 6.4769 22.0002 11.9996C22.0002 13.4104 21.7078 14.7529 21.1807 15.9701C20.8969 16.6252 20.2225 16.9999 19.5085 16.9999H4.4917C3.77778 16.9999 3.10332 16.6252 2.81958 15.9701C2.29243 14.753 2 13.4104 2 11.9996C2.00013 6.47698 6.4771 2.00001 11.9998 1.99988ZM10.4873 6.01135H9.72485C9.31826 6.01148 8.98818 6.34159 8.98804 6.74817C8.98818 7.15475 9.31826 7.48413 9.72485 7.48425H10.4873V7.49963C11.2083 7.49963 11.6721 7.67106 11.9419 7.89587C12.0452 7.98202 12.1335 8.08983 12.2034 8.22253H9.72485C9.31834 8.22266 8.9883 8.55214 8.98804 8.95862C8.98804 9.36533 9.31817 9.69531 9.72485 9.69543H12.1631C12.0964 9.79514 12.0154 9.88218 11.9199 9.95764C11.6537 10.1681 11.2281 10.337 10.6118 10.3964L10.335 10.4147C9.5836 10.4447 9.19638 11.4653 9.91235 11.9344L13.0764 14.0065C13.4229 14.2333 13.8888 14.1362 14.1157 13.7897C14.3423 13.4434 14.2448 12.9788 13.8989 12.7518L12.0942 11.5697C12.3697 11.4553 12.6245 11.313 12.8501 11.1346C13.3233 10.7605 13.6342 10.2683 13.7751 9.69543H14.2512C14.658 9.69538 14.9873 9.36537 14.9873 8.95862C14.987 8.5521 14.6578 8.22259 14.2512 8.22253H13.7839C13.7258 7.95973 13.6355 7.71201 13.5107 7.48425H14.2512C14.6579 7.4842 14.9872 7.15479 14.9873 6.74817C14.9872 6.34155 14.6579 6.01141 14.2512 6.01135H10.8513C10.7318 6.00355 10.6101 5.99963 10.4873 5.99963V6.01135Z" fill="#E7E6E2"/>
</svg>
