<svg width="24" height="24" viewBox="0 0 24 24" fill="none" xmlns="http://www.w3.org/2000/svg">
<path fill-rule="evenodd" clip-rule="evenodd" d="M13.6426 3C14.7263 2.99999 15.6007 2.99979 16.3086 3.05762C17.0373 3.11716 17.6773 3.24327 18.2695 3.54492C19.2103 4.02429 19.9757 4.78966 20.4551 5.73047C20.7567 6.32266 20.8828 6.9627 20.9424 7.69141C21.0002 8.39927 21 9.27367 21 10.3574V13.6426C21 14.7263 21.0002 15.6007 20.9424 16.3086C20.8828 17.0373 20.7567 17.6773 20.4551 18.2695C19.9757 19.2103 19.2103 19.9757 18.2695 20.4551C17.6773 20.7567 17.0373 20.8828 16.3086 20.9424C15.6007 21.0002 14.7263 21 13.6426 21H10.3574C9.27367 21 8.39927 21.0002 7.69141 20.9424C6.9627 20.8828 6.32266 20.7567 5.73047 20.4551C4.78966 19.9757 4.02429 19.2103 3.54492 18.2695C3.24327 17.6773 3.11716 17.0373 3.05762 16.3086C2.99979 15.6007 2.99999 14.7263 3 13.6426V10.3574C2.99999 9.27366 2.99979 8.39928 3.05762 7.69141C3.11716 6.9627 3.24326 6.32266 3.54492 5.73047C4.02429 4.78966 4.78966 4.02429 5.73047 3.54492C6.32266 3.24326 6.9627 3.11716 7.69141 3.05762C8.39928 2.99979 9.27366 2.99999 10.3574 3H13.6426ZM12.9189 15.8936C12.7614 16.2612 12.4 16.5 12 16.5C11.6 16.5 11.2386 16.2612 11.0811 15.8936L9.84082 13H5V13.5996C5 14.736 5.00041 15.5287 5.05078 16.1455C5.10023 16.7507 5.19296 17.0989 5.32715 17.3623C5.61472 17.9265 6.07347 18.3853 6.6377 18.6729C6.90105 18.807 7.24933 18.8998 7.85449 18.9492C8.47129 18.9996 9.26396 19 10.4004 19H13.5996C14.736 19 15.5287 18.9996 16.1455 18.9492C16.7507 18.8998 17.0989 18.807 17.3623 18.6729C17.9265 18.3853 18.3853 17.9265 18.6729 17.3623C18.807 17.0989 18.8998 16.7507 18.9492 16.1455C18.9996 15.5287 19 14.736 19 13.5996V13H16.5C16.1 13 15.7386 12.7612 15.5811 12.3936L15 11.0391L12.9189 15.8936ZM10.4004 5C9.26396 5 8.47129 5.00041 7.85449 5.05078C7.24933 5.10023 6.90105 5.19296 6.6377 5.32715C6.07347 5.61472 5.61472 6.07347 5.32715 6.6377C5.19296 6.90105 5.10023 7.24933 5.05078 7.85449C5.00041 8.47129 5 9.26396 5 10.4004V11H10.5C10.9 11 11.2614 11.2388 11.4189 11.6064L12 12.9609L14.0811 8.10645C14.2386 7.73876 14.6 7.5 15 7.5C15.4 7.5 15.7614 7.73876 15.9189 8.10645L17.1592 11H19V10.4004C19 9.26396 18.9996 8.47129 18.9492 7.85449C18.8998 7.24933 18.807 6.90105 18.6729 6.6377C18.3853 6.07347 17.9265 5.61472 17.3623 5.32715C17.0989 5.19296 16.7507 5.10023 16.1455 5.05078C15.5287 5.00041 14.736 5 13.5996 5H10.4004Z" fill="#E7E6E2"/>
</svg>
