<svg width="24" height="24" viewBox="0 0 24 24" fill="none" xmlns="http://www.w3.org/2000/svg">
<path fill-rule="evenodd" clip-rule="evenodd" d="M6 3.9C6 3.40294 6.38376 3 6.85714 3H17.1429C17.6162 3 18 3.40294 18 3.9C18 4.39705 17.6162 4.8 17.1429 4.8H15.0996C15.6283 5.4461 16.0074 6.23108 16.1805 7.0957H17.1429C17.6162 7.0957 18 7.49864 18 7.9957C18 8.49275 17.6162 8.89569 17.1429 8.89569H16.2366C15.8978 11.4003 13.8473 13.3263 11.3684 13.3263H9.53821L14.4136 19.527C14.715 19.9103 14.6633 20.4776 14.2983 20.794C13.9332 21.1105 13.393 21.0563 13.0916 20.673L7.05808 12.9993C6.8468 12.7306 6.80224 12.3579 6.94369 12.0427C7.08515 11.7275 7.3872 11.5263 7.71907 11.5263H11.3684C12.8978 11.5263 14.1768 10.4009 14.4952 8.89569H6.85714C6.38376 8.89569 6 8.49275 6 7.9957C6 7.49864 6.38376 7.0957 6.85714 7.0957H14.4067C13.9818 5.76154 12.782 4.8 11.3684 4.8H6.85714C6.38376 4.8 6 4.39705 6 3.9Z" fill="#E7E6E2"/>
</svg>
