<svg width="24" height="24" viewBox="0 0 24 24" fill="none" xmlns="http://www.w3.org/2000/svg">
<path d="M4.71006 6.28994C4.52176 6.10164 4.26636 5.99585 4.00006 5.99585C3.73376 5.99585 3.47836 6.10164 3.29006 6.28994C3.10176 6.47825 2.99597 6.73364 2.99597 6.99994C2.99597 7.26624 3.10176 7.52164 3.29006 7.70994L7.59006 11.9999L3.29006 16.2899C3.19633 16.3829 3.12194 16.4935 3.07117 16.6154C3.0204 16.7372 2.99426 16.8679 2.99426 16.9999C2.99426 17.132 3.0204 17.2627 3.07117 17.3845C3.12194 17.5064 3.19633 17.617 3.29006 17.7099C3.38302 17.8037 3.49363 17.8781 3.61548 17.9288C3.73734 17.9796 3.86805 18.0057 4.00006 18.0057C4.13207 18.0057 4.26278 17.9796 4.38464 17.9288C4.5065 17.8781 4.6171 17.8037 4.71006 17.7099L9.71006 12.7099C9.80379 12.617 9.87818 12.5064 9.92895 12.3845C9.97972 12.2627 10.0059 12.132 10.0059 11.9999C10.0059 11.8679 9.97972 11.7372 9.92895 11.6154C9.87818 11.4935 9.80379 11.3829 9.71006 11.2899L4.71006 6.28994ZM16.4101 11.9999L20.7101 7.70994C20.8984 7.52164 21.0042 7.26624 21.0042 6.99994C21.0042 6.73364 20.8984 6.47825 20.7101 6.28994C20.5218 6.10164 20.2664 5.99585 20.0001 5.99585C19.7338 5.99585 19.4784 6.10164 19.2901 6.28994L14.2901 11.2899C14.1963 11.3829 14.1219 11.4935 14.0712 11.6154C14.0204 11.7372 13.9943 11.8679 13.9943 11.9999C13.9943 12.132 14.0204 12.2627 14.0712 12.3845C14.1219 12.5064 14.1963 12.617 14.2901 12.7099L19.2901 17.7099C19.383 17.8037 19.4936 17.8781 19.6155 17.9288C19.7373 17.9796 19.868 18.0057 20.0001 18.0057C20.1321 18.0057 20.2628 17.9796 20.3846 17.9288C20.5065 17.8781 20.6171 17.8037 20.7101 17.7099C20.8038 17.617 20.8782 17.5064 20.929 17.3845C20.9797 17.2627 21.0059 17.132 21.0059 16.9999C21.0059 16.8679 20.9797 16.7372 20.929 16.6154C20.8782 16.4935 20.8038 16.3829 20.7101 16.2899L16.4101 11.9999Z" fill="#E7E6E2"/>
</svg>
