<svg width="24" height="24" viewBox="0 0 24 24" fill="none" xmlns="http://www.w3.org/2000/svg">
<path d="M14.7201 8.79002L10.4301 13.09L8.78013 11.44C8.69048 11.3353 8.58016 11.2503 8.4561 11.1903C8.33203 11.1303 8.1969 11.0965 8.05918 11.0912C7.92146 11.0859 7.78413 11.1091 7.6558 11.1594C7.52748 11.2097 7.41093 11.2859 7.31348 11.3834C7.21602 11.4808 7.13976 11.5974 7.08949 11.7257C7.03921 11.854 7.01601 11.9914 7.02133 12.1291C7.02665 12.2668 7.06038 12.4019 7.1204 12.526C7.18042 12.6501 7.26544 12.7604 7.37013 12.85L9.72013 15.21C9.81357 15.3027 9.92438 15.376 10.0462 15.4258C10.1681 15.4756 10.2985 15.5008 10.4301 15.5C10.6925 15.4989 10.9439 15.3948 11.1301 15.21L16.1301 10.21C16.2239 10.1171 16.2982 10.0065 16.349 9.8846C16.3998 9.76274 16.4259 9.63203 16.4259 9.50002C16.4259 9.36801 16.3998 9.2373 16.349 9.11544C16.2982 8.99358 16.2239 8.88298 16.1301 8.79002C15.9428 8.60377 15.6893 8.49923 15.4251 8.49923C15.1609 8.49923 14.9075 8.60377 14.7201 8.79002Z" fill="#E7E6E2"/>
<path d="M10.2321 2.0519C11.2856 1.28348 12.7147 1.28348 13.7681 2.0519L14.6877 2.7227C14.8593 2.84792 15.0664 2.9152 15.2789 2.9148L16.4172 2.91263C17.721 2.91015 18.8772 3.75017 19.2778 4.99101L19.6275 6.07422C19.6928 6.27642 19.8207 6.45258 19.9929 6.57715L20.915 7.24444C21.9713 8.00884 22.413 9.36802 22.0077 10.6073L21.6539 11.6892C21.5878 11.8911 21.5878 12.1089 21.6539 12.3108L22.0077 13.3927C22.413 14.632 21.9713 15.9912 20.915 16.7556L19.9929 17.4229C19.8207 17.5475 19.6928 17.7236 19.6275 17.9258L19.2778 19.009C18.8772 20.2499 17.721 21.0899 16.4172 21.0874L15.2789 21.0852C15.0664 21.0848 14.8593 21.1521 14.6877 21.2773L13.7681 21.9481C12.7147 22.7166 11.2856 22.7166 10.2321 21.9481L9.31256 21.2773C9.1409 21.1521 8.93381 21.0848 8.72133 21.0852L7.58308 21.0874C6.27919 21.0899 5.123 20.2499 4.72244 19.009L4.37276 17.9258C4.30749 17.7236 4.1795 17.5475 4.00736 17.4229L3.08523 16.7556C2.0289 15.9912 1.58727 14.632 1.99256 13.3927L2.34636 12.3108C2.4124 12.1089 2.4124 11.8911 2.34636 11.6892L1.99256 10.6073C1.58727 9.36802 2.0289 8.00884 3.08523 7.24444L4.00736 6.57715C4.1795 6.45258 4.30749 6.27642 4.37276 6.07422L4.72244 4.99101C5.123 3.75017 6.27919 2.91015 7.58308 2.91263L8.72133 2.9148C8.93381 2.9152 9.1409 2.84792 9.31256 2.7227L10.2321 2.0519ZM12.5894 3.66769C12.2383 3.41155 11.7619 3.41155 11.4108 3.66769L10.4912 4.33849C9.97622 4.71415 9.35496 4.91601 8.71752 4.91479L7.57927 4.91263C7.14464 4.9118 6.75925 5.19181 6.62573 5.60542L6.27605 6.68863C6.08022 7.29525 5.69626 7.82372 5.17985 8.19741L4.25771 8.86471C3.90561 9.11951 3.7584 9.57257 3.89349 9.98567L4.24729 11.0675C4.44542 11.6734 4.44542 12.3266 4.24729 12.9325L3.89349 14.0144C3.7584 14.4275 3.90561 14.8805 4.25771 15.1353L5.17985 15.8026C5.69626 16.1763 6.08022 16.7048 6.27605 17.3114L6.62573 18.3946C6.75925 18.8082 7.14464 19.0882 7.57927 19.0874L8.71752 19.0852C9.35496 19.084 9.97622 19.2859 10.4912 19.6616L11.4108 20.3324C11.7619 20.5885 12.2383 20.5885 12.5894 20.3324L13.509 19.6616C14.024 19.2859 14.6453 19.084 15.2827 19.0852L16.421 19.0874C16.8556 19.0882 17.241 18.8082 17.3745 18.3946L17.7242 17.3114C17.92 16.7048 18.304 16.1763 18.8204 15.8026L19.7425 15.1353C20.0946 14.8805 20.2418 14.4275 20.1068 14.0144L19.753 12.9325C19.5548 12.3266 19.5548 11.6734 19.753 11.0675L20.1068 9.98567C20.2418 9.57257 20.0946 9.11951 19.7425 8.86471L18.8204 8.19741C18.304 7.82372 17.92 7.29525 17.7242 6.68863L17.3745 5.60542C17.241 5.19181 16.8556 4.9118 16.421 4.91263L15.2827 4.91479C14.6453 4.91601 14.024 4.71415 13.509 4.33849L12.5894 3.66769Z" fill="#E7E6E2"/>
</svg>
