<svg width="24" height="24" viewBox="0 0 24 24" fill="none" xmlns="http://www.w3.org/2000/svg">
<path d="M14 4C14 5.10457 13.1046 6 12 6C10.8954 6 10 5.10457 10 4C10 2.89543 10.8954 2 12 2C13.1046 2 14 2.89543 14 4Z" fill="#E7E6E2"/>
<path d="M14 20C14 21.1046 13.1046 22 12 22C10.8954 22 10 21.1046 10 20C10 18.8954 10.8954 18 12 18C13.1046 18 14 18.8954 14 20Z" fill="#E7E6E2"/>
<path d="M6 12.3064C6 13.411 5.10457 14.3064 4 14.3064C2.89543 14.3064 2 13.411 2 12.3064C2 11.2019 2.89543 10.3064 4 10.3064C5.10457 10.3064 6 11.2019 6 12.3064Z" fill="#E7E6E2"/>
<path d="M22 12.3064C22 13.411 21.1046 14.3064 20 14.3064C18.8954 14.3064 18 13.411 18 12.3064C18 11.2019 18.8954 10.3064 20 10.3064C21.1046 10.3064 22 11.2019 22 12.3064Z" fill="#E7E6E2"/>
<path d="M8 6C8 7.10457 7.10457 8 6 8C4.89543 8 4 7.10457 4 6C4 4.89543 4.89543 4 6 4C7.10457 4 8 4.89543 8 6Z" fill="#E7E6E2"/>
<path d="M8 18C8 19.1046 7.10457 20 6 20C4.89543 20 4 19.1046 4 18C4 16.8954 4.89543 16 6 16C7.10457 16 8 16.8954 8 18Z" fill="#E7E6E2"/>
<path d="M20 18C20 19.1046 19.1046 20 18 20C16.8954 20 16 19.1046 16 18C16 16.8954 16.8954 16 18 16C19.1046 16 20 16.8954 20 18Z" fill="#E7E6E2"/>
</svg>
