<svg width="24" height="24" viewBox="0 0 24 24" fill="none" xmlns="http://www.w3.org/2000/svg">
<path d="M17 2H6.99998C5.6739 2 4.40213 2.52678 3.46445 3.46447C2.52677 4.40215 1.99998 5.67392 1.99998 7V17C1.99998 18.3261 2.52677 19.5979 3.46445 20.5355C4.40213 21.4732 5.6739 22 6.99998 22H17C18.3261 22 19.5978 21.4732 20.5355 20.5355C21.4732 19.5979 22 18.3261 22 17V7C22 5.67392 21.4732 4.40215 20.5355 3.46447C19.5978 2.52678 18.3261 2 17 2ZM20 17C20 17.7956 19.6839 18.5587 19.1213 19.1213C18.5587 19.6839 17.7956 20 17 20H6.99998C6.20434 20 5.44127 19.6839 4.87866 19.1213C4.31606 18.5587 3.99998 17.7956 3.99998 17V7C3.99998 6.20435 4.31606 5.44129 4.87866 4.87868C5.44127 4.31607 6.20434 4 6.99998 4H17C17.7956 4 18.5587 4.31607 19.1213 4.87868C19.6839 5.44129 20 6.20435 20 7V17Z" fill="#E7E6E2"/>
</svg>
