<svg width="24" height="24" viewBox="0 0 24 24" fill="none" xmlns="http://www.w3.org/2000/svg">
<path d="M19.8799 15.4998H15.38C15.1147 15.4998 14.8604 15.6052 14.6729 15.7927C14.4853 15.9803 14.38 16.2346 14.38 16.4998C14.38 16.765 14.4853 17.0194 14.6729 17.2069C14.8604 17.3945 15.1147 17.4998 15.38 17.4998H17.78C17.0358 18.2859 16.1398 18.9127 15.1463 19.3425C14.1528 19.7722 13.0824 19.9958 12 19.9998C10.9285 19.9988 9.86793 19.7846 8.88 19.3698L7.39 20.8598C8.8104 21.6108 10.3932 22.0023 12 21.9998C14.5636 21.9925 17.0265 21.0009 18.8799 19.2298V20.9998C18.8799 21.265 18.9853 21.5194 19.1728 21.7069C19.3604 21.8944 19.6147 21.9998 19.8799 21.9998C20.1452 21.9998 20.3995 21.8944 20.587 21.7069C20.7746 21.5194 20.8799 21.265 20.8799 20.9998V16.4998C20.8799 16.2346 20.7746 15.9803 20.587 15.7927C20.3995 15.6052 20.1452 15.4998 19.8799 15.4998ZM21.7399 3.66988C21.8332 3.57665 21.9071 3.46596 21.9576 3.34413C22.008 3.22231 22.034 3.09175 22.034 2.95989C22.034 2.82803 22.008 2.69746 21.9576 2.57564C21.9071 2.45382 21.8332 2.34313 21.7399 2.24989C21.6467 2.15665 21.536 2.08269 21.4142 2.03223C21.2924 1.98177 21.1618 1.9558 21.0299 1.9558C20.8981 1.9558 20.7675 1.98177 20.6457 2.03223C20.5239 2.08269 20.4132 2.15665 20.3199 2.24989L18.3199 4.24988C16.5398 2.78648 14.3044 1.99067 12 1.99989C9.43638 2.0072 6.9735 2.9988 5.12002 4.76988V2.99989C5.12002 2.73467 5.01466 2.48032 4.82712 2.29278C4.63959 2.10525 4.38524 1.99989 4.12002 1.99989C3.85481 1.99989 3.60045 2.10525 3.41292 2.29278C3.22538 2.48032 3.12003 2.73467 3.12003 2.99989V7.49986C3.12003 7.76508 3.22538 8.01943 3.41292 8.20697C3.60045 8.3945 3.85481 8.49986 4.12002 8.49986H8.62C8.88521 8.49986 9.13957 8.3945 9.3271 8.20697C9.51464 8.01943 9.61999 7.76508 9.61999 7.49986C9.61999 7.23465 9.51464 6.9803 9.3271 6.79276C9.13957 6.60523 8.88521 6.49987 8.62 6.49987H6.22001C7.57626 5.05703 9.42325 4.17382 11.3978 4.02393C13.3723 3.87404 15.3314 4.46831 16.89 5.68987L5.69001 16.8898C4.59584 15.4946 4.00083 13.7729 4.00002 11.9998C4.00002 11.7346 3.89466 11.4803 3.70713 11.2927C3.51959 11.1052 3.26524 10.9998 3.00003 10.9998C2.73481 10.9998 2.48046 11.1052 2.29292 11.2927C2.10539 11.4803 2.00003 11.7346 2.00003 11.9998C1.99644 14.3068 2.79942 16.5424 4.27002 18.3198L2.27003 20.3198C2.1763 20.4128 2.10191 20.5234 2.05114 20.6452C2.00037 20.7671 1.97423 20.8978 1.97423 21.0298C1.97423 21.1618 2.00037 21.2925 2.05114 21.4144C2.10191 21.5362 2.1763 21.6468 2.27003 21.7398C2.36299 21.8335 2.47359 21.9079 2.59545 21.9587C2.71731 22.0094 2.84802 22.0356 2.98003 22.0356C3.11204 22.0356 3.24274 22.0094 3.3646 21.9587C3.48646 21.9079 3.59706 21.8335 3.69002 21.7398L21.7399 3.66988ZM19.3699 8.87986C19.7847 9.86779 19.9989 10.9284 19.9999 11.9998C19.9999 12.2651 20.1053 12.5194 20.2928 12.7069C20.4804 12.8945 20.7347 12.9998 20.9999 12.9998C21.2652 12.9998 21.5195 12.8945 21.707 12.7069C21.8946 12.5194 21.9999 12.2651 21.9999 11.9998C22.0024 10.3931 21.611 8.81026 20.8599 7.38986L19.3699 8.87986Z" fill="#E7E6E2"/>
</svg>
