<svg width="24" height="24" viewBox="0 0 24 24" fill="none" xmlns="http://www.w3.org/2000/svg">
<path d="M12 4C10.2446 4.00004 8.52024 4.46214 7.00008 5.33984C5.47992 6.21754 4.21758 7.47993 3.33993 9.00011C2.46227 10.5203 2.00023 12.2447 2.00024 14.0001C2.00026 15.7554 2.46232 17.4798 3.33999 19C3.4726 19.2307 3.69144 19.3993 3.94836 19.4687C4.20529 19.5381 4.47925 19.5026 4.70999 19.37C4.94073 19.2374 5.10934 19.0186 5.17873 18.7616C5.24811 18.5047 5.2126 18.2307 5.07999 18C4.37143 16.7861 3.99868 15.4055 3.99999 14C4.00047 12.7732 4.28309 11.5629 4.82601 10.4628C5.36894 9.36262 6.1576 8.40208 7.13104 7.65541C8.10447 6.90875 9.23659 6.39597 10.4399 6.15672C11.6431 5.91747 12.8853 5.95816 14.0703 6.27565C15.2553 6.59313 16.3515 7.17891 17.2739 7.98768C18.1964 8.79646 18.9205 9.80656 19.3903 10.9399C19.86 12.0732 20.0629 13.2994 19.983 14.5236C19.9032 15.7478 19.5429 16.9373 18.93 18C18.8639 18.1141 18.821 18.2402 18.8038 18.371C18.7866 18.5018 18.7955 18.6347 18.8299 18.762C18.8643 18.8893 18.9235 19.0086 19.0042 19.113C19.0849 19.2173 19.1854 19.3047 19.3 19.37C19.5296 19.5004 19.8015 19.5346 20.0563 19.4653C20.311 19.396 20.5281 19.2287 20.66 19C21.5377 17.4798 21.9997 15.7554 21.9997 14.0001C21.9997 12.2447 21.5377 10.5203 20.6601 9.00011C19.7824 7.47993 18.5201 6.21754 16.9999 5.33984C15.4797 4.46214 13.7553 4.00004 12 4ZM14.84 9.76L13.29 11.3C12.8888 11.1022 12.4473 10.9995 12 11C11.4066 11 10.8266 11.1759 10.3333 11.5056C9.83993 11.8352 9.45541 12.3038 9.22835 12.8519C9.00129 13.4001 8.94188 14.0033 9.05763 14.5853C9.17339 15.1672 9.45911 15.7018 9.87867 16.1213C10.2982 16.5409 10.8328 16.8266 11.4147 16.9424C11.9967 17.0581 12.5999 16.9987 13.148 16.7716C13.6962 16.5446 14.1648 16.1601 14.4944 15.6667C14.824 15.1734 15 14.5933 15 14C14.9993 13.556 14.8967 13.1181 14.7 12.72L16.25 11.18C16.3437 11.087 16.4181 10.9764 16.4689 10.8546C16.5197 10.7327 16.5458 10.602 16.5458 10.47C16.5458 10.338 16.5197 10.2073 16.4689 10.0854C16.4181 9.96356 16.3437 9.85296 16.25 9.76C16.0626 9.57375 15.8092 9.46921 15.545 9.46921C15.2808 9.46921 15.0274 9.57375 14.84 9.76ZM12 15C11.7348 15 11.4804 14.8946 11.2929 14.7071C11.1053 14.5196 11 14.2652 11 14C11 13.7348 11.1053 13.4804 11.2929 13.2929C11.4804 13.1054 11.7348 13 12 13C12.2609 12.9984 12.5121 13.0989 12.7 13.28C12.7957 13.3738 12.8715 13.4859 12.9231 13.6095C12.9746 13.7332 13.0008 13.866 13 14C13 14.2652 12.8946 14.5196 12.7071 14.7071C12.5196 14.8946 12.2652 15 12 15Z" fill="#E7E6E2"/>
</svg>
