<svg width="24" height="24" viewBox="0 0 24 24" fill="none" xmlns="http://www.w3.org/2000/svg">
<path d="M21 14C20.7348 14 20.4804 14.1054 20.2929 14.2929C20.1054 14.4804 20 14.7348 20 15V19C20 19.2652 19.8946 19.5196 19.7071 19.7071C19.5196 19.8946 19.2652 20 19 20H5C4.73478 20 4.48043 19.8946 4.29289 19.7071C4.10536 19.5196 4 19.2652 4 19V15C4 14.7348 3.89464 14.4804 3.70711 14.2929C3.51957 14.1054 3.26522 14 3 14C2.73478 14 2.48043 14.1054 2.29289 14.2929C2.10536 14.4804 2 14.7348 2 15V19C2 19.7956 2.31607 20.5587 2.87868 21.1213C3.44129 21.6839 4.20435 22 5 22H19C19.7956 22 20.5587 21.6839 21.1213 21.1213C21.6839 20.5587 22 19.7956 22 19V15C22 14.7348 21.8946 14.4804 21.7071 14.2929C21.5196 14.1054 21.2652 14 21 14ZM11.29 2.29023C11.3851 2.19919 11.4972 2.12783 11.62 2.08023C11.7397 2.02733 11.8691 2 12 2C12.1309 2 12.2603 2.02733 12.38 2.08023C12.5028 2.12783 12.6149 2.19919 12.71 2.29023L16.71 6.29023C16.8983 6.47854 17.0041 6.73393 17.0041 7.00023C17.0041 7.26653 16.8983 7.52193 16.71 7.71023C16.5217 7.89854 16.2663 8.00432 16 8.00432C15.7337 8.00432 15.4783 7.89854 15.29 7.71023L13 5.41023V15.0002C13 15.2654 12.8946 15.5198 12.7071 15.7073C12.5196 15.8949 12.2652 16.0002 12 16.0002C11.7348 16.0002 11.4804 15.8949 11.2929 15.7073C11.1054 15.5198 11 15.2654 11 15.0002V5.41023L8.71 7.71023C8.61676 7.80347 8.50607 7.87743 8.38425 7.92789C8.26243 7.97835 8.13186 8.00432 8 8.00432C7.86814 8.00432 7.73757 7.97835 7.61575 7.92789C7.49393 7.87743 7.38324 7.80347 7.29 7.71023C7.19676 7.61699 7.1228 7.5063 7.07234 7.38448C7.02188 7.26266 6.99591 7.13209 6.99591 7.00023C6.99591 6.86837 7.02188 6.73781 7.07234 6.61598C7.1228 6.49416 7.19676 6.38347 7.29 6.29023L11.29 2.29023Z" fill="#E7E6E2"/>
</svg>
