<svg width="24" height="24" viewBox="0 0 24 24" fill="none" xmlns="http://www.w3.org/2000/svg">
<path d="M5.01422 8.48291C5.01422 5.72149 7.2528 3.48291 10.0142 3.48291C12.7756 3.48291 15.0142 5.72149 15.0142 8.48291C15.0142 9.96919 14.3657 11.304 13.3363 12.2198C14.1988 12.6156 14.9847 13.162 15.6569 13.8341C16.3997 14.577 16.989 15.4589 17.391 16.4295C17.7931 17.4001 18 18.4404 18 19.491C18 20.0433 17.5523 20.491 17 20.491H3C2.44772 20.491 2 20.0433 2 19.491C2 18.4404 2.20693 17.4001 2.60896 16.4295C3.011 15.4589 3.60028 14.577 4.34315 13.8341C5.02016 13.1571 5.81267 12.6076 6.68255 12.2112C5.65867 11.2957 5.01422 9.96454 5.01422 8.48291ZM10.0142 5.48291C8.35737 5.48291 7.01422 6.82606 7.01422 8.48291C7.01422 10.1398 8.35737 11.4829 10.0142 11.4829C11.6711 11.4829 13.0142 10.1398 13.0142 8.48291C13.0142 6.82606 11.6711 5.48291 10.0142 5.48291ZM10 13.491C9.21207 13.491 8.43185 13.6462 7.7039 13.9477C6.97595 14.2492 6.31451 14.6912 5.75736 15.2483C5.20021 15.8055 4.75825 16.4669 4.45672 17.1949C4.28373 17.6125 4.15891 18.0473 4.08392 18.491H15.9161C15.8411 18.0473 15.7163 17.6125 15.5433 17.1949C15.2417 16.4669 14.7998 15.8055 14.2426 15.2483C13.6855 14.6912 13.0241 14.2492 12.2961 13.9477C11.5681 13.6462 10.7879 13.491 10 13.491Z" fill="#E7E6E2"/>
<path d="M21.7091 9.13003C21.6161 9.0363 21.5055 8.9619 21.3837 8.91114C21.2618 8.86037 21.1311 8.83423 20.9991 8.83423C20.8671 8.83423 20.7364 8.86037 20.6145 8.91114C20.4927 8.9619 20.3821 9.0363 20.2891 9.13003L18.2891 11.13L17.6691 10.5C17.5761 10.4063 17.4655 10.3319 17.3437 10.2811C17.2218 10.2304 17.0911 10.2042 16.9591 10.2042C16.8271 10.2042 16.6964 10.2304 16.5745 10.2811C16.4527 10.3319 16.3421 10.4063 16.2491 10.5C16.0629 10.6874 15.9583 10.9408 15.9583 11.205C15.9583 11.4692 16.0629 11.7227 16.2491 11.91L17.5891 13.25C17.7765 13.4363 18.0299 13.5408 18.2941 13.5408C18.5583 13.5408 18.8117 13.4363 18.9991 13.25L21.6691 10.58C21.7701 10.4893 21.8515 10.3791 21.9085 10.2559C21.9655 10.1327 21.9968 9.99927 22.0005 9.86362C22.0043 9.72796 21.9804 9.59297 21.9303 9.46685C21.8802 9.34073 21.8049 9.22613 21.7091 9.13003Z" fill="#E7E6E2"/>
</svg>
