<svg width="24" height="24" viewBox="0 0 24 24" fill="none" xmlns="http://www.w3.org/2000/svg">
<path d="M5.01422 8.51025C5.01422 5.74883 7.2528 3.51025 10.0142 3.51025C12.7756 3.51025 15.0142 5.74883 15.0142 8.51025C15.0142 9.99653 14.3657 11.3313 13.3363 12.2472C14.1988 12.6429 14.9847 13.1893 15.6569 13.8615C16.3997 14.6043 16.989 15.4862 17.391 16.4568C17.7931 17.4274 18 18.4677 18 19.5183C18 20.0706 17.5523 20.5183 17 20.5183H3C2.44772 20.5183 2 20.0706 2 19.5183C2 18.4677 2.20693 17.4274 2.60896 16.4568C3.011 15.4862 3.60028 14.6043 4.34315 13.8615C5.02016 13.1844 5.81267 12.635 6.68255 12.2386C5.65867 11.323 5.01422 9.99189 5.01422 8.51025ZM10.0142 5.51025C8.35737 5.51025 7.01422 6.8534 7.01422 8.51025C7.01422 10.1671 8.35737 11.5103 10.0142 11.5103C11.6711 11.5103 13.0142 10.1671 13.0142 8.51025C13.0142 6.8534 11.6711 5.51025 10.0142 5.51025ZM10 13.5183C9.21207 13.5183 8.43185 13.6735 7.7039 13.975C6.97595 14.2766 6.31451 14.7185 5.75736 15.2757C5.20021 15.8328 4.75825 16.4943 4.45672 17.2222C4.28373 17.6398 4.15891 18.0747 4.08392 18.5183H15.9161C15.8411 18.0747 15.7163 17.6398 15.5433 17.2222C15.2417 16.4943 14.7998 15.8328 14.2426 15.2757C13.6855 14.7185 13.0241 14.2766 12.2961 13.975C11.5681 13.6735 10.7879 13.5183 10 13.5183Z" fill="#E7E6E2"/>
<path d="M21.7071 11.2099L20.9071 11.9999L21.7071 12.7899C21.8008 12.8829 21.8752 12.9935 21.926 13.1154C21.9768 13.2372 22.0029 13.3679 22.0029 13.4999C22.0029 13.632 21.9768 13.7627 21.926 13.8845C21.8752 14.0064 21.8008 14.117 21.7071 14.2099C21.6141 14.3037 21.5035 14.3781 21.3817 14.4288C21.2598 14.4796 21.1291 14.5057 20.9971 14.5057C20.8651 14.5057 20.7344 14.4796 20.6125 14.4288C20.4907 14.3781 20.3801 14.3037 20.2871 14.2099L19.4971 13.4099L18.7071 14.2099C18.6141 14.3037 18.5035 14.3781 18.3817 14.4288C18.2598 14.4796 18.1291 14.5057 17.9971 14.5057C17.8651 14.5057 17.7344 14.4796 17.6125 14.4288C17.4907 14.3781 17.3801 14.3037 17.2871 14.2099C17.1934 14.117 17.119 14.0064 17.0682 13.8845C17.0174 13.7627 16.9913 13.632 16.9913 13.4999C16.9913 13.3679 17.0174 13.2372 17.0682 13.1154C17.119 12.9935 17.1934 12.8829 17.2871 12.7899L18.0871 11.9999L17.2871 11.2099C17.0988 11.0216 16.993 10.7662 16.993 10.4999C16.993 10.3681 17.019 10.2375 17.0694 10.1157C17.1199 9.99387 17.1939 9.88318 17.2871 9.78994C17.4754 9.60164 17.7308 9.49585 17.9971 9.49585C18.129 9.49585 18.2595 9.52182 18.3813 9.57228C18.5032 9.62274 18.6139 9.6967 18.7071 9.78994L19.4971 10.5899L20.2871 9.78994C20.3803 9.6967 20.491 9.62274 20.6129 9.57228C20.7347 9.52182 20.8652 9.49585 20.9971 9.49585C21.129 9.49585 21.2595 9.52182 21.3813 9.57228C21.5032 9.62274 21.6139 9.6967 21.7071 9.78994C21.8003 9.88318 21.8743 9.99387 21.9248 10.1157C21.9752 10.2375 22.0012 10.3681 22.0012 10.4999C22.0012 10.6318 21.9752 10.7624 21.9248 10.8842C21.8743 11.006 21.8003 11.1167 21.7071 11.2099Z" fill="#E7E6E2"/>
</svg>
