<svg width="24" height="24" viewBox="0 0 24 24" fill="none" xmlns="http://www.w3.org/2000/svg">
<path d="M8.2948 12.7204C6.89987 11.6218 6.00421 9.91756 6.00421 8.00415C6.00421 4.69044 8.6905 2.00415 12.0042 2.00415C15.3179 2.00415 18.0042 4.69044 18.0042 8.00415C18.0042 9.90826 17.1172 11.6052 15.7339 12.7044C15.7765 12.7213 15.8189 12.7385 15.8613 12.7561C17.0745 13.2586 18.1769 13.9952 19.1055 14.9238C20.0341 15.8524 20.7707 16.9548 21.2732 18.168C21.7758 19.3813 22.0344 20.6817 22.0344 21.9949C22.0344 22.5472 21.5867 22.9949 21.0344 22.9949H3.03442C2.48214 22.9949 2.03442 22.5472 2.03442 21.9949C2.03442 20.6817 2.29308 19.3813 2.79563 18.168C3.29818 16.9548 4.03477 15.8524 4.96336 14.9238C5.89194 13.9952 6.99433 13.2586 8.20759 12.7561C8.23661 12.7441 8.26568 12.7322 8.2948 12.7204ZM8.00421 8.00415C8.00421 10.1386 9.67607 11.8826 11.7817 11.9981C11.8659 11.9959 11.9501 11.9949 12.0344 11.9949C12.1044 11.9949 12.1743 11.9956 12.2442 11.9971C14.3416 11.873 16.0042 10.1327 16.0042 8.00415C16.0042 5.79501 14.2134 4.00415 12.0042 4.00415C9.79507 4.00415 8.00421 5.79501 8.00421 8.00415ZM11.7642 13.9994C10.8058 14.0318 9.86026 14.2363 8.97296 14.6038C8.00235 15.0059 7.12044 15.5951 6.37757 16.338C5.6347 17.0809 5.04542 17.9628 4.64339 18.9334C4.36956 19.5945 4.18624 20.2879 4.09717 20.9949H19.9717C19.8826 20.2879 19.6993 19.5945 19.4255 18.9334C19.0234 17.9628 18.4341 17.0809 17.6913 16.338C16.9484 15.5951 16.0665 15.0059 15.0959 14.6038C14.198 14.2319 13.2405 14.027 12.2703 13.9984C12.1821 14.0022 12.0934 14.0042 12.0042 14.0042C11.9238 14.0042 11.8438 14.0026 11.7642 13.9994Z" fill="#E7E6E2"/>
</svg>
