<svg width="24" height="24" viewBox="0 0 24 24" fill="none" xmlns="http://www.w3.org/2000/svg">
<path d="M5.01422 8.54028C5.01422 5.77886 7.2528 3.54028 10.0142 3.54028C12.7756 3.54028 15.0142 5.77886 15.0142 8.54028C15.0142 10.0266 14.3657 11.3614 13.3363 12.2772C14.1988 12.673 14.9847 13.2193 15.6569 13.8915C16.3997 14.6344 16.989 15.5163 17.391 16.4869C17.7931 17.4575 18 18.4978 18 19.5483C18 20.1006 17.5523 20.5483 17 20.5483H3C2.44772 20.5483 2 20.1006 2 19.5483C2 18.4978 2.20693 17.4575 2.60896 16.4869C3.011 15.5163 3.60028 14.6344 4.34315 13.8915C5.02016 13.2145 5.81267 12.665 6.68255 12.2686C5.65867 11.353 5.01422 10.0219 5.01422 8.54028ZM10.0142 5.54028C8.35737 5.54028 7.01422 6.88343 7.01422 8.54028C7.01422 10.1971 8.35737 11.5403 10.0142 11.5403C11.6711 11.5403 13.0142 10.1971 13.0142 8.54028C13.0142 6.88343 11.6711 5.54028 10.0142 5.54028ZM10 13.5483C9.21207 13.5483 8.43185 13.7035 7.7039 14.0051C6.97595 14.3066 6.31451 14.7485 5.75736 15.3057C5.20021 15.8629 4.75825 16.5243 4.45672 17.2522C4.28373 17.6699 4.15891 18.1047 4.08392 18.5483H15.9161C15.8411 18.1047 15.7163 17.6699 15.5433 17.2522C15.2417 16.5243 14.7998 15.8629 14.2426 15.3057C13.6855 14.7485 13.0241 14.3066 12.2961 14.0051C11.5681 13.7035 10.7879 13.5483 10 13.5483Z" fill="#E7E6E2"/>
<path d="M20 10.5H21C21.2652 10.5 21.5196 10.6054 21.7071 10.7929C21.8946 10.9804 22 11.2348 22 11.5C22 11.7652 21.8946 12.0196 21.7071 12.2071C21.5196 12.3946 21.2652 12.5 21 12.5H20V13.5C20 13.7652 19.8946 14.0196 19.7071 14.2071C19.5196 14.3946 19.2652 14.5 19 14.5C18.7348 14.5 18.4804 14.3946 18.2929 14.2071C18.1054 14.0196 18 13.7652 18 13.5V12.5H17C16.7348 12.5 16.4804 12.3946 16.2929 12.2071C16.1054 12.0196 16 11.7652 16 11.5C16 11.2348 16.1054 10.9804 16.2929 10.7929C16.4804 10.6054 16.7348 10.5 17 10.5H18V9.5C18 9.23478 18.1054 8.98043 18.2929 8.79289C18.4804 8.60536 18.7348 8.5 19 8.5C19.2652 8.5 19.5196 8.60536 19.7071 8.79289C19.8946 8.98043 20 9.23478 20 9.5V10.5Z" fill="#E7E6E2"/>
</svg>
