<svg width="24" height="24" viewBox="0 0 24 24" fill="none" xmlns="http://www.w3.org/2000/svg">
<path d="M16.6536 14.0671C16.4015 13.9379 15.1585 13.3127 14.9269 13.2273C14.6952 13.1408 14.5268 13.0981 14.3584 13.3565C14.19 13.6138 13.7053 14.1962 13.5573 14.3682C13.4104 14.5401 13.2624 14.5609 13.0103 14.4317C12.2654 14.1289 11.5778 13.696 10.9785 13.1523C10.4257 12.6306 9.95174 12.0281 9.57217 11.3644C9.42522 11.106 9.55686 10.9664 9.68341 10.8382C9.79669 10.7226 9.9365 10.5371 10.062 10.386C10.166 10.2556 10.2512 10.1107 10.3151 9.95572C10.3487 9.88449 10.3644 9.80582 10.3607 9.72685C10.3569 9.64787 10.3339 9.57111 10.2937 9.50353C10.2304 9.37434 9.72525 8.10426 9.51502 7.58748C9.3099 7.08528 9.10171 7.15301 8.94557 7.14467C8.79861 7.13738 8.63023 7.13529 8.46184 7.13529C8.33375 7.13894 8.20779 7.16961 8.09187 7.22538C7.97595 7.28114 7.87259 7.36079 7.7883 7.45932C7.50257 7.73557 7.27634 8.06954 7.12401 8.43997C6.97167 8.8104 6.89658 9.20916 6.9035 9.61085C6.98545 10.5842 7.34404 11.512 7.93525 12.2802C9.01897 13.939 10.5066 15.2814 12.2521 16.1759C12.7229 16.3824 13.2039 16.5639 13.693 16.7197C14.2088 16.8796 14.7539 16.9142 15.2851 16.8208C15.6368 16.748 15.97 16.6016 16.2635 16.3907C16.557 16.1798 16.8045 15.909 16.9904 15.5955C17.1561 15.21 17.2072 14.7831 17.1373 14.3682C17.0751 14.2598 16.9067 14.1962 16.6536 14.0671ZM19.1967 4.60765C17.4618 2.83678 15.1556 1.76994 12.7076 1.60573C10.2596 1.44152 7.83657 2.19114 5.8896 3.71503C3.94262 5.23891 2.60441 7.43322 2.12408 9.88942C1.64376 12.3456 2.05406 14.8963 3.27861 17.0667L1.84375 22.4168L7.20558 20.9821C8.68856 21.8065 10.3502 22.2385 12.0388 22.2387H12.0429C14.0432 22.2376 15.9983 21.6313 17.6613 20.4963C19.3242 19.3613 20.6203 17.7486 21.3859 15.8618C22.1514 13.9751 22.3521 11.899 21.9624 9.8959C21.5728 7.89279 20.6103 6.05254 19.1967 4.60763V4.60765ZM16.5097 19.1828C15.1709 20.0395 13.6229 20.4941 12.0429 20.4945H12.0388C10.5334 20.4944 9.05577 20.0809 7.76074 19.2974L7.45357 19.1119L4.27157 19.9642L5.12065 16.7968L4.92165 16.4717C4.03843 15.0338 3.5927 13.3607 3.64083 11.6641C3.68895 9.96746 4.22876 8.32351 5.19201 6.94012C6.15525 5.55672 7.49866 4.496 9.05237 3.89208C10.6061 3.28817 12.3003 3.16818 13.9208 3.5473C15.5413 3.92641 17.0153 4.7876 18.1564 6.02197C19.2975 7.25634 20.0545 8.80844 20.3316 10.482C20.6087 12.1556 20.3935 13.8755 19.7132 15.4242C19.0329 16.9729 17.9181 18.2809 16.5097 19.1828Z" fill="#E7E6E2"/>
</svg>
