<svg width="24" height="24" viewBox="0 0 24 24" fill="none" xmlns="http://www.w3.org/2000/svg">
<path d="M8.9 16.9999C8.70222 16.9999 8.50888 17.0585 8.34443 17.1684C8.17998 17.2783 8.05181 17.4345 7.97612 17.6172C7.90043 17.7999 7.88063 18.001 7.91922 18.195C7.9578 18.389 8.05304 18.5671 8.19289 18.707C8.33275 18.8469 8.51093 18.9421 8.70491 18.9807C8.89889 19.0193 9.09996 18.9995 9.28268 18.9238C9.46541 18.8481 9.62159 18.7199 9.73147 18.5555C9.84135 18.391 9.9 18.1977 9.9 17.9999C9.9 17.7347 9.79464 17.4803 9.60711 17.2928C9.41957 17.1052 9.16522 16.9999 8.9 16.9999ZM5.9 16.9999C5.70222 16.9999 5.50888 17.0585 5.34443 17.1684C5.17998 17.2783 5.05181 17.4345 4.97612 17.6172C4.90043 17.7999 4.88063 18.001 4.91922 18.195C4.9578 18.389 5.05304 18.5671 5.19289 18.707C5.33275 18.8469 5.51093 18.9421 5.70491 18.9807C5.89889 19.0193 6.09996 18.9995 6.28268 18.9238C6.46541 18.8481 6.62159 18.7199 6.73147 18.5555C6.84135 18.391 6.9 18.1977 6.9 17.9999C6.9 17.7347 6.79464 17.4803 6.60711 17.2928C6.41957 17.1052 6.16522 16.9999 5.9 16.9999ZM11.9 16.9999C11.7022 16.9999 11.5089 17.0585 11.3444 17.1684C11.18 17.2783 11.0518 17.4345 10.9761 17.6172C10.9004 17.7999 10.8806 18.001 10.9192 18.195C10.9578 18.389 11.053 18.5671 11.1929 18.707C11.3327 18.8469 11.5109 18.9421 11.7049 18.9807C11.8989 19.0193 12.1 18.9995 12.2827 18.9238C12.4654 18.8481 12.6216 18.7199 12.7315 18.5555C12.8414 18.391 12.9 18.1977 12.9 17.9999C12.9 17.7347 12.7946 17.4803 12.6071 17.2928C12.4196 17.1052 12.1652 16.9999 11.9 16.9999ZM15 8.49989C15.0879 8.34835 15.2141 8.22257 15.3659 8.13513C15.5177 8.04769 15.6898 8.00166 15.865 8.00166C16.0402 8.00166 16.2123 8.04769 16.3641 8.13513C16.5159 8.22257 16.6421 8.34835 16.73 8.49989C16.8619 8.72862 17.079 8.8959 17.3337 8.96521C17.5885 9.03453 17.8604 9.00027 18.09 8.86989C18.208 8.80798 18.3124 8.72312 18.3971 8.62031C18.4818 8.51749 18.5451 8.39878 18.5833 8.27116C18.6215 8.14354 18.6338 8.00957 18.6195 7.87712C18.6052 7.74468 18.5646 7.61642 18.5 7.49989C18.237 7.04293 17.8581 6.66337 17.4017 6.39944C16.9452 6.13552 16.4273 5.99656 15.9 5.99656C15.3727 5.99656 14.8548 6.13552 14.3983 6.39944C13.9419 6.66337 13.563 7.04293 13.3 7.49989C13.2156 7.72077 13.2121 7.96442 13.2903 8.18759C13.3685 8.41076 13.5232 8.599 13.7271 8.71889C13.9309 8.83878 14.1706 8.88257 14.4036 8.84248C14.6367 8.80239 14.848 8.68101 15 8.49989ZM22 5.49989C21.3853 4.43678 20.5018 3.55407 19.4381 2.9404C18.3744 2.32672 17.168 2.00366 15.94 2.00366C14.712 2.00366 13.5056 2.32672 12.4419 2.9404C11.3782 3.55407 10.4947 4.43678 9.88 5.49989C9.81388 5.61403 9.771 5.74011 9.75381 5.87089C9.73663 6.00167 9.74549 6.13456 9.77988 6.2619C9.81427 6.38924 9.87352 6.50851 9.9542 6.61286C10.0349 6.71721 10.1354 6.80456 10.25 6.86989C10.3876 6.94824 10.5418 6.9928 10.7 6.99989C10.8762 7.00059 11.0495 6.95472 11.2023 6.86691C11.355 6.77911 11.4819 6.6525 11.57 6.49989C12.0089 5.73986 12.64 5.10872 13.4001 4.66992C14.1602 4.23112 15.0224 4.00011 15.9 4.00011C16.7776 4.00011 17.6398 4.23112 18.3999 4.66992C19.16 5.10872 19.7911 5.73986 20.23 6.49989C20.2953 6.61448 20.3827 6.71501 20.487 6.7957C20.5914 6.87638 20.7107 6.93562 20.838 6.97001C20.9653 7.00441 21.0982 7.01326 21.229 6.99608C21.3598 6.9789 21.4859 6.93601 21.6 6.86989C21.7171 6.80711 21.8205 6.72162 21.9042 6.61842C21.9879 6.51522 22.0502 6.39637 22.0874 6.26882C22.1247 6.14127 22.1361 6.00758 22.1211 5.87555C22.1061 5.74353 22.0649 5.61582 22 5.49989ZM17.9 13.9999H16.9V10.9999C16.9 10.7347 16.7946 10.4803 16.6071 10.2928C16.4196 10.1052 16.1652 9.99989 15.9 9.99989C15.6348 9.99989 15.3804 10.1052 15.1929 10.2928C15.0054 10.4803 14.9 10.7347 14.9 10.9999V13.9999H4.9C4.10435 13.9999 3.34129 14.316 2.77868 14.8786C2.21607 15.4412 1.9 16.2042 1.9 16.9999V18.9999C1.9 19.7955 2.21607 20.5586 2.77868 21.1212C3.34129 21.6838 4.10435 21.9999 4.9 21.9999H17.9C18.6957 21.9999 19.4587 21.6838 20.0213 21.1212C20.5839 20.5586 20.9 19.7955 20.9 18.9999V16.9999C20.9 16.2042 20.5839 15.4412 20.0213 14.8786C19.4587 14.316 18.6957 13.9999 17.9 13.9999ZM18.9 18.9999C18.9 19.2651 18.7946 19.5195 18.6071 19.707C18.4196 19.8945 18.1652 19.9999 17.9 19.9999H4.9C4.63478 19.9999 4.38043 19.8945 4.19289 19.707C4.00536 19.5195 3.9 19.2651 3.9 18.9999V16.9999C3.9 16.7347 4.00536 16.4803 4.19289 16.2928C4.38043 16.1052 4.63478 15.9999 4.9 15.9999H17.9C18.1652 15.9999 18.4196 16.1052 18.6071 16.2928C18.7946 16.4803 18.9 16.7347 18.9 16.9999V18.9999Z" fill="#E7E6E2"/>
</svg>
