<svg width="24" height="24" viewBox="0 0 24 24" fill="none" xmlns="http://www.w3.org/2000/svg">
<path d="M10 14C9.73478 14 9.48043 13.8946 9.29289 13.7071C9.10536 13.5196 9 13.2652 9 13C9 12.7348 9.10536 12.4804 9.29289 12.2929C9.48043 12.1054 9.73478 12 10 12H14C14.2652 12 14.5196 12.1054 14.7071 12.2929C14.8946 12.4804 15 12.7348 15 13C15 13.2652 14.8946 13.5196 14.7071 13.7071C14.5196 13.8946 14.2652 14 14 14H10ZM19 3H5C4.20435 3 3.44129 3.31607 2.87868 3.87868C2.31607 4.44129 2 5.20435 2 6V9C2 9.26522 2.10536 9.51957 2.29289 9.70711C2.48043 9.89464 2.73478 10 3 10H4V18C4 18.7956 4.31607 19.5587 4.87868 20.1213C5.44129 20.6839 6.20435 21 7 21H17C17.7956 21 18.5587 20.6839 19.1213 20.1213C19.6839 19.5587 20 18.7956 20 18V10H21C21.2652 10 21.5196 9.89464 21.7071 9.70711C21.8946 9.51957 22 9.26522 22 9V6C22 5.20435 21.6839 4.44129 21.1213 3.87868C20.5587 3.31607 19.7956 3 19 3ZM20 8H4V6C4 5.73478 4.10536 5.48043 4.29289 5.29289C4.48043 5.10536 4.73478 5 5 5H19C19.2652 5 19.5196 5.10536 19.7071 5.29289C19.8946 5.48043 20 5.73478 20 6V8Z" fill="#E7E6E2"/>
</svg>
