<svg width="24" height="24" viewBox="0 0 24 24" fill="none" xmlns="http://www.w3.org/2000/svg">
<path d="M22 12C22 10.0222 21.4135 8.08879 20.3147 6.4443C19.2159 4.79981 17.6541 3.51809 15.8268 2.76121C13.9996 2.00433 11.9889 1.8063 10.0491 2.19215C8.10929 2.578 6.32746 3.53041 4.92894 4.92894C3.53041 6.32746 2.578 8.10929 2.19215 10.0491C1.8063 11.9889 2.00433 13.9996 2.76121 15.8268C3.51809 17.6541 4.79981 19.2159 6.4443 20.3147C8.08879 21.4135 10.0222 22 12 22C14.6522 22 17.1957 20.9464 19.0711 19.0711C19.9997 18.1425 20.7363 17.0401 21.2388 15.8268C21.7413 14.6136 22 13.3132 22 12ZM15.92 12.38C15.8724 12.5028 15.801 12.6149 15.71 12.71L12.71 15.71C12.617 15.8037 12.5064 15.8781 12.3846 15.9289C12.2627 15.9797 12.132 16.0058 12 16.0058C11.868 16.0058 11.7373 15.9797 11.6154 15.9289C11.4936 15.8781 11.383 15.8037 11.29 15.71C11.1963 15.617 11.1219 15.5064 11.0711 15.3846C11.0203 15.2627 10.9942 15.132 10.9942 15C10.9942 14.868 11.0203 14.7373 11.0711 14.6154C11.1219 14.4936 11.1963 14.383 11.29 14.29L12.59 13H9C8.73479 13 8.48043 12.8946 8.2929 12.7071C8.10536 12.5196 8 12.2652 8 12C8 11.7348 8.10536 11.4804 8.2929 11.2929C8.48043 11.1054 8.73479 11 9 11H12.59L11.29 9.71001C11.1017 9.5217 10.9959 9.26631 10.9959 9.00001C10.9959 8.7337 11.1017 8.47831 11.29 8.29001C11.4783 8.1017 11.7337 7.99591 12 7.99591C12.2663 7.99591 12.5217 8.1017 12.71 8.29001L15.71 11.29C15.801 11.3851 15.8724 11.4973 15.92 11.62C16.02 11.8635 16.02 12.1365 15.92 12.38Z" fill="#E7E6E2"/>
</svg>
