<svg width="24" height="24" viewBox="0 0 24 24" fill="none" xmlns="http://www.w3.org/2000/svg">
<path d="M12 22C13.9778 22 15.9112 21.4135 17.5557 20.3147C19.2002 19.2159 20.4819 17.6541 21.2388 15.8268C21.9957 13.9996 22.1937 11.9889 21.8079 10.0491C21.422 8.10929 20.4696 6.32746 19.0711 4.92894C17.6725 3.53041 15.8907 2.578 13.9509 2.19215C12.0111 1.8063 10.0004 2.00433 8.17317 2.76121C6.3459 3.51809 4.78412 4.79981 3.6853 6.4443C2.58649 8.08879 2 10.0222 2 12C2 14.6522 3.05357 17.1957 4.92893 19.0711C5.85752 19.9997 6.95991 20.7363 8.17317 21.2388C9.38642 21.7413 10.6868 22 12 22ZM11.62 15.92C11.4972 15.8724 11.3851 15.801 11.29 15.71L8.29 12.71C8.19627 12.617 8.12188 12.5064 8.07111 12.3846C8.02034 12.2627 7.9942 12.132 7.9942 12C7.9942 11.868 8.02034 11.7373 8.07111 11.6154C8.12188 11.4936 8.19627 11.383 8.29 11.29C8.38296 11.1963 8.49356 11.1219 8.61542 11.0711C8.73728 11.0203 8.86799 10.9942 9 10.9942C9.13201 10.9942 9.26272 11.0203 9.38458 11.0711C9.50644 11.1219 9.61704 11.1963 9.71 11.29L11 12.59V9C11 8.73479 11.1054 8.48043 11.2929 8.2929C11.4804 8.10536 11.7348 8 12 8C12.2652 8 12.5196 8.10536 12.7071 8.2929C12.8946 8.48043 13 8.73479 13 9V12.59L14.29 11.29C14.4783 11.1017 14.7337 10.9959 15 10.9959C15.2663 10.9959 15.5217 11.1017 15.71 11.29C15.8983 11.4783 16.0041 11.7337 16.0041 12C16.0041 12.2663 15.8983 12.5217 15.71 12.71L12.71 15.71C12.6149 15.801 12.5028 15.8724 12.38 15.92C12.1365 16.02 11.8635 16.02 11.62 15.92Z" fill="#E7E6E2"/>
</svg>
