<svg width="24" height="24" viewBox="0 0 24 24" fill="none" xmlns="http://www.w3.org/2000/svg">
<path d="M2 12C2 13.9778 2.58649 15.9112 3.6853 17.5557C4.78412 19.2002 6.3459 20.4819 8.17316 21.2388C10.0004 21.9957 12.0111 22.1937 13.9509 21.8079C15.8907 21.422 17.6725 20.4696 19.0711 19.0711C20.4696 17.6725 21.422 15.8907 21.8079 13.9509C22.1937 12.0111 21.9957 10.0004 21.2388 8.17317C20.4819 6.3459 19.2002 4.78412 17.5557 3.6853C15.9112 2.58649 13.9778 2 12 2C9.34783 2 6.8043 3.05357 4.92893 4.92893C4.00035 5.85752 3.26375 6.95991 2.7612 8.17316C2.25866 9.38642 2 10.6868 2 12ZM8.08 11.62C8.12759 11.4972 8.19896 11.3851 8.29 11.29L11.29 8.29C11.383 8.19627 11.4936 8.12188 11.6154 8.07111C11.7373 8.02034 11.868 7.9942 12 7.9942C12.132 7.9942 12.2627 8.02034 12.3846 8.07111C12.5064 8.12188 12.617 8.19627 12.71 8.29C12.8037 8.38296 12.8781 8.49356 12.9289 8.61542C12.9797 8.73728 13.0058 8.86799 13.0058 9C13.0058 9.13201 12.9797 9.26272 12.9289 9.38458C12.8781 9.50644 12.8037 9.61704 12.71 9.71L11.41 11H15C15.2652 11 15.5196 11.1054 15.7071 11.2929C15.8946 11.4804 16 11.7348 16 12C16 12.2652 15.8946 12.5196 15.7071 12.7071C15.5196 12.8946 15.2652 13 15 13H11.41L12.71 14.29C12.8983 14.4783 13.0041 14.7337 13.0041 15C13.0041 15.2663 12.8983 15.5217 12.71 15.71C12.5217 15.8983 12.2663 16.0041 12 16.0041C11.7337 16.0041 11.4783 15.8983 11.29 15.71L8.29 12.71C8.19896 12.6149 8.12759 12.5028 8.08 12.38C7.97998 12.1365 7.97998 11.8635 8.08 11.62Z" fill="#E7E6E2"/>
</svg>
