<svg width="24" height="24" viewBox="0 0 24 24" fill="none" xmlns="http://www.w3.org/2000/svg">
<path d="M12 2C10.0222 2 8.0888 2.58649 6.4443 3.6853C4.79981 4.78412 3.51809 6.3459 2.76121 8.17316C2.00433 10.0004 1.8063 12.0111 2.19215 13.9509C2.578 15.8907 3.53041 17.6725 4.92894 19.0711C6.32746 20.4696 8.10929 21.422 10.0491 21.8079C11.9889 22.1937 13.9996 21.9957 15.8268 21.2388C17.6541 20.4819 19.2159 19.2002 20.3147 17.5557C21.4135 15.9112 22 13.9778 22 12C22 9.34784 20.9464 6.8043 19.0711 4.92893C18.1425 4.00035 17.0401 3.26375 15.8268 2.7612C14.6136 2.25866 13.3132 2 12 2ZM12.38 8.08C12.5028 8.12759 12.6149 8.19896 12.71 8.29L15.71 11.29C15.8037 11.383 15.8781 11.4936 15.9289 11.6154C15.9797 11.7373 16.0058 11.868 16.0058 12C16.0058 12.132 15.9797 12.2627 15.9289 12.3846C15.8781 12.5064 15.8037 12.617 15.71 12.71C15.617 12.8037 15.5064 12.8781 15.3846 12.9289C15.2627 12.9797 15.132 13.0058 15 13.0058C14.868 13.0058 14.7373 12.9797 14.6154 12.9289C14.4936 12.8781 14.383 12.8037 14.29 12.71L13 11.41L13 15C13 15.2652 12.8946 15.5196 12.7071 15.7071C12.5196 15.8946 12.2652 16 12 16C11.7348 16 11.4804 15.8946 11.2929 15.7071C11.1054 15.5196 11 15.2652 11 15L11 11.41L9.71001 12.71C9.5217 12.8983 9.26631 13.0041 9.00001 13.0041C8.7337 13.0041 8.47831 12.8983 8.29001 12.71C8.1017 12.5217 7.99591 12.2663 7.99591 12C7.99591 11.7337 8.1017 11.4783 8.29001 11.29L11.29 8.29C11.3851 8.19896 11.4973 8.12759 11.62 8.08C11.8635 7.97998 12.1365 7.97998 12.38 8.08Z" fill="#E7E6E2"/>
</svg>
