<svg width="24" height="24" viewBox="0 0 24 24" fill="none" xmlns="http://www.w3.org/2000/svg">
<path fill-rule="evenodd" clip-rule="evenodd" d="M18.9999 5H9.82994C9.03456 5.0007 8.27201 5.31723 7.70994 5.88L2.28994 11.29C2.19621 11.383 2.12182 11.4936 2.07105 11.6154C2.02028 11.7373 1.99414 11.868 1.99414 12C1.99414 12.132 2.02028 12.2627 2.07105 12.3846C2.12182 12.5064 2.19621 12.617 2.28994 12.71L7.70994 18.12C8.27201 18.6828 9.03456 18.9993 9.82994 19H18.9999C19.7956 19 20.5587 18.6839 21.1213 18.1213C21.6839 17.5587 21.9999 16.7956 21.9999 16V8C21.9999 7.20435 21.6839 6.44129 21.1213 5.87868C20.5587 5.31607 19.7956 5 18.9999 5ZM16.3845 9.07111C16.5064 9.12188 16.617 9.19627 16.7099 9.29C16.8037 9.38296 16.8781 9.49356 16.9288 9.61542C16.9796 9.73728 17.0057 9.86799 17.0057 10C17.0057 10.132 16.9796 10.2627 16.9288 10.3846C16.8781 10.5064 16.8037 10.617 16.7099 10.71L15.4099 12L16.7099 13.29C16.8037 13.383 16.8781 13.4936 16.9288 13.6154C16.9796 13.7373 17.0057 13.868 17.0057 14C17.0057 14.132 16.9796 14.2627 16.9288 14.3846C16.8781 14.5064 16.8037 14.617 16.7099 14.71C16.617 14.8037 16.5064 14.8781 16.3845 14.9289C16.2627 14.9797 16.132 15.0058 15.9999 15.0058C15.8679 15.0058 15.7372 14.9797 15.6154 14.9289C15.4935 14.8781 15.3829 14.8037 15.2899 14.71L13.9999 13.41L12.7099 14.71C12.617 14.8037 12.5064 14.8781 12.3845 14.9289C12.2627 14.9797 12.132 15.0058 11.9999 15.0058C11.8679 15.0058 11.7372 14.9797 11.6154 14.9289C11.4935 14.8781 11.3829 14.8037 11.2899 14.71C11.1962 14.617 11.1218 14.5064 11.071 14.3846C11.0203 14.2627 10.9941 14.132 10.9941 14C10.9941 13.868 11.0203 13.7373 11.071 13.6154C11.1218 13.4936 11.1962 13.383 11.2899 13.29L12.5899 12L11.2899 10.71C11.1016 10.5217 10.9958 10.2663 10.9958 10C10.9958 9.7337 11.1016 9.4783 11.2899 9.29C11.4782 9.1017 11.7336 8.99591 11.9999 8.99591C12.2662 8.99591 12.5216 9.1017 12.7099 9.29L13.9999 10.59L15.2899 9.29C15.3829 9.19627 15.4935 9.12188 15.6154 9.07111C15.7372 9.02034 15.8679 8.9942 15.9999 8.9942C16.132 8.9942 16.2627 9.02034 16.3845 9.07111Z" fill="#E7E6E2"/>
</svg>
