<svg width="24" height="24" viewBox="0 0 24 24" fill="none" xmlns="http://www.w3.org/2000/svg">
<path d="M16 6.5H19C19.7956 6.5 20.5587 6.81607 21.1213 7.37868C21.6839 7.94129 22 8.70435 22 9.5V9.84405C18.9569 11.5895 15.4949 12.5138 11.9571 12.5025C8.44593 12.4913 5.01533 11.5589 2 9.81958V9.5C2 8.70435 2.31607 7.94129 2.87868 7.37868C3.44129 6.81607 4.20435 6.5 5 6.5H8V5.5C8 4.70435 8.31607 3.94129 8.87868 3.37868C9.44129 2.81607 10.2044 2.5 11 2.5H13C13.7956 2.5 14.5587 2.81607 15.1213 3.37868C15.6839 3.94129 16 4.70435 16 5.5V6.5ZM10.2929 4.79289C10.1054 4.98043 10 5.23478 10 5.5V6.5H14V5.5C14 5.23478 13.8946 4.98043 13.7071 4.79289C13.5196 4.60536 13.2652 4.5 13 4.5H11C10.7348 4.5 10.4804 4.60536 10.2929 4.79289Z" fill="#E7E6E2"/>
<path d="M2 12.0946V18.5C2 19.2956 2.31607 20.0587 2.87868 20.6213C3.44129 21.1839 4.20435 21.5 5 21.5H19C19.7956 21.5 20.5587 21.1839 21.1213 20.6213C21.6839 20.0587 22 19.2956 22 18.5V12.1163C18.9028 13.6875 15.4607 14.5138 11.9507 14.5025C8.4722 14.4914 5.06559 13.6581 2 12.0946Z" fill="#E7E6E2"/>
</svg>
