<svg width="24" height="24" viewBox="0 0 24 24" fill="none" xmlns="http://www.w3.org/2000/svg">
<path fill-rule="evenodd" clip-rule="evenodd" d="M21 12H18V3.00001C18.0007 2.8238 17.9548 2.65053 17.867 2.49775C17.7792 2.34498 17.6526 2.21811 17.5 2.13001C17.348 2.04224 17.1755 1.99603 17 1.99603C16.8245 1.99603 16.652 2.04224 16.5 2.13001L13.5 3.85001L10.5 2.13001C10.348 2.04224 10.1755 1.99603 10 1.99603C9.82447 1.99603 9.65203 2.04224 9.50001 2.13001L6.50001 3.85001L3.50001 2.13001C3.34799 2.04224 3.17554 1.99603 3.00001 1.99603C2.82447 1.99603 2.65203 2.04224 2.50001 2.13001C2.3474 2.21811 2.22079 2.34498 2.13299 2.49775C2.04518 2.65053 1.99931 2.8238 2.00001 3.00001V19C2.00001 19.7957 2.31608 20.5587 2.87869 21.1213C3.4413 21.6839 4.20436 22 5.00001 22H19C19.7957 22 20.5587 21.6839 21.1213 21.1213C21.6839 20.5587 22 19.7957 22 19V13C22 12.7348 21.8947 12.4804 21.7071 12.2929C21.5196 12.1054 21.2652 12 21 12ZM12 10.5H9.50001C9.3674 10.5 9.24022 10.5527 9.14645 10.6465C9.05269 10.7402 9.00001 10.8674 9.00001 11C9.00001 11.1326 9.05269 11.2598 9.14645 11.3536C9.24022 11.4473 9.3674 11.5 9.50001 11.5H10.5C11.12 11.4994 11.7181 11.7291 12.1782 12.1447C12.6383 12.5602 12.9276 13.1319 12.9899 13.7488C13.0522 14.3656 12.8831 14.9836 12.5154 15.4827C12.1476 15.9819 11.6076 16.3266 11 16.45V17C11 17.2652 10.8947 17.5196 10.7071 17.7071C10.5196 17.8947 10.2652 18 10 18C9.73479 18 9.48044 17.8947 9.2929 17.7071C9.10537 17.5196 9.00001 17.2652 9.00001 17V16.5H8.00001C7.73479 16.5 7.48044 16.3947 7.2929 16.2071C7.10537 16.0196 7.00001 15.7652 7.00001 15.5C7.00001 15.2348 7.10537 14.9804 7.2929 14.7929C7.48044 14.6054 7.73479 14.5 8.00001 14.5H10.5C10.6326 14.5 10.7598 14.4473 10.8536 14.3536C10.9473 14.2598 11 14.1326 11 14C11 13.8674 10.9473 13.7402 10.8536 13.6465C10.7598 13.5527 10.6326 13.5 10.5 13.5H9.50001C8.88003 13.5006 8.28194 13.2709 7.82184 12.8553C7.36174 12.4398 7.07246 11.8681 7.01015 11.2513C6.94785 10.6344 7.11696 10.0164 7.48466 9.51727C7.85237 9.01811 8.39243 8.67338 9.00001 8.55001V8.00001C9.00001 7.73479 9.10537 7.48044 9.2929 7.2929C9.48044 7.10536 9.73479 7.00001 10 7.00001C10.2652 7.00001 10.5196 7.10536 10.7071 7.2929C10.8947 7.48044 11 7.73479 11 8.00001V8.50001H12C12.2652 8.50001 12.5196 8.60536 12.7071 8.7929C12.8947 8.98044 13 9.23479 13 9.50001C13 9.76522 12.8947 10.0196 12.7071 10.2071C12.5196 10.3947 12.2652 10.5 12 10.5ZM19.7071 19.7071C19.8947 19.5196 20 19.2652 20 19V14H18V19C18 19.2652 18.1054 19.5196 18.2929 19.7071C18.4804 19.8947 18.7348 20 19 20C19.2652 20 19.5196 19.8947 19.7071 19.7071Z" fill="#E7E6E2"/>
</svg>
