<svg width="24" height="24" viewBox="0 0 24 24" fill="none" xmlns="http://www.w3.org/2000/svg">
<path d="M21.67 20.29L3.67002 2.29001C3.47541 2.14813 3.23613 2.08126 2.99616 2.10167C2.75619 2.12209 2.53165 2.22843 2.3638 2.40114C2.19595 2.57385 2.09607 2.80134 2.08252 3.0418C2.06896 3.28225 2.14265 3.51953 2.29002 3.71001L6.61002 8.00001L5.35002 12.74C5.31096 12.8891 5.30688 13.0452 5.3381 13.1961C5.36933 13.347 5.43501 13.4887 5.53002 13.61C5.62318 13.731 5.74282 13.8291 5.87976 13.8967C6.0167 13.9643 6.16731 13.9996 6.32002 14H10.16L8.35002 20.74C8.2914 20.9574 8.30789 21.1883 8.39682 21.3952C8.48575 21.6021 8.64192 21.7729 8.84002 21.88C8.98745 21.9596 9.1525 22.0008 9.32002 22C9.45957 21.9997 9.5975 21.9701 9.72494 21.9133C9.85239 21.8565 9.96653 21.7736 10.06 21.67L14.91 16.33L20.29 21.71C20.383 21.8037 20.4936 21.8781 20.6154 21.9289C20.7373 21.9797 20.868 22.0058 21 22.0058C21.132 22.0058 21.2627 21.9797 21.3846 21.9289C21.5065 21.8781 21.6171 21.8037 21.71 21.71C21.8038 21.617 21.8781 21.5064 21.9289 21.3846C21.9797 21.2627 22.0058 21.132 22.0058 21C22.0058 20.868 21.9797 20.7373 21.9289 20.6154C21.8781 20.4936 21.8038 20.383 21.71 20.29H21.67Z" fill="#E7E6E2"/>
<path d="M16.94 12.65C17.1234 12.8167 17.3622 12.9094 17.61 12.91C17.7496 12.9097 17.8875 12.8801 18.0149 12.8233C18.1424 12.7665 18.2565 12.6836 18.35 12.58L21 9.67001C21.1313 9.52468 21.2171 9.344 21.2466 9.15039C21.2761 8.95678 21.2481 8.75876 21.1661 8.5809C21.0841 8.40304 20.9517 8.25318 20.7853 8.14992C20.6189 8.04665 20.4258 7.99452 20.23 8.00001H15.69L17 3.26001C17.0391 3.11093 17.0432 2.95484 17.0119 2.80392C16.9807 2.653 16.915 2.51135 16.82 2.39001C16.7238 2.26491 16.5994 2.16435 16.4568 2.09657C16.3143 2.02879 16.1578 1.9957 16 2.00001H9.00002C8.77426 1.99227 8.55253 2.06121 8.37095 2.19558C8.18936 2.32995 8.05862 2.52184 8.00002 2.74001V3.00001C7.92838 3.25193 7.95843 3.5219 8.08372 3.7519C8.209 3.9819 8.41952 4.15357 8.67002 4.23001L16.9387 12.6488L16.94 12.65Z" fill="#E7E6E2"/>
</svg>
