<svg width="24" height="24" viewBox="0 0 24 24" fill="none" xmlns="http://www.w3.org/2000/svg">
<path d="M20.4236 8.27115L12.9519 12.887V21.5763L19.9536 17.2755C20.0977 17.1854 20.2165 17.0601 20.2987 16.9114C20.381 16.7627 20.4239 16.5955 20.4236 16.4255V8.27115Z" fill="#E7E6E2"/>
<path d="M10.9519 21.4856V12.8765L7.3455 10.6485L7.29822 10.6785L7.23658 10.5813L3.5636 8.31219V16.3555C3.56326 16.5255 3.60624 16.6927 3.68847 16.8414C3.77071 16.9901 3.88949 17.1154 4.0336 17.2055L10.9519 21.4856Z" fill="#E7E6E2"/>
<path d="M16.6188 4.77159L19.4187 6.54107L11.9604 11.1486L9.22391 9.4581L16.6188 4.77159Z" fill="#E7E6E2"/>
<path d="M14.7321 3.5995L7.33196 8.28931L4.47225 6.52266L11.4236 2.19551C11.5261 2.13508 11.6374 2.0912 11.7536 2.06551H11.8536C11.943 2.05059 12.0342 2.05059 12.1236 2.06551H12.2036C12.3091 2.0963 12.4075 2.14724 12.4936 2.21551L14.7321 3.5995Z" fill="#E7E6E2"/>
</svg>
