<svg width="24" height="24" viewBox="0 0 24 24" fill="none" xmlns="http://www.w3.org/2000/svg">
<path d="M20 1H4C3.20435 1 2.44129 1.31607 1.87868 1.87868C1.31607 2.44129 1 3.20435 1 4V20C1 20.7956 1.31607 21.5587 1.87868 22.1213C2.44129 22.6839 3.20435 23 4 23H20C20.7956 23 21.5587 22.6839 22.1213 22.1213C22.6839 21.5587 23 20.7956 23 20V13H13.0023V22.9978H11.0023V13H1.00455V11H11.0023V1.00232H13.0023V11H23V4C23 3.20435 22.6839 2.44129 22.1213 1.87868C21.5587 1.31607 20.7956 1 20 1ZM5.00665 5V4.4989C5.00665 3.94662 5.45437 3.4989 6.00665 3.4989C6.55894 3.4989 7.00665 3.94662 7.00665 4.4989V5H7.50775C8.06004 5 8.50775 5.44772 8.50775 6C8.50775 6.55228 8.06004 7 7.50775 7H7.00665V7.5011C7.00665 8.05338 6.55894 8.5011 6.00665 8.5011C5.45437 8.5011 5.00665 8.05338 5.00665 7.5011V7H4.50555C3.95327 7 3.50555 6.55228 3.50555 6C3.50555 5.44772 3.95327 5 4.50555 5H5.00665ZM16.5314 7C15.9791 7 15.5314 6.55228 15.5314 6C15.5314 5.44772 15.9791 5 16.5314 5H19.5395C20.0917 5 20.5395 5.44772 20.5395 6C20.5395 6.55228 20.0917 7 19.5395 7H16.5314ZM16.5314 20.4183C15.9791 20.4183 15.5314 19.9706 15.5314 19.4183C15.5314 18.8661 15.9791 18.4183 16.5314 18.4183H19.5395C20.0917 18.4183 20.5395 18.8661 20.5395 19.4183C20.5395 19.9706 20.0917 20.4183 19.5395 20.4183H16.5314ZM16.5314 17.4155C15.9791 17.4155 15.5314 16.9678 15.5314 16.4155C15.5314 15.8632 15.9791 15.4155 16.5314 15.4155H19.5395C20.0917 15.4155 20.5395 15.8632 20.5395 16.4155C20.5395 16.9678 20.0917 17.4155 19.5395 17.4155H16.5314ZM6.6559 15.9379C7.04642 15.5474 7.67959 15.5474 8.07011 15.9379C8.46064 16.3284 8.46064 16.9616 8.07011 17.3521L7.41989 18.0023L8.12874 18.7112C8.51926 19.1017 8.51926 19.7349 8.12874 20.1254C7.73822 20.5159 7.10505 20.5159 6.71453 20.1254L6.00568 19.4166L5.29878 20.1235C4.90826 20.514 4.27509 20.514 3.88457 20.1235C3.49404 19.7329 3.49404 19.0998 3.88457 18.7092L4.59146 18.0023L3.94126 17.3521C3.55073 16.9616 3.55073 16.3285 3.94126 15.9379C4.33178 15.5474 4.96495 15.5474 5.35547 15.9379L6.00568 16.5881L6.6559 15.9379Z" fill="#E7E6E2"/>
</svg>
