<svg width="24" height="24" viewBox="0 0 24 24" fill="none" xmlns="http://www.w3.org/2000/svg">
<path d="M21.7099 20.2899C21.8962 20.4773 22.0007 20.7308 22.0007 20.9949C22.0007 21.2591 21.8962 21.5126 21.7099 21.6999C21.617 21.7937 21.5064 21.8681 21.3845 21.9188C21.2627 21.9696 21.132 21.9957 20.9999 21.9957C20.8679 21.9957 20.7372 21.9696 20.6154 21.9188C20.4935 21.8681 20.3829 21.7937 20.2899 21.6999L19.2899 20.6999C18.8877 20.8948 18.4469 20.9973 17.9999 20.9999H5.99994C5.20429 20.9999 4.44123 20.6839 3.87862 20.1213C3.31601 19.5587 2.99994 18.7956 2.99994 17.9999V13.0044H11.5968L9.59677 11.0044H2.99994V7.99994C3.00149 7.5359 3.11067 7.07854 3.31889 6.66383C3.52711 6.24912 3.8287 5.88837 4.19994 5.60994L2.28994 3.70994C2.10164 3.52164 1.99585 3.26624 1.99585 2.99994C1.99585 2.73364 2.10164 2.47824 2.28994 2.28994C2.38318 2.1967 2.49387 2.12274 2.61569 2.07228C2.73751 2.02182 2.86808 1.99585 2.99994 1.99585C3.1318 1.99585 3.26237 2.02182 3.38419 2.07228C3.50601 2.12274 3.6167 2.1967 3.70994 2.28994L21.7099 20.2899Z" fill="#E7E6E2"/>
<path d="M19.9999 15.3399C19.7347 15.3399 19.4804 15.2346 19.2928 15.047L17.2504 13.0046L20.9999 13.0049V14.3399C20.9999 14.6052 20.8946 14.8595 20.707 15.047C20.5195 15.2346 20.2652 15.3399 19.9999 15.3399Z" fill="#E7E6E2"/>
<path d="M20.9999 11.0049L15.2502 11.0044L10.9528 6.70705C10.7653 6.51951 10.6599 6.26516 10.6599 5.99994C10.6599 5.73472 10.7653 5.48037 10.9528 5.29283C11.1404 5.1053 11.3947 4.99994 11.6599 4.99994H14.9999V3.99994C14.9999 3.73472 15.1053 3.48037 15.2928 3.29283C15.4804 3.1053 15.7347 2.99994 15.9999 2.99994C16.2652 2.99994 16.5195 3.1053 16.707 3.29283C16.8946 3.48037 16.9999 3.73472 16.9999 3.99994V4.99994H17.9999C18.7956 4.99994 19.5587 5.31601 20.1213 5.87862C20.6839 6.44123 20.9999 7.20429 20.9999 7.99994V11.0049Z" fill="#E7E6E2"/>
</svg>
