<svg width="24" height="24" viewBox="0 0 24 24" fill="none" xmlns="http://www.w3.org/2000/svg">
<path d="M21.9888 4.45691H20.9888V3.45691C20.9888 3.19169 20.8834 2.93734 20.6959 2.7498C20.5083 2.56227 20.254 2.45691 19.9888 2.45691C19.7236 2.45691 19.4692 2.56227 19.2817 2.7498C19.0941 2.93734 18.9888 3.19169 18.9888 3.45691V4.45691H17.9888C17.7236 4.45691 17.4692 4.56227 17.2817 4.7498C17.0941 4.93734 16.9888 5.19169 16.9888 5.45691C16.9888 5.72213 17.0941 5.97648 17.2817 6.16402C17.4692 6.35155 17.7236 6.45691 17.9888 6.45691H18.9888V7.45691C18.9888 7.72213 19.0941 7.97648 19.2817 8.16402C19.4692 8.35155 19.7236 8.45691 19.9888 8.45691C20.254 8.45691 20.5083 8.35155 20.6959 8.16402C20.8834 7.97648 20.9888 7.72213 20.9888 7.45691V6.45691H21.9888C22.254 6.45691 22.5083 6.35155 22.6959 6.16402C22.8834 5.97648 22.9888 5.72213 22.9888 5.45691C22.9888 5.19169 22.8834 4.93734 22.6959 4.7498C22.5083 4.56227 22.254 4.45691 21.9888 4.45691Z" fill="#E7E6E2"/>
<path d="M9.86623 15.0527C10.1951 15.2725 10.5818 15.3898 10.9774 15.3898C11.5078 15.3898 12.0165 15.1791 12.3916 14.804C12.7667 14.429 12.9774 13.9202 12.9774 13.3898C12.9774 12.9942 12.8601 12.6076 12.6403 12.2787C12.4205 11.9498 12.1082 11.6934 11.7427 11.5421C11.3773 11.3907 10.9752 11.3511 10.5872 11.4282C10.1992 11.5054 9.84286 11.6959 9.56316 11.9756C9.28345 12.2553 9.09297 12.6117 9.0158 12.9996C8.93863 13.3876 8.97824 13.7897 9.12961 14.1552C9.28099 14.5206 9.53733 14.833 9.86623 15.0527Z" fill="#E7E6E2"/>
<path d="M15.0618 4.79915C15.0136 5.01339 14.9888 5.23388 14.9888 5.45693C14.9888 6.25257 15.3048 7.01564 15.8674 7.57825C16.2195 7.9303 16.65 8.18581 17.1179 8.32776C17.2599 8.79566 17.5154 9.2262 17.8674 9.57825C18.4301 10.1409 19.1931 10.4569 19.9888 10.4569C20.3282 10.4569 20.6616 10.3994 20.9761 10.2898C20.9778 10.3397 20.9782 10.3897 20.9774 10.4398V18.4398C20.9774 19.2355 20.6613 19.9985 20.0987 20.5611C19.5361 21.1237 18.773 21.4398 17.9774 21.4398H3.97737C3.18172 21.4398 2.41866 21.1237 1.85605 20.5611C1.29344 19.9985 0.977371 19.2355 0.977371 18.4398V10.4398C0.977371 9.64416 1.29344 8.8811 1.85605 8.31849C2.41866 7.75588 3.18172 7.43981 3.97737 7.43981H5.25737L5.57737 6.43981C5.77638 5.8437 6.15757 5.32514 6.66714 4.95732C7.17671 4.58949 7.78892 4.39099 8.41737 4.38981H13.5374C14.0745 4.38774 14.6006 4.52986 15.0618 4.79915ZM10.9774 9.38981C10.1862 9.38981 9.41289 9.62441 8.75509 10.0639C8.09729 10.5035 7.5846 11.1282 7.28185 11.8591C6.9791 12.59 6.89989 13.3942 7.05423 14.1702C7.20857 14.9461 7.58953 15.6588 8.14894 16.2182C8.70835 16.7776 9.42109 17.1586 10.197 17.313C10.9729 17.4673 11.7772 17.3881 12.5081 17.0853C13.239 16.7826 13.8637 16.2699 14.3032 15.6121C14.7428 14.9543 14.9774 14.1809 14.9774 13.3898C14.9774 12.3289 14.5559 11.3115 13.8058 10.5614C13.0557 9.81124 12.0382 9.38981 10.9774 9.38981Z" fill="#E7E6E2"/>
</svg>
