<svg width="24" height="24" viewBox="0 0 24 24" fill="none" xmlns="http://www.w3.org/2000/svg">
<path d="M12 14.5C11.6044 14.5 11.2178 14.3827 10.8889 14.1629C10.56 13.9432 10.3036 13.6308 10.1522 13.2654C10.0009 12.8999 9.96126 12.4978 10.0384 12.1098C10.1156 11.7218 10.3061 11.3655 10.5858 11.0858C10.8655 10.8061 11.2219 10.6156 11.6098 10.5384C11.9978 10.4613 12.3999 10.5009 12.7654 10.6522C13.1308 10.8036 13.4432 11.06 13.6629 11.3889C13.8827 11.7177 14 12.1044 14 12.5C14 13.0304 13.7893 13.5391 13.4142 13.9142C13.0391 14.2893 12.5304 14.5 12 14.5Z" fill="#E7E6E2"/>
<path d="M19 6.49999H17.72L17.4 5.49999C17.1926 4.91322 16.8077 4.40549 16.2989 4.04715C15.7901 3.68881 15.1824 3.49759 14.56 3.49999H9.44C8.81155 3.50117 8.19933 3.69967 7.68977 4.0675C7.1802 4.43532 6.79901 4.95388 6.6 5.54999L6.28 6.54999H5C4.20435 6.54999 3.44129 6.86606 2.87868 7.42867C2.31607 7.99128 2 8.75434 2 9.54999V17.55C2 18.3456 2.31607 19.1087 2.87868 19.6713C3.44129 20.2339 4.20435 20.55 5 20.55H19C19.7956 20.55 20.5587 20.2339 21.1213 19.6713C21.6839 19.1087 22 18.3456 22 17.55V9.54999C22.0066 9.15184 21.9339 8.75635 21.7862 8.38658C21.6384 8.01681 21.4184 7.68017 21.1392 7.39628C20.86 7.11238 20.527 6.88692 20.1597 6.73304C19.7924 6.57916 19.3982 6.49994 19 6.49999ZM9.77772 9.17411C10.4355 8.73459 11.2089 8.49999 12 8.49999C13.0609 8.49999 14.0783 8.92142 14.8284 9.67156C15.5786 10.4217 16 11.4391 16 12.5C16 13.2911 15.7654 14.0645 15.3259 14.7223C14.8864 15.3801 14.2616 15.8928 13.5307 16.1955C12.7998 16.4983 11.9956 16.5775 11.2196 16.4231C10.4437 16.2688 9.73098 15.8878 9.17157 15.3284C8.61216 14.769 8.2312 14.0563 8.07686 13.2804C7.92252 12.5044 8.00173 11.7002 8.30448 10.9693C8.60723 10.2384 9.11992 9.61364 9.77772 9.17411Z" fill="#E7E6E2"/>
</svg>
