<svg width="24" height="24" viewBox="0 0 24 24" fill="none" xmlns="http://www.w3.org/2000/svg">
<path d="M11 2.04832C9.81371 2.16537 8.65513 2.49388 7.57996 3.02098C6.20428 3.69541 5.00196 4.67693 4.0658 5.88977C3.12964 7.10261 2.48469 8.51435 2.18072 10.016C1.87675 11.5177 1.92189 13.0691 2.31266 14.5505C2.70344 16.032 3.42938 17.4038 4.43448 18.5602C5.43957 19.7165 6.69693 20.6265 8.10951 21.2198C9.52208 21.8131 11.0521 22.0739 12.5815 21.982C13.7914 21.9093 14.9753 21.6175 16.0764 21.1234L11.1429 12.5784C11.0649 12.4432 11.022 12.2973 11.0114 12.1514C11.0039 12.102 11 12.0515 11 12V2.04832Z" fill="#E7E6E2"/>
<path d="M17.8449 20.1866C19.3904 19.1027 20.6032 17.5991 21.334 15.8447C21.7147 14.9308 21.9549 13.972 22.0527 13H13.6957L17.8449 20.1866Z" fill="#E7E6E2"/>
<path d="M22.0528 11C21.9985 10.4592 21.8999 9.92109 21.7566 9.39104C21.1788 7.25238 19.9071 5.36614 18.1412 4.02842C16.6424 2.89299 14.8595 2.20728 13 2.03979V11L22.0528 11Z" fill="#E7E6E2"/>
</svg>
