<svg width="24" height="24" viewBox="0 0 24 24" fill="none" xmlns="http://www.w3.org/2000/svg">
<path fill-rule="evenodd" clip-rule="evenodd" d="M19 2H5C4.20435 2 3.44129 2.31607 2.87868 2.87868C2.31607 3.44129 2 4.20435 2 5V19C2 19.7956 2.31607 20.5587 2.87868 21.1213C3.44129 21.6839 4.20435 22 5 22H19C19.7956 22 20.5587 21.6839 21.1213 21.1213C21.6839 20.5587 22 19.7956 22 19V5C22 4.20435 21.6839 3.44129 21.1213 2.87868C20.5587 2.31607 19.7956 2 19 2ZM14.9969 8.7904L10.7069 13.0904L9.05688 11.4404C8.96723 11.3357 8.85691 11.2507 8.73285 11.1907C8.60878 11.1306 8.47365 11.0969 8.33593 11.0916C8.19821 11.0863 8.06088 11.1095 7.93255 11.1598C7.80423 11.21 7.68768 11.2863 7.59023 11.3837C7.49277 11.4812 7.41651 11.5977 7.36624 11.7261C7.31596 11.8544 7.29276 11.9917 7.29808 12.1294C7.3034 12.2672 7.33713 12.4023 7.39715 12.5264C7.45717 12.6504 7.54219 12.7607 7.64688 12.8504L9.99688 15.2104C10.0903 15.3031 10.2011 15.3764 10.323 15.4262C10.4448 15.4759 10.5753 15.5012 10.7069 15.5004C10.9692 15.4993 11.2206 15.3951 11.4069 15.2104L16.4069 10.2104C16.5006 10.1174 16.575 10.0068 16.6258 9.88497C16.6765 9.76311 16.7027 9.63241 16.7027 9.5004C16.7027 9.36838 16.6765 9.23768 16.6258 9.11582C16.575 8.99396 16.5006 8.88336 16.4069 8.7904C16.2195 8.60415 15.9661 8.4996 15.7019 8.4996C15.4377 8.4996 15.1842 8.60415 14.9969 8.7904Z" fill="#E7E6E2"/>
</svg>
