<svg width="24" height="24" viewBox="0 0 24 24" fill="none" xmlns="http://www.w3.org/2000/svg">
<path d="M12 2C10.0222 2 8.08879 2.58649 6.4443 3.6853C4.79981 4.78412 3.51809 6.3459 2.76121 8.17317C2.00433 10.0004 1.8063 12.0111 2.19215 13.9509C2.578 15.8907 3.53041 17.6725 4.92894 19.0711C6.32746 20.4696 8.10929 21.422 10.0491 21.8079C11.9889 22.1937 13.9996 21.9957 15.8268 21.2388C17.6541 20.4819 19.2159 19.2002 20.3147 17.5557C21.4135 15.9112 22 13.9778 22 12C22 10.6868 21.7413 9.38642 21.2388 8.17317C20.7363 6.95991 19.9997 5.85752 19.0711 4.92893C18.1425 4.00035 17.0401 3.26375 15.8268 2.7612C14.6136 2.25866 13.3132 2 12 2ZM13 11.42L15.1 12.63H15.08C15.2726 12.7392 15.4236 12.9092 15.5092 13.1134C15.5948 13.3176 15.6103 13.5444 15.5531 13.7583C15.4959 13.9722 15.3693 14.1611 15.1932 14.2953C15.0171 14.4296 14.8014 14.5015 14.58 14.5C14.4048 14.5012 14.2324 14.4564 14.08 14.37L11.48 12.87L11.39 12.78L11.23 12.65C11.1909 12.6005 11.1574 12.5468 11.13 12.49C11.0974 12.4363 11.0706 12.3793 11.05 12.32C11.0228 12.2564 11.0059 12.1889 11 12.12V7C11 6.73478 11.1054 6.48043 11.2929 6.29289C11.4804 6.10536 11.7348 6 12 6C12.2652 6 12.5196 6.10536 12.7071 6.29289C12.8946 6.48043 13 6.73478 13 7V11.42Z" fill="#E7E6E2"/>
</svg>
