<svg width="24" height="24" viewBox="0 0 24 24" fill="none" xmlns="http://www.w3.org/2000/svg">
<path d="M18.4284 6.20454C17.8167 4.80035 16.7614 3.63554 15.4242 2.8887C14.087 2.14186 12.5417 1.85421 11.0253 2.06986C9.50893 2.28552 8.10514 2.99256 7.02915 4.0826C5.95317 5.17263 5.2644 6.58549 5.06844 8.10454C4.11502 8.33286 3.27866 8.90337 2.71817 9.70773C2.15769 10.5121 1.91212 11.4943 2.0281 12.4678C2.14408 13.4412 2.61353 14.3382 3.3473 14.9884C4.08107 15.6386 5.02806 15.9966 6.00844 15.9945H6.76339C6.79975 15.954 6.83725 15.9144 6.87585 15.8758C7.1548 15.5968 7.48596 15.3756 7.85045 15.2246C8.21493 15.0736 8.60557 14.9959 9.00006 14.9959V13C9.00006 12.2043 9.31613 11.4413 9.87874 10.8787C10.4414 10.3161 11.2044 10 12.0001 10C12.7957 10 13.5588 10.3161 14.1214 10.8787C14.684 11.4413 15.0001 12.2043 15.0001 13V14.9959C15.7968 14.9959 16.5609 15.3124 17.1243 15.8758C17.1611 15.9127 17.197 15.9504 17.2317 15.9889C18.3509 15.9358 19.4223 15.508 20.2718 14.7708C21.1776 13.9847 21.7707 12.8992 21.9429 11.7123C22.115 10.5253 21.8548 9.31606 21.2097 8.305C20.5645 7.29394 19.5774 6.54846 18.4284 6.20454Z" fill="#E7E6E2"/>
<path d="M11.293 12.2929C11.1054 12.4804 11.0001 12.7348 11.0001 13V18.59L9.71006 17.29C9.61683 17.1968 9.50613 17.1228 9.38431 17.0723C9.26249 17.0219 9.13192 16.9959 9.00006 16.9959C8.8682 16.9959 8.73764 17.0219 8.61581 17.0723C8.49399 17.1228 8.3833 17.1968 8.29006 17.29C8.19683 17.3832 8.12286 17.4939 8.0724 17.6158C8.02194 17.7376 7.99597 17.8681 7.99597 18C7.99597 18.1319 8.02194 18.2624 8.0724 18.3842C8.12286 18.5061 8.19683 18.6168 8.29006 18.71L11.2901 21.71C11.3852 21.801 11.4973 21.8724 11.6201 21.92C11.7398 21.9729 11.8692 22.0002 12.0001 22.0002C12.1309 22.0002 12.2604 21.9729 12.3801 21.92C12.5028 21.8724 12.615 21.801 12.7101 21.71L15.7101 18.71C15.8984 18.5217 16.0042 18.2663 16.0042 18C16.0042 17.7337 15.8984 17.4783 15.7101 17.29C15.5218 17.1017 15.2664 16.9959 15.0001 16.9959C14.7338 16.9959 14.4784 17.1017 14.2901 17.29L13.0001 18.59V13C13.0001 12.7348 12.8947 12.4804 12.7072 12.2929C12.5196 12.1054 12.2653 12 12.0001 12C11.7348 12 11.4805 12.1054 11.293 12.2929Z" fill="#E7E6E2"/>
</svg>
