<svg width="24" height="24" viewBox="0 0 24 24" fill="none" xmlns="http://www.w3.org/2000/svg">
<path d="M12 2C10.6868 2 9.38641 2.25866 8.17315 2.7612C6.9599 3.26375 5.85751 4.00035 4.92892 4.92893C3.05356 6.8043 1.99999 9.34784 1.99999 12C1.99125 14.3091 2.79078 16.5485 4.25999 18.33L2.25999 20.33C2.12123 20.4706 2.02723 20.6492 1.98986 20.8432C1.95249 21.0372 1.97341 21.2379 2.04999 21.42C2.13305 21.5999 2.26769 21.7511 2.43683 21.8544C2.60598 21.9577 2.80199 22.0083 2.99999 22H12C14.6522 22 17.1957 20.9464 19.0711 19.0711C20.9464 17.1957 22 14.6522 22 12C22 9.34784 20.9464 6.8043 19.0711 4.92893C17.1957 3.05357 14.6522 2 12 2Z" fill="#E7E6E2"/>
</svg>
