<svg width="24" height="24" viewBox="0 0 24 24" fill="none" xmlns="http://www.w3.org/2000/svg">
<path d="M19 2H5C4.20435 2 3.44129 2.31607 2.87868 2.87868C2.31607 3.44129 2 4.20435 2 5V15C2 15.7956 2.31607 16.5587 2.87868 17.1213C3.44129 17.6839 4.20435 18 5 18H16.59L20.29 21.71C20.3834 21.8027 20.4943 21.876 20.6161 21.9258C20.7379 21.9755 20.8684 22.0008 21 22C21.1312 22.0034 21.2613 21.976 21.38 21.92C21.5626 21.845 21.7189 21.7176 21.8293 21.5539C21.9396 21.3901 21.999 21.1974 22 21V5C22 4.20435 21.6839 3.44129 21.1213 2.87868C20.5587 2.31607 19.7956 2 19 2ZM11.2929 9.29289C11.4804 9.10536 11.7348 9 12 9C12.2652 9 12.5196 9.10536 12.7071 9.29289C12.8946 9.48043 13 9.73478 13 10V13C13 13.2652 12.8946 13.5196 12.7071 13.7071C12.5196 13.8946 12.2652 14 12 14C11.7348 14 11.4804 13.8946 11.2929 13.7071C11.1054 13.5196 11 13.2652 11 13V10C11 9.73478 11.1054 9.48043 11.2929 9.29289ZM11.4444 6.16853C11.6089 6.05865 11.8022 6 12 6C12.2652 6 12.5196 6.10536 12.7071 6.29289C12.8946 6.48043 13 6.73478 13 7C13 7.19778 12.9414 7.39112 12.8315 7.55557C12.7216 7.72002 12.5654 7.84819 12.3827 7.92388C12.2 7.99957 11.9989 8.01937 11.8049 7.98079C11.6109 7.9422 11.4327 7.84696 11.2929 7.70711C11.153 7.56725 11.0578 7.38907 11.0192 7.19509C10.9806 7.00111 11.0004 6.80004 11.0761 6.61732C11.1518 6.43459 11.28 6.27841 11.4444 6.16853Z" fill="#E7E6E2"/>
</svg>
