<svg width="24" height="24" viewBox="0 0 24 24" fill="none" xmlns="http://www.w3.org/2000/svg">
<path d="M21.7099 20.2899L3.70994 2.28994C3.52164 2.10164 3.26624 1.99585 2.99994 1.99585C2.73364 1.99585 2.47824 2.10164 2.28994 2.28994C2.10164 2.47824 1.99585 2.73364 1.99585 2.99994C1.99585 3.26624 2.10164 3.52164 2.28994 3.70994L4.99994 6.37994C3.72442 7.97539 3.02956 9.95729 3.02956 11.9999C3.02956 14.0426 3.72442 16.0245 4.99994 17.6199L3.28994 19.2899C3.15118 19.4306 3.05719 19.6091 3.01981 19.8031C2.98244 19.9971 3.00336 20.1978 3.07994 20.3799C3.15496 20.5626 3.28236 20.7189 3.44608 20.8292C3.6098 20.9396 3.80252 20.999 3.99994 20.9999H11.9999C14.0462 20.9915 16.0284 20.2861 17.6199 18.9999L20.2899 21.6799C20.3829 21.7737 20.4935 21.8481 20.6154 21.8988C20.7372 21.9496 20.8679 21.9757 20.9999 21.9757C21.132 21.9757 21.2627 21.9496 21.3845 21.8988C21.5064 21.8481 21.617 21.7737 21.7099 21.6799C21.8902 21.4935 21.9909 21.2443 21.9909 20.9849C21.9909 20.7256 21.8902 20.4764 21.7099 20.2899Z" fill="#E7E6E2"/>
<path d="M19.1207 14.8652C19.2245 14.9459 19.3432 15.0052 19.4699 15.0399C19.5563 15.0498 19.6436 15.0498 19.7299 15.0399C19.9557 15.0477 20.1774 14.9787 20.359 14.8444C20.5406 14.71 20.6713 14.5181 20.7299 14.2999C20.9196 13.5483 21.0104 12.7751 20.9999 11.9999C20.9999 9.61299 20.0517 7.32381 18.3639 5.63598C16.6761 3.94815 14.3869 2.99994 11.9999 2.99994C11.2134 2.99667 10.43 3.09754 9.66994 3.29994C9.41944 3.37638 9.20892 3.54805 9.08363 3.77805C8.95835 4.00805 8.9283 4.27802 8.99994 4.52994C9.07029 4.77722 9.19141 4.84375 9.45476 5.11825L19.1207 14.8652Z" fill="#E7E6E2"/>
</svg>
