<svg width="24" height="24" viewBox="0 0 24 24" fill="none" xmlns="http://www.w3.org/2000/svg">
<g clip-path="url(#clip0_469_12563)">
<path d="M12.014 3.99915C10.7008 3.99915 9.40045 4.2578 8.18719 4.76035C6.97394 5.2629 5.87154 5.99949 4.94296 6.92808C3.06759 8.80344 2.01403 11.347 2.01403 13.9991C2.00528 16.3083 2.80482 18.5477 4.27403 20.3291L2.27403 22.3291C2.13527 22.4698 2.04127 22.6483 2.0039 22.8423C1.96652 23.0363 1.98745 23.237 2.06403 23.4191C2.14708 23.5991 2.28173 23.7503 2.45087 23.8535C2.62002 23.9568 2.81603 24.0075 3.01403 23.9991H12.014C14.6662 23.9991 17.2097 22.9456 19.0851 21.0702C20.9605 19.1948 22.014 16.6513 22.014 13.9991C22.014 11.347 20.9605 8.80344 19.0851 6.92808C17.2097 5.05271 14.6662 3.99915 12.014 3.99915ZM11.3069 13.292C11.4945 13.1045 11.7488 12.9991 12.014 12.9991C12.2792 12.9991 12.5336 13.1045 12.7211 13.292C12.9087 13.4796 13.014 13.7339 13.014 13.9991V16.9991C13.014 17.2644 12.9087 17.5187 12.7211 17.7063C12.5336 17.8938 12.2792 17.9991 12.014 17.9991C11.7488 17.9991 11.4945 17.8938 11.3069 17.7063C11.1194 17.5187 11.014 17.2644 11.014 16.9991V13.9991C11.014 13.7339 11.1194 13.4796 11.3069 13.292ZM11.4585 10.1677C11.6229 10.0578 11.8162 9.99915 12.014 9.99915C12.2792 9.99915 12.5336 10.1045 12.7211 10.292C12.9087 10.4796 13.014 10.7339 13.014 10.9991C13.014 11.1969 12.9554 11.3903 12.8455 11.5547C12.7356 11.7192 12.5794 11.8473 12.3967 11.923C12.214 11.9987 12.0129 12.0185 11.8189 11.9799C11.625 11.9413 11.4468 11.8461 11.3069 11.7063C11.1671 11.5664 11.0718 11.3882 11.0332 11.1942C10.9947 11.0003 11.0145 10.7992 11.0901 10.6165C11.1658 10.4337 11.294 10.2776 11.4585 10.1677Z" fill="#E7E6E2"/>
</g>
<defs>
<clipPath id="clip0_469_12563">
<rect width="24" height="24" fill="white"/>
</clipPath>
</defs>
</svg>
