<svg width="24" height="24" viewBox="0 0 24 24" fill="none" xmlns="http://www.w3.org/2000/svg">
<path d="M18.9999 2H4.99988C4.20423 2 3.44117 2.31607 2.87856 2.87868C2.31595 3.44129 1.99988 4.20435 1.99988 5V15C1.99988 15.7956 2.31595 16.5587 2.87856 17.1213C3.44117 17.6839 4.20423 18 4.99988 18H16.5899L20.2899 21.71C20.3833 21.8027 20.4941 21.876 20.616 21.9258C20.7378 21.9755 20.8683 22.0008 20.9999 22C21.1311 22.0034 21.2612 21.976 21.3799 21.92C21.5625 21.845 21.7188 21.7176 21.8292 21.5539C21.9395 21.3901 21.9989 21.1974 21.9999 21V5C21.9999 4.20435 21.6838 3.44129 21.1212 2.87868C20.5586 2.31607 19.7955 2 18.9999 2ZM11.4443 9.16853C11.6088 9.05865 11.8021 9 11.9999 9C12.2651 9 12.5194 9.10536 12.707 9.29289C12.8945 9.48043 12.9999 9.73478 12.9999 10C12.9999 10.1978 12.9412 10.3911 12.8313 10.5556C12.7215 10.72 12.5653 10.8482 12.3826 10.9239C12.1998 10.9996 11.9988 11.0194 11.8048 10.9808C11.6108 10.9422 11.4326 10.847 11.2928 10.7071C11.1529 10.5673 11.0577 10.3891 11.0191 10.1951C10.9805 10.0011 11.0003 9.80004 11.076 9.61732C11.1517 9.43459 11.2799 9.27841 11.4443 9.16853ZM7.44431 9.16853C7.60876 9.05865 7.8021 9 7.99988 9C8.26509 9 8.51945 9.10536 8.70698 9.29289C8.89452 9.48043 8.99988 9.73478 8.99988 10C8.99988 10.1978 8.94123 10.3911 8.83135 10.5556C8.72147 10.72 8.56529 10.8482 8.38256 10.9239C8.19984 10.9996 7.99877 11.0194 7.80479 10.9808C7.61081 10.9422 7.43262 10.847 7.29277 10.7071C7.15292 10.5673 7.05768 10.3891 7.01909 10.1951C6.98051 10.0011 7.00031 9.80004 7.076 9.61732C7.15169 9.43459 7.27986 9.27841 7.44431 9.16853ZM15.4443 9.16853C15.6088 9.05865 15.8021 9 15.9999 9C16.2651 9 16.5194 9.10536 16.707 9.29289C16.8945 9.48043 16.9999 9.73478 16.9999 10C16.9999 10.1978 16.9412 10.3911 16.8313 10.5556C16.7215 10.72 16.5653 10.8482 16.3826 10.9239C16.1998 10.9996 15.9988 11.0194 15.8048 10.9808C15.6108 10.9422 15.4326 10.847 15.2928 10.7071C15.1529 10.5673 15.0577 10.3891 15.0191 10.1951C14.9805 10.0011 15.0003 9.80004 15.076 9.61732C15.1517 9.43459 15.2799 9.27841 15.4443 9.16853Z" fill="#E7E6E2"/>
</svg>
