<svg width="24" height="24" viewBox="0 0 24 24" fill="none" xmlns="http://www.w3.org/2000/svg">
<path d="M21.8685 16.3515C21.6668 17.3799 21.2367 18.35 20.61 19.1901L21.71 20.2901C21.8007 20.382 21.8723 20.4902 21.9215 20.6083C21.9596 20.7072 21.9759 20.787 21.9893 20.8591C22.013 21.0355 21.9892 21.2154 21.92 21.3801C21.845 21.5627 21.7176 21.719 21.5539 21.8293C21.4451 21.9026 21.3235 21.9535 21.1963 21.9796H14.9898C13.1441 21.9796 11.3738 21.2496 10.0646 19.9496C9.50088 19.3858 9.03491 18.7272 8.68999 18.0001H8.68141C8.237 17.0687 8 16.0415 8 14.9898C8 13.136 8.73642 11.3581 10.0473 10.0473C11.3581 8.73642 13.136 8 14.9898 8C15.9077 8 16.8166 8.1808 17.6647 8.53207C18.5127 8.88334 19.2833 9.3982 19.9323 10.0473C21.2432 11.3581 21.9796 13.136 21.9796 14.9898C21.9807 15.2833 21.9712 15.5678 21.9487 15.8443C21.9282 16.014 21.9015 16.1832 21.8685 16.3515Z" fill="#E7E6E2"/>
<path d="M17.055 6.24044C16.3798 6.08106 15.6868 6 14.9898 6C12.6056 6 10.319 6.94714 8.63305 8.63305C6.94713 10.319 6 12.6056 6 14.9898C6 16.0254 6.17868 17.0425 6.51897 18.0001H2.99999C2.80257 17.9991 2.60985 17.9397 2.44613 17.8293C2.28241 17.719 2.15501 17.5627 2.07999 17.3801C2.00341 17.1979 1.98249 16.9972 2.01986 16.8032C2.05724 16.6093 2.15123 16.4307 2.28999 16.2901L3.67999 14.9101C2.93223 13.9513 2.41283 12.8348 2.16127 11.6452C1.9097 10.4557 1.93259 9.22443 2.22818 8.04505C2.52378 6.86567 3.08431 5.76918 3.86719 4.83891C4.65006 3.90863 5.63468 3.16903 6.74623 2.67631C7.85778 2.1836 9.06701 1.95073 10.282 1.99539C11.4971 2.04006 12.686 2.36108 13.7583 2.93408C14.8307 3.50708 15.7584 4.31698 16.4708 5.30222C16.6876 5.60194 16.8826 5.91549 17.055 6.24044Z" fill="#E7E6E2"/>
</svg>
