<svg width="24" height="24" viewBox="0 0 24 24" fill="none" xmlns="http://www.w3.org/2000/svg">
<path d="M11 8C10.2044 8 9.44129 8.31607 8.87868 8.87868C8.31607 9.44129 8 10.2044 8 11V16.33C8 17.1256 8.31607 17.8887 8.87868 18.4513C9.44129 19.0139 10.2044 19.33 11 19.33H17.92L20.29 21.71C20.3834 21.8027 20.4943 21.876 20.6161 21.9258C20.7379 21.9755 20.8684 22.0008 21 22C21.1148 22.003 21.2288 21.9824 21.335 21.9396C21.3502 21.9335 21.3652 21.927 21.38 21.92C21.5398 21.8544 21.6795 21.7486 21.7858 21.6135C21.801 21.5942 21.8155 21.5743 21.8293 21.5539C21.9396 21.3901 21.999 21.1974 22 21V11C22 10.2044 21.6839 9.44129 21.1213 8.87868C20.5587 8.31607 19.7956 8 19 8H11Z" fill="#E7E6E2"/>
<path d="M6 15.4119V11C6 9.67392 6.52678 8.40215 7.46447 7.46447C8.40215 6.52678 9.67392 6 11 6H18V5C18 4.20435 17.6839 3.44129 17.1213 2.87868C16.5587 2.31607 15.7956 2 15 2H5C4.20435 2 3.44129 2.31607 2.87868 2.87868C2.31607 3.44129 2 4.20435 2 5V17C2.00099 17.1974 2.06039 17.3901 2.17072 17.5539C2.28105 17.7176 2.43738 17.845 2.62 17.92C2.73868 17.976 2.86882 18.0034 3 18C3.13161 18.0008 3.26207 17.9755 3.38391 17.9258C3.50574 17.876 3.61656 17.8027 3.71 17.71L6 15.4119Z" fill="#E7E6E2"/>
</svg>
