<svg width="24" height="24" viewBox="0 0 24 24" fill="none" xmlns="http://www.w3.org/2000/svg">
<path d="M12.6499 12.6499L10.3699 13.6499L11.3699 11.3699L13.6499 10.3699L12.6499 12.6499Z" fill="#E7E6E2"/>
<path d="M11.9999 4.99993C12.5522 4.99993 12.9999 4.55221 12.9999 3.99993V2.05005C13.9701 2.14756 14.9226 2.38662 15.8268 2.76113C17.04 3.26368 18.1424 4.00028 19.071 4.92886C19.9996 5.85745 20.7362 6.95984 21.2387 8.1731C21.6132 9.07724 21.8523 10.0298 21.9498 10.9999H19.9999C19.4476 10.9999 18.9999 11.4476 18.9999 11.9999C18.9999 12.5522 19.4476 12.9999 19.9999 12.9999H21.9498C21.7866 14.6244 21.2273 16.1897 20.3146 17.5556C19.2158 19.2001 17.654 20.4818 15.8268 21.2387C14.9193 21.6146 13.9667 21.8526 12.9999 21.9498V19.9999C12.9999 19.4476 12.5522 18.9999 11.9999 18.9999C11.4476 18.9999 10.9999 19.4476 10.9999 19.9999V21.9498C10.6818 21.9178 10.3645 21.8705 10.049 21.8078C8.10922 21.4219 6.32739 20.4695 4.92886 19.071C3.53034 17.6725 2.57793 15.8906 2.19208 13.9508C2.12933 13.6354 2.08202 13.318 2.05005 12.9999H3.99993C4.55221 12.9999 4.99993 12.5522 4.99993 11.9999C4.99993 11.4476 4.55221 10.9999 3.99993 10.9999H2.05006C2.14722 10.0332 2.38527 9.08052 2.76113 8.1731C3.51801 6.34583 4.79974 4.78405 6.44423 3.68523C7.81017 2.77254 9.37544 2.21331 10.9999 2.05005V3.99993C10.9999 4.55221 11.4476 4.99993 11.9999 4.99993ZM9.61993 10.1899L7.49993 15.1899C7.42117 15.3733 7.39909 15.5761 7.43651 15.7721C7.47393 15.9681 7.56916 16.1485 7.70993 16.2899C7.89456 16.4783 8.14616 16.5862 8.40993 16.5899C8.5483 16.5901 8.68495 16.5593 8.80993 16.4999L13.8099 14.3799C14.043 14.2789 14.2289 14.093 14.3299 13.8599L16.4499 8.85993C16.5272 8.67669 16.5481 8.47456 16.5099 8.27939C16.4717 8.08422 16.3762 7.90486 16.2356 7.76423C16.095 7.62361 15.9156 7.52811 15.7205 7.48994C15.5253 7.45176 15.3232 7.47265 15.1399 7.54993L10.1399 9.66993C9.90684 9.77092 9.72092 9.95684 9.61993 10.1899Z" fill="#E7E6E2"/>
</svg>
