<svg width="24" height="24" viewBox="0 0 24 24" fill="none" xmlns="http://www.w3.org/2000/svg">
<path d="M2 5.96436C2 4.3075 3.34315 2.96436 5 2.96436H19C20.6569 2.96436 22 4.3075 22 5.96436V6.99194H2V5.96436Z" fill="#E7E6E2"/>
<path d="M2 8.99194H22V13.6167C21.7086 12.9978 21.3165 12.4263 20.8352 11.9272C19.868 10.9241 18.5956 10.2699 17.217 10.0671C15.8384 9.86428 14.4314 10.1242 13.2163 10.8063C12.0012 11.4883 11.0465 12.554 10.5016 13.8365C9.95675 15.119 9.85243 16.5459 10.205 17.894C10.2143 17.9295 10.2238 17.9648 10.2337 18H5C3.34315 18 2 16.6569 2 15V8.99194ZM6 10.9946C5.44772 10.9946 5 11.4423 5 11.9946C5 12.5469 5.44772 12.9946 6 12.9946H9C9.55228 12.9946 10 12.5469 10 11.9946C10 11.4423 9.55228 10.9946 9 10.9946H6Z" fill="#E7E6E2"/>
<path d="M20.5742 15.8296C20.6782 16.775 20.4659 17.7282 19.9705 18.54L21.6805 20.28C21.7742 20.373 21.8486 20.4836 21.8994 20.6054C21.9501 20.7273 21.9763 20.858 21.9763 20.99C21.9763 21.122 21.9501 21.2527 21.8994 21.3746C21.8486 21.4964 21.7742 21.607 21.6805 21.7C21.5875 21.7937 21.4769 21.8681 21.3551 21.9189C21.2332 21.9697 21.1025 21.9958 20.9705 21.9958C20.8385 21.9958 20.7078 21.9697 20.5859 21.9189C20.464 21.8681 20.3534 21.7937 20.2605 21.7L18.5405 19.97C17.8645 20.3786 17.0904 20.5963 16.3005 20.6C15.3494 20.6001 14.4251 20.2849 13.6723 19.7037C12.9195 19.1225 12.3806 18.3081 12.1399 17.388C11.8993 16.4678 11.9705 15.4939 12.3424 14.6185C12.7143 13.7432 13.3659 13.0158 14.1953 12.5503C15.0246 12.0848 15.9849 11.9074 16.9259 12.0458C17.8668 12.1842 18.7353 12.6307 19.3955 13.3154C20.0556 14 20.4702 14.8842 20.5742 15.8296ZM16.3355 18.6243C16.9443 18.6243 17.5297 18.39 17.9705 17.97C18.4022 17.5354 18.6445 16.9476 18.6445 16.335C18.6445 15.7224 18.4022 15.1346 17.9705 14.7C17.7559 14.485 17.5011 14.3145 17.2205 14.1981C16.94 14.0817 16.6392 14.0218 16.3355 14.0218C16.0317 14.0218 15.731 14.0817 15.4504 14.1981C15.1699 14.3145 14.915 14.485 14.7005 14.7C14.2687 15.1346 14.0264 15.7224 14.0264 16.335C14.0264 16.9476 14.2687 17.5354 14.7005 17.97C15.1412 18.39 15.7267 18.6243 16.3355 18.6243Z" fill="#E7E6E2"/>
</svg>
