<svg width="24" height="24" viewBox="0 0 24 24" fill="none" xmlns="http://www.w3.org/2000/svg">
<path d="M4 6C4 3.37 8 2 12 2C16 2 20 3.37 20 6V10.5284C19.9812 11.1817 19.4146 12.0306 17.9175 12.7782C16.4548 13.5086 14.364 13.9893 12 13.9893C9.63597 13.9893 7.5452 13.5086 6.08243 12.7782C4.58621 12.031 4.01942 11.1826 4 10.5294V6ZM6 6C6 6.71 8.28 8 12 8C15.72 8 18 6.71 18 6C18 5.29 15.72 4 12 4C8.28 4 6 5.29 6 6ZM7.44443 10.6685C7.27998 10.7784 7.15181 10.9346 7.07612 11.1173C7.00043 11.3 6.98063 11.5011 7.01921 11.6951C7.0578 11.8891 7.15304 12.0673 7.29289 12.2071C7.43275 12.347 7.61093 12.4422 7.80491 12.4808C7.99889 12.5194 8.19996 12.4996 8.38268 12.4239C8.56541 12.3482 8.72159 12.22 8.83147 12.0556C8.94135 11.8911 9 11.6978 9 11.5C9 11.2348 8.89464 10.9804 8.70711 10.7929C8.51957 10.6054 8.26522 10.5 8 10.5C7.80222 10.5 7.60888 10.5586 7.44443 10.6685Z" fill="#E7E6E2"/>
<path d="M4 13.8524V18C4 20.63 8 22 12 22C16 22 20 20.63 20 18V13.8523C19.6309 14.12 19.2291 14.3587 18.8111 14.5675C17.0163 15.4637 14.6068 15.9893 12 15.9893C9.39315 15.9893 6.98368 15.4637 5.1889 14.5675C4.77087 14.3587 4.36909 14.12 4 13.8524ZM8 16.5C8.26522 16.5 8.51957 16.6054 8.70711 16.7929C8.89464 16.9804 9 17.2348 9 17.5C9 17.6978 8.94135 17.8911 8.83147 18.0556C8.72159 18.22 8.56541 18.3482 8.38268 18.4239C8.19996 18.4996 7.99889 18.5194 7.80491 18.4808C7.61093 18.4422 7.43275 18.347 7.29289 18.2071C7.15304 18.0673 7.0578 17.8891 7.01921 17.6951C6.98063 17.5011 7.00043 17.3 7.07612 17.1173C7.15181 16.9346 7.27998 16.7784 7.44443 16.6685C7.60888 16.5586 7.80222 16.5 8 16.5Z" fill="#E7E6E2"/>
</svg>
