<svg width="24" height="24" viewBox="0 0 24 24" fill="none" xmlns="http://www.w3.org/2000/svg">
<path d="M5 9.25C4.4561 9.25 3.92442 9.41129 3.47218 9.71346C3.01995 10.0156 2.66747 10.4451 2.45933 10.9476C2.25119 11.4501 2.19673 12.0031 2.30284 12.5365C2.40895 13.0699 2.67086 13.56 3.05546 13.9445C3.44005 14.3291 3.93005 14.5911 4.4635 14.6972C4.99695 14.8033 5.54988 14.7488 6.05238 14.5407C6.55488 14.3325 6.98437 13.9801 7.28654 13.5278C7.58872 13.0756 7.75 12.5439 7.75 12C7.75 11.2707 7.46027 10.5712 6.94455 10.0555C6.42882 9.53973 5.72935 9.25 5 9.25ZM12 9.25C11.4561 9.25 10.9244 9.41129 10.4722 9.71346C10.0199 10.0156 9.66747 10.4451 9.45933 10.9476C9.25119 11.4501 9.19673 12.0031 9.30284 12.5365C9.40895 13.0699 9.67086 13.56 10.0555 13.9445C10.4401 14.3291 10.9301 14.5911 11.4635 14.6972C11.997 14.8033 12.5499 14.7488 13.0524 14.5407C13.5549 14.3325 13.9844 13.9801 14.2865 13.5278C14.5887 13.0756 14.75 12.5439 14.75 12C14.75 11.2707 14.4603 10.5712 13.9445 10.0555C13.4288 9.53973 12.7293 9.25 12 9.25ZM19 7.75C19.5439 7.75 20.0756 7.58872 20.5278 7.28654C20.9801 6.98437 21.3325 6.55488 21.5407 6.05238C21.7488 5.54988 21.8033 4.99695 21.6972 4.4635C21.5911 3.93005 21.3291 3.44005 20.9445 3.05546C20.56 2.67086 20.0699 2.40895 19.5365 2.30284C19.0031 2.19673 18.4501 2.25119 17.9476 2.45933C17.4451 2.66747 17.0156 3.01995 16.7135 3.47218C16.4113 3.92442 16.25 4.4561 16.25 5C16.25 5.72935 16.5397 6.42882 17.0555 6.94455C17.5712 7.46027 18.2707 7.75 19 7.75ZM19 9.25C18.4561 9.25 17.9244 9.41129 17.4722 9.71346C17.0199 10.0156 16.6675 10.4451 16.4593 10.9476C16.2512 11.4501 16.1967 12.0031 16.3028 12.5365C16.409 13.0699 16.6709 13.56 17.0555 13.9445C17.4401 14.3291 17.9301 14.5911 18.4635 14.6972C18.997 14.8033 19.5499 14.7488 20.0524 14.5407C20.5549 14.3325 20.9844 13.9801 21.2865 13.5278C21.5887 13.0756 21.75 12.5439 21.75 12C21.75 11.2707 21.4603 10.5712 20.9445 10.0555C20.4288 9.53973 19.7293 9.25 19 9.25ZM5 2.25C4.4561 2.25 3.92442 2.41129 3.47218 2.71346C3.01995 3.01563 2.66747 3.44513 2.45933 3.94762C2.25119 4.45012 2.19673 5.00305 2.30284 5.5365C2.40895 6.06995 2.67086 6.55995 3.05546 6.94455C3.44005 7.32914 3.93005 7.59105 4.4635 7.69716C4.99695 7.80327 5.54988 7.74881 6.05238 7.54067C6.55488 7.33253 6.98437 6.98005 7.28654 6.52782C7.58872 6.07558 7.75 5.5439 7.75 5C7.75 4.27066 7.46027 3.57118 6.94455 3.05546C6.42882 2.53973 5.72935 2.25 5 2.25ZM12 16.25C11.4561 16.25 10.9244 16.4113 10.4722 16.7135C10.0199 17.0156 9.66747 17.4451 9.45933 17.9476C9.25119 18.4501 9.19673 19.0031 9.30284 19.5365C9.40895 20.0699 9.67086 20.56 10.0555 20.9445C10.4401 21.3291 10.9301 21.5911 11.4635 21.6972C11.997 21.8033 12.5499 21.7488 13.0524 21.5407C13.5549 21.3325 13.9844 20.9801 14.2865 20.5278C14.5887 20.0756 14.75 19.5439 14.75 19C14.75 18.2707 14.4603 17.5712 13.9445 17.0555C13.4288 16.5397 12.7293 16.25 12 16.25ZM12 2.25C11.4561 2.25 10.9244 2.41129 10.4722 2.71346C10.0199 3.01563 9.66747 3.44513 9.45933 3.94762C9.25119 4.45012 9.19673 5.00305 9.30284 5.5365C9.40895 6.06995 9.67086 6.55995 10.0555 6.94455C10.4401 7.32914 10.9301 7.59105 11.4635 7.69716C11.997 7.80327 12.5499 7.74881 13.0524 7.54067C13.5549 7.33253 13.9844 6.98005 14.2865 6.52782C14.5887 6.07558 14.75 5.5439 14.75 5C14.75 4.27066 14.4603 3.57118 13.9445 3.05546C13.4288 2.53973 12.7293 2.25 12 2.25Z" fill="#E7E6E2"/>
</svg>
