<svg width="24" height="24" viewBox="0 0 24 24" fill="none" xmlns="http://www.w3.org/2000/svg">
<path d="M20 8.94C19.9896 8.84813 19.9695 8.75763 19.94 8.67V8.58C19.8919 8.47718 19.8278 8.38266 19.75 8.3L13.75 2.3C13.6673 2.22222 13.5728 2.15808 13.47 2.11H13.38C13.2784 2.05174 13.1662 2.01434 13.05 2H7C6.20435 2 5.44129 2.31607 4.87868 2.87868C4.31607 3.44129 4 4.20435 4 5V19C4 19.7956 4.31607 20.5587 4.87868 21.1213C5.44129 21.6839 6.20435 22 7 22H17C17.7956 22 18.5587 21.6839 19.1213 21.1213C19.6839 20.5587 20 19.7956 20 19V8.94ZM16.59 8.00003H15C14.7348 8.00003 14.4804 7.89468 14.2929 7.70714C14.1054 7.5196 14 7.26525 14 7.00003V5.41003L16.59 8.00003ZM12.9966 11.9983C12.9966 12.5506 12.5489 12.9983 11.9966 12.9983C11.4444 12.9983 10.9966 12.5506 10.9966 11.9983C10.9966 11.446 11.4444 10.9983 11.9966 10.9983C12.5489 10.9983 12.9966 11.446 12.9966 11.9983ZM11.0023 15C11.0023 14.4477 11.4501 14 12.0023 14C12.5546 14 13.0023 14.4477 13.0023 15V17C13.0023 17.5523 12.5546 18 12.0023 18C11.4501 18 11.0023 17.5523 11.0023 17V15Z" fill="#E7E6E2"/>
</svg>
