<svg width="24" height="24" viewBox="0 0 24 24" fill="none" xmlns="http://www.w3.org/2000/svg">
<path d="M9.24 17.9999H5C4.73478 17.9999 4.48043 17.8946 4.29289 17.707C4.10536 17.5195 4 17.2652 4 16.9999V12.7599C3.99924 12.6283 4.02446 12.4979 4.07423 12.376C4.12399 12.2542 4.19732 12.1434 4.29 12.0499L10.5166 5.83233L16.0757 11.3915C16.1068 11.4226 16.1395 11.4513 16.1735 11.4774L9.95 17.7099C9.85656 17.8026 9.74574 17.8759 9.62391 17.9257C9.50207 17.9755 9.37161 18.0007 9.24 17.9999Z" fill="#E7E6E2"/>
<path d="M17.582 10.083L19.71 7.99994C19.8037 7.90698 19.8781 7.79637 19.9289 7.67452C19.9797 7.55266 20.0058 7.42195 20.0058 7.28994C20.0058 7.15793 19.9797 7.02722 19.9289 6.90536C19.8781 6.7835 19.8037 6.6729 19.71 6.57994L15.47 2.28994C15.377 2.19621 15.2664 2.12182 15.1446 2.07105C15.0227 2.02028 14.892 1.99414 14.76 1.99414C14.628 1.99414 14.4973 2.02028 14.3754 2.07105C14.2536 2.12182 14.143 2.19621 14.05 2.28994L11.9301 4.41739L17.4899 9.97724C17.5235 10.0108 17.5542 10.0462 17.582 10.083Z" fill="#E7E6E2"/>
<path d="M3 19.9999H21C21.2652 19.9999 21.5196 20.1053 21.7071 20.2928C21.8946 20.4804 22 20.7347 22 20.9999C22 21.2652 21.8946 21.5195 21.7071 21.707C21.5196 21.8946 21.2652 21.9999 21 21.9999H3C2.73478 21.9999 2.48043 21.8946 2.29289 21.707C2.10536 21.5195 2 21.2652 2 20.9999C2 20.7347 2.10536 20.4804 2.29289 20.2928C2.48043 20.1053 2.73478 19.9999 3 19.9999Z" fill="#E7E6E2"/>
</svg>
