<svg width="24" height="24" viewBox="0 0 24 24" fill="none" xmlns="http://www.w3.org/2000/svg">
<path d="M4.92141 10.5895C4.36616 11.1448 4.05075 11.8956 4.04288 12.6808L3.99981 16.9765C3.99173 17.7825 4.30836 18.5579 4.87834 19.1279C5.44833 19.6979 6.22371 20.0145 7.02974 20.0064L11.3255 19.9634C12.1106 19.9555 12.8615 19.6401 13.4167 19.0848L22 10.5015V19C22 20.6568 20.6569 22 19 22H5C3.34315 22 2 20.6568 2 19V4.99996C2 3.3431 3.34315 1.99996 5 1.99996H13.5109L4.92141 10.5895Z" fill="#E7E6E2"/>
<path d="M11.24 17.9999H7.00002C6.7348 17.9999 6.48045 17.8946 6.29291 17.707C6.10537 17.5195 6.00002 17.2652 6.00002 16.9999V12.7599C5.99926 12.6283 6.02448 12.4979 6.07425 12.376C6.12401 12.2542 6.19734 12.1434 6.29002 12.0499L12.5166 5.83233L18.0757 11.3915C18.1069 11.4226 18.1396 11.4513 18.1735 11.4774L11.95 17.7099C11.8566 17.8026 11.7458 17.8759 11.6239 17.9257C11.5021 17.9755 11.3716 18.0007 11.24 17.9999Z" fill="#E7E6E2"/>
<path d="M19.582 10.083L21.71 7.99994C21.8037 7.90698 21.8781 7.79637 21.9289 7.67452C21.9797 7.55266 22.0058 7.42195 22.0058 7.28994C22.0058 7.15793 21.9797 7.02722 21.9289 6.90536C21.8781 6.7835 21.8037 6.6729 21.71 6.57994L17.47 2.28994C17.3771 2.19621 17.2665 2.12182 17.1446 2.07105C17.0227 2.02028 16.892 1.99414 16.76 1.99414C16.628 1.99414 16.4973 2.02028 16.3754 2.07105C16.2536 2.12182 16.143 2.19621 16.05 2.28994L13.9301 4.41739L19.4899 9.97724C19.5235 10.0108 19.5542 10.0462 19.582 10.083Z" fill="#E7E6E2"/>
</svg>
