<svg width="24" height="24" viewBox="0 0 24 24" fill="none" xmlns="http://www.w3.org/2000/svg">
<path d="M2.26375 5.77C2.09153 6.15312 2 6.57184 2 7V17C2 17.7956 2.31607 18.5587 2.87868 19.1213C3.44129 19.6839 4.20435 20 5 20H19C19.7956 20 20.5587 19.6839 21.1213 19.1213C21.6839 18.5587 22 17.7956 22 17V7C22 6.5601 21.9034 6.13016 21.7219 5.73855L14.0985 13.362C12.9269 14.5336 11.0274 14.5336 9.85581 13.362L2.26375 5.77Z" fill="#E7E6E2"/>
<path d="M20.324 4.30799C19.9159 4.10724 19.4635 4 19 4H5C4.52494 4 4.0615 4.11268 3.64541 4.32323L11.27 11.9478C11.6605 12.3383 12.2937 12.3383 12.6842 11.9478L20.324 4.30799Z" fill="#E7E6E2"/>
</svg>
