<svg width="24" height="24" viewBox="0 0 24 24" fill="none" xmlns="http://www.w3.org/2000/svg">
<path d="M22.67 17.47L14.62 3.47003C14.3598 3.00354 13.9798 2.61498 13.5192 2.3445C13.0586 2.07401 12.5341 1.9314 12 1.9314C11.4658 1.9314 10.9414 2.07401 10.4808 2.3445C10.0202 2.61498 9.64016 3.00354 9.37997 3.47003L1.37997 17.47C1.11076 17.924 0.96611 18.441 0.960612 18.9688C0.955114 19.4966 1.08897 20.0166 1.34865 20.4761C1.60834 20.9356 1.98467 21.3185 2.43965 21.5861C2.89463 21.8536 3.41215 21.9964 3.93997 22H20.06C20.592 22.0053 21.1159 21.8689 21.5779 21.6049C22.0399 21.341 22.4233 20.9589 22.6889 20.4978C22.9546 20.0368 23.0928 19.5134 23.0895 18.9814C23.0861 18.4493 22.9414 17.9277 22.67 17.47ZM11.4444 16.1686C11.6088 16.0587 11.8022 16 12 16C12.2652 16 12.5195 16.1054 12.7071 16.2929C12.8946 16.4805 13 16.7348 13 17C13 17.1978 12.9413 17.3911 12.8314 17.5556C12.7216 17.72 12.5654 17.8482 12.3827 17.9239C12.1999 17.9996 11.9989 18.0194 11.8049 17.9808C11.6109 17.9422 11.4327 17.847 11.2929 17.7071C11.153 17.5673 11.0578 17.3891 11.0192 17.1951C10.9806 17.0011 11.0004 16.8001 11.0761 16.6173C11.1518 16.4346 11.2799 16.2784 11.4444 16.1686ZM11.2929 8.29292C11.4804 8.10538 11.7348 8.00003 12 8.00003C12.2652 8.00003 12.5195 8.10538 12.7071 8.29292C12.8946 8.48046 13 8.73481 13 9.00003V13C13 13.2652 12.8946 13.5196 12.7071 13.7071C12.5195 13.8947 12.2652 14 12 14C11.7348 14 11.4804 13.8947 11.2929 13.7071C11.1053 13.5196 11 13.2652 11 13V9.00003C11 8.73481 11.1053 8.48046 11.2929 8.29292Z" fill="#E7E6E2"/>
</svg>
