<svg width="24" height="24" viewBox="0 0 24 24" fill="none" xmlns="http://www.w3.org/2000/svg">
<path d="M21.9199 11.6C19.8999 6.91 16.0999 4 11.9999 4C7.89994 4 4.09994 6.91 2.07994 11.6C2.02488 11.7262 1.99646 11.8623 1.99646 12C1.99646 12.1377 2.02488 12.2738 2.07994 12.4C4.09994 17.09 7.89994 20 11.9999 20C16.0999 20 19.8999 17.09 21.9199 12.4C21.975 12.2738 22.0034 12.1377 22.0034 12C22.0034 11.8623 21.975 11.7262 21.9199 11.6ZM9.77766 8.67412C10.4355 8.2346 11.2088 8 11.9999 8C13.0608 8 14.0782 8.42143 14.8284 9.17157C15.5785 9.92172 15.9999 10.9391 15.9999 12C15.9999 12.7911 15.7653 13.5645 15.3258 14.2223C14.8863 14.8801 14.2616 15.3928 13.5307 15.6955C12.7998 15.9983 11.9955 16.0775 11.2196 15.9231C10.4437 15.7688 9.73093 15.3878 9.17152 14.8284C8.61211 14.269 8.23114 13.5563 8.0768 12.7804C7.92246 12.0044 8.00168 11.2002 8.30443 10.4693C8.60718 9.73836 9.11987 9.11365 9.77766 8.67412Z" fill="#E7E6E2"/>
<path d="M11.9999 14C11.6044 14 11.2177 13.8827 10.8888 13.6629C10.5599 13.4432 10.3036 13.1308 10.1522 12.7654C10.0008 12.3999 9.9612 11.9978 10.0384 11.6098C10.1155 11.2219 10.306 10.8655 10.5857 10.5858C10.8654 10.3061 11.2218 10.1156 11.6098 10.0384C11.9977 9.96126 12.3999 10.0009 12.7653 10.1522C13.1308 10.3036 13.4431 10.56 13.6629 10.8889C13.8826 11.2178 13.9999 11.6044 13.9999 12C13.9999 12.5304 13.7892 13.0391 13.4142 13.4142C13.0391 13.7893 12.5304 14 11.9999 14Z" fill="#E7E6E2"/>
</svg>
