<svg width="24" height="24" viewBox="0 0 24 24" fill="none" xmlns="http://www.w3.org/2000/svg">
<path d="M20 8.94V19C20 19.7956 19.6839 20.5587 19.1213 21.1213C18.5587 21.6839 17.7956 22 17 22H7C6.20435 22 5.44129 21.6839 4.87868 21.1213C4.31607 20.5587 4 19.7956 4 19V5C4 4.20435 4.31607 3.44129 4.87868 2.87868C5.44129 2.31607 6.20435 2 7 2H13.05C13.1662 2.01434 13.2784 2.05174 13.38 2.11H13.47C13.5728 2.15808 13.6673 2.22222 13.75 2.3L19.75 8.3C19.8278 8.38266 19.8919 8.47718 19.94 8.58V8.67C19.9695 8.75763 19.9896 8.84813 20 8.94ZM14 5.41003V7.00003C14 7.26525 14.1054 7.5196 14.2929 7.70714C14.4804 7.89468 14.7348 8.00003 15 8.00003H16.59L14 5.41003ZM10.3689 10.4014C9.91246 10.6648 9.53344 11.0437 9.26998 11.5C9.19762 11.6138 9.14904 11.7411 9.12715 11.8742C9.10526 12.0073 9.11052 12.1434 9.1426 12.2744C9.17469 12.4054 9.23294 12.5285 9.31386 12.6364C9.39478 12.7443 9.49668 12.8348 9.61345 12.9022C9.73021 12.9697 9.85942 13.0129 9.99331 13.0292C10.1272 13.0454 10.263 13.0345 10.3925 12.9969C10.522 12.9593 10.6426 12.8959 10.747 12.8105C10.8514 12.7251 10.9375 12.6195 11 12.5C11.0881 12.3474 11.2149 12.2208 11.3677 12.133C11.5205 12.0452 11.6938 11.9993 11.87 12C12.1352 12 12.3895 12.1054 12.5771 12.2929C12.7646 12.4804 12.87 12.7348 12.87 13C12.87 13.2652 12.7646 13.5196 12.5771 13.7071C12.3895 13.8946 12.1352 14 11.87 14C11.6048 14 11.3504 14.1054 11.1629 14.2929C10.9753 14.4804 10.87 14.7348 10.87 15C10.87 15.2652 10.9753 15.5196 11.1629 15.7071C11.3504 15.8946 11.6048 16 11.87 16C12.6656 16 13.4287 15.6839 13.9913 15.1213C14.5539 14.5587 14.87 13.7957 14.87 13C14.87 12.2044 14.5539 11.4413 13.9913 10.8787C13.4287 10.3161 12.6656 10 11.87 10C11.343 9.99966 10.8253 10.1381 10.3689 10.4014ZM12.57 17.29C12.3826 17.1038 12.1292 16.9992 11.865 16.9992C11.6008 16.9992 11.3473 17.1038 11.16 17.29C11.0665 17.3852 10.9919 17.4971 10.94 17.62C10.847 17.8648 10.847 18.1352 10.94 18.38C10.9943 18.5015 11.0687 18.6131 11.16 18.71C11.2521 18.8 11.3608 18.8713 11.48 18.92C11.6033 18.9725 11.7359 18.9997 11.87 19C12.0338 18.9992 12.1948 18.9582 12.339 18.8805C12.4833 18.8029 12.6062 18.691 12.697 18.5547C12.7879 18.4184 12.8439 18.2619 12.8601 18.0989C12.8763 17.936 12.8522 17.7715 12.79 17.62C12.7418 17.4952 12.6667 17.3825 12.57 17.29Z" fill="#E7E6E2"/>
</svg>
