<svg width="24" height="24" viewBox="0 0 24 24" fill="none" xmlns="http://www.w3.org/2000/svg">
<path d="M19.4456 8.67C19.4751 8.75763 19.4952 8.84813 19.5056 8.94V11.99L17.0042 11.9864C16.3347 11.9854 15.6884 12.2083 15.1648 12.6131L13.7578 11.0165C13.2123 10.3975 12.436 10.0305 11.6114 10.0018C10.7869 9.97312 9.98697 10.2852 9.39977 10.8648L8.25324 11.9963L7.51035 11.9908C5.85354 11.9784 4.50042 13.3115 4.48806 14.9683C4.4757 16.6251 5.8088 17.9782 7.4656 17.9906L9.45263 18.0054C10.1424 18.0106 10.8094 17.778 11.3439 17.3522L12.7792 18.9808C13.3305 19.6063 14.1172 19.9742 14.9508 19.9962C15.7843 20.0182 16.5893 19.6923 17.1729 19.0967L18.2588 17.9882L19.4961 17.99L19.5056 17.99V19C19.5056 19.7956 19.1895 20.5587 18.6269 21.1213C18.0643 21.6839 17.3013 22 16.5056 22H6.50562C5.70997 22 4.9469 21.6839 4.38429 21.1213C3.82169 20.5587 3.50562 19.7956 3.50562 19V5C3.50562 4.20435 3.82169 3.44129 4.38429 2.87868C4.9469 2.31607 5.70997 2 6.50562 2H12.5556C12.6718 2.01434 12.784 2.05174 12.8856 2.11H12.9756C13.0784 2.15808 13.173 2.22222 13.2556 2.3L19.2556 8.3C19.3334 8.38266 19.3975 8.47718 19.4456 8.58V8.67ZM16.0956 8.00003L13.5056 5.41003V7.00003C13.5056 7.26525 13.611 7.5196 13.7985 7.70714C13.986 7.89468 14.2404 8.00003 14.5056 8.00003H16.0956Z" fill="#E7E6E2"/>
<path d="M16.9942 13.9997H19.4942C19.7594 13.9997 20.0138 14.1051 20.2013 14.2926C20.3888 14.4802 20.4942 14.7345 20.4942 14.9997C20.4942 15.2649 20.3888 15.5193 20.2013 15.7068C20.0138 15.8944 19.7594 15.9997 19.4942 15.9997H17.4042L15.7242 17.7097C15.6308 17.8024 15.5199 17.8757 15.3981 17.9255C15.2763 17.9753 15.1458 18.0005 15.0142 17.9997C14.8773 17.9954 14.7428 17.963 14.6189 17.9045C14.495 17.846 14.3845 17.7627 14.2942 17.6597L11.4942 14.4597L10.2042 15.7097C10.1108 15.8024 9.99995 15.8757 9.87811 15.9255C9.75627 15.9753 9.62581 16.0005 9.4942 15.9997H7.4942C7.22899 15.9997 6.97463 15.8944 6.7871 15.7068C6.59956 15.5193 6.4942 15.2649 6.4942 14.9997C6.4942 14.7345 6.59956 14.4802 6.7871 14.2926C6.97463 14.1051 7.22899 13.9997 7.4942 13.9997H9.0842L10.7842 12.2897C10.8811 12.1929 10.9969 12.1171 11.1243 12.0669C11.2518 12.0167 11.3882 11.9932 11.5251 11.9979C11.6619 12.0026 11.7964 12.0353 11.9201 12.0941C12.0438 12.1529 12.1541 12.2365 12.2442 12.3397L15.0442 15.5397L16.2842 14.2897C16.3776 14.197 16.4885 14.1237 16.6103 14.074C16.7321 14.0242 16.8626 13.999 16.9942 13.9997Z" fill="#E7E6E2"/>
</svg>
