<svg width="24" height="24" viewBox="0 0 24 24" fill="none" xmlns="http://www.w3.org/2000/svg">
<path d="M21.71 20.2899L3.71 2.28994C3.5217 2.10164 3.2663 1.99585 3 1.99585C2.7337 1.99585 2.47831 2.10164 2.29 2.28994C2.1017 2.47824 1.99591 2.73364 1.99591 2.99994C1.99591 3.26624 2.1017 3.52164 2.29 3.70994L4 5.40994V18.9999C4 19.7956 4.31607 20.5587 4.87868 21.1213C5.44129 21.6839 6.20435 21.9999 7 21.9999H17C17.464 21.9984 17.9214 21.8892 18.3361 21.681C18.7508 21.4728 19.1116 21.1712 19.39 20.7999L20.29 21.7099C20.383 21.8037 20.4936 21.8781 20.6154 21.9288C20.7373 21.9796 20.868 22.0057 21 22.0057C21.132 22.0057 21.2627 21.9796 21.3846 21.9288C21.5064 21.8781 21.617 21.8037 21.71 21.7099C21.8037 21.617 21.8781 21.5064 21.9289 21.3845C21.9797 21.2627 22.0058 21.132 22.0058 20.9999C22.0058 20.8679 21.9797 20.7372 21.9289 20.6154C21.8781 20.4935 21.8037 20.3829 21.71 20.2899Z" fill="#E7E6E2"/>
<path d="M19 14.3399C18.7348 14.3399 18.4804 14.2346 18.2929 14.047L8.69852 4.5266L7.9529 3.70705C7.76536 3.51951 7.66 3.26516 7.66 2.99994C7.66 2.73472 7.76536 2.48037 7.9529 2.29283C8.14043 2.1053 8.39479 1.99994 8.66 1.99994H13.06L13.38 2.10994H13.47C13.5728 2.15802 13.6673 2.22216 13.75 2.29994L19.75 8.29994C19.8278 8.38261 19.8919 8.47712 19.94 8.57994V8.66994C19.9695 8.75757 19.9896 8.84808 20 8.93994V13.3399C20 13.6052 19.8946 13.8595 19.7071 14.047C19.5196 14.2346 19.2652 14.3399 19 14.3399ZM14 5.40994V6.99994C14 7.26516 14.1054 7.51951 14.2929 7.70705C14.4804 7.89458 14.7348 7.99994 15 7.99994H16.59L14 5.40994Z" fill="#E7E6E2"/>
</svg>
