<svg width="24" height="24" viewBox="0 0 24 24" fill="none" xmlns="http://www.w3.org/2000/svg">
<path d="M19.94 8.67C19.9695 8.75763 19.9896 8.84813 20 8.94V19C20 19.7956 19.6839 20.5587 19.1213 21.1213C18.5587 21.6839 17.7956 22 17 22H7C6.20435 22 5.44129 21.6839 4.87868 21.1213C4.31607 20.5587 4 19.7956 4 19V5C4 4.20435 4.31607 3.44129 4.87868 2.87868C5.44129 2.31607 6.20435 2 7 2H13.05C13.1662 2.01434 13.2784 2.05174 13.38 2.11H13.47C13.5728 2.15808 13.6673 2.22222 13.75 2.3L19.75 8.3C19.8278 8.38266 19.8919 8.47718 19.94 8.58V8.67ZM16.59 8.00003L14 5.41003V7.00003C14 7.26525 14.1054 7.5196 14.2929 7.70714C14.4804 7.89468 14.7348 8.00003 15 8.00003H16.59Z" fill="#E7E6E2"/>
</svg>
