<svg width="24" height="24" viewBox="0 0 24 24" fill="none" xmlns="http://www.w3.org/2000/svg">
<path d="M20 8.94C19.9896 8.84813 19.9695 8.75763 19.94 8.67V8.58C19.8919 8.47718 19.8278 8.38267 19.75 8.3L13.75 2.3C13.6673 2.22222 13.5728 2.15808 13.47 2.11H13.37C13.2728 2.058 13.1683 2.02092 13.06 2H7C6.20435 2 5.44129 2.31607 4.87868 2.87868C4.31607 3.44129 4 4.20435 4 5V19C4 19.7956 4.31607 20.5587 4.87868 21.1213C5.44129 21.6839 6.20435 22 7 22H17C17.7956 22 18.5587 21.6839 19.1213 21.1213C19.6839 20.5587 20 19.7956 20 19V8.94ZM12.38 11.08C12.5028 11.1276 12.6149 11.199 12.71 11.29L14.71 13.29C14.8037 13.383 14.8781 13.4936 14.9289 13.6154C14.9797 13.7373 15.0058 13.868 15.0058 14C15.0058 14.132 14.9797 14.2627 14.9289 14.3846C14.8781 14.5064 14.8037 14.617 14.71 14.71C14.617 14.8037 14.5064 14.8781 14.3846 14.9289C14.2627 14.9797 14.132 15.0058 14 15.0058C13.868 15.0058 13.7373 14.9797 13.6154 14.9289C13.4936 14.8781 13.383 14.8037 13.29 14.71L13 14.41V17C13 17.2652 12.8946 17.5196 12.7071 17.7071C12.5196 17.8946 12.2652 18 12 18C11.7348 18 11.4804 17.8946 11.2929 17.7071C11.1054 17.5196 11 17.2652 11 17V14.41L10.71 14.71C10.5217 14.8983 10.2663 15.0041 10 15.0041C9.7337 15.0041 9.4783 14.8983 9.29 14.71C9.1017 14.5217 8.99591 14.2663 8.99591 14C8.99591 13.7337 9.1017 13.4783 9.29 13.29L11.29 11.29C11.3851 11.199 11.4972 11.1276 11.62 11.08C11.8635 10.98 12.1365 10.98 12.38 11.08ZM16.59 8H15C14.7348 8 14.4804 7.89464 14.2929 7.70711C14.1054 7.51957 14 7.26522 14 7V5.41L16.59 8Z" fill="#E7E6E2"/>
</svg>
