<svg width="24" height="24" viewBox="0 0 24 24" fill="none" xmlns="http://www.w3.org/2000/svg">
<path d="M19.94 8.67C19.9695 8.75763 19.9896 8.84813 20 8.94V19C20 19.7956 19.6839 20.5587 19.1213 21.1213C18.5587 21.6839 17.7956 22 17 22H7C6.20435 22 5.44129 21.6839 4.87868 21.1213C4.31607 20.5587 4 19.7956 4 19V5C4 4.20435 4.31607 3.44129 4.87868 2.87868C5.44129 2.31607 6.20435 2 7 2H13.05C13.1662 2.01434 13.2784 2.05174 13.38 2.11H13.47C13.5728 2.15808 13.6673 2.22222 13.75 2.3L19.75 8.3C19.8278 8.38266 19.8919 8.47718 19.94 8.58V8.67ZM14 5.41003V7.00003C14 7.26525 14.1054 7.5196 14.2929 7.70714C14.4804 7.89468 14.7348 8.00003 15 8.00003H16.59L14 5.41003ZM14.71 12.2899C14.617 12.1962 14.5064 12.1218 14.3846 12.071C14.2627 12.0203 14.132 11.9941 14 11.9941C13.868 11.9941 13.7373 12.0203 13.6154 12.071C13.4936 12.1218 13.383 12.1962 13.29 12.2899L12 13.5899L10.71 12.2899C10.5217 12.1016 10.2663 11.9958 10 11.9958C9.7337 11.9958 9.4783 12.1016 9.29 12.2899C9.1017 12.4782 8.99591 12.7336 8.99591 12.9999C8.99591 13.2662 9.1017 13.5216 9.29 13.7099L10.59 14.9999L9.29 16.2899C9.19627 16.3829 9.12188 16.4935 9.07111 16.6154C9.02034 16.7372 8.9942 16.8679 8.9942 16.9999C8.9942 17.132 9.02034 17.2627 9.07111 17.3845C9.12188 17.5064 9.19627 17.617 9.29 17.7099C9.38296 17.8037 9.49356 17.8781 9.61542 17.9288C9.73728 17.9796 9.86799 18.0057 10 18.0057C10.132 18.0057 10.2627 17.9796 10.3846 17.9288C10.5064 17.8781 10.617 17.8037 10.71 17.7099L12 16.4099L13.29 17.7099C13.383 17.8037 13.4936 17.8781 13.6154 17.9288C13.7373 17.9796 13.868 18.0057 14 18.0057C14.132 18.0057 14.2627 17.9796 14.3846 17.9288C14.5064 17.8781 14.617 17.8037 14.71 17.7099C14.8037 17.617 14.8781 17.5064 14.9289 17.3845C14.9797 17.2627 15.0058 17.132 15.0058 16.9999C15.0058 16.8679 14.9797 16.7372 14.9289 16.6154C14.8781 16.4935 14.8037 16.3829 14.71 16.2899L13.41 14.9999L14.71 13.7099C14.8037 13.617 14.8781 13.5064 14.9289 13.3845C14.9797 13.2627 15.0058 13.132 15.0058 12.9999C15.0058 12.8679 14.9797 12.7372 14.9289 12.6154C14.8781 12.4935 14.8037 12.3829 14.71 12.2899Z" fill="#E7E6E2"/>
</svg>
