<svg width="24" height="24" viewBox="0 0 24 24" fill="none" xmlns="http://www.w3.org/2000/svg">
<path d="M20 8.94C19.9896 8.84813 19.9695 8.75763 19.94 8.67V8.58C19.8919 8.47718 19.8278 8.38266 19.75 8.3L13.75 2.3C13.6673 2.22222 13.5728 2.15808 13.47 2.11H13.38C13.2784 2.05174 13.1662 2.01434 13.05 2H7C6.20435 2 5.44129 2.31607 4.87868 2.87868C4.31607 3.44129 4 4.20435 4 5V19C4 19.7956 4.31607 20.5587 4.87868 21.1213C5.44129 21.6839 6.20435 22 7 22H17C17.7956 22 18.5587 21.6839 19.1213 21.1213C19.6839 20.5587 20 19.7956 20 19V8.94ZM14 5.41003L16.59 8.00003H15C14.7348 8.00003 14.4804 7.89468 14.2929 7.70714C14.1054 7.5196 14 7.26525 14 7.00003V5.41003ZM11 15.5899L14.29 12.2899C14.4783 12.1016 14.7337 11.9958 15 11.9958C15.2663 11.9958 15.5217 12.1016 15.71 12.2899C15.8983 12.4782 16.0041 12.7336 16.0041 12.9999C16.0041 13.2662 15.8983 13.5216 15.71 13.7099L11.71 17.7099C11.617 17.8037 11.5064 17.8781 11.3846 17.9288C11.2627 17.9796 11.132 18.0057 11 18.0057C10.868 18.0057 10.7373 17.9796 10.6154 17.9288C10.4936 17.8781 10.383 17.8037 10.29 17.7099L8.29 15.7099C8.1017 15.5216 7.99591 15.2662 7.99591 14.9999C7.99591 14.7336 8.1017 14.4782 8.29 14.2899C8.47831 14.1016 8.7337 13.9958 9 13.9958C9.2663 13.9958 9.5217 14.1016 9.71 14.2899L11 15.5899Z" fill="#E7E6E2"/>
</svg>
