<svg width="24" height="24" viewBox="0 0 24 24" fill="none" xmlns="http://www.w3.org/2000/svg">
<path d="M19 5.50002H12.72L12.4 4.50002C12.1926 3.91325 11.8077 3.40553 11.2989 3.04718C10.7901 2.68884 10.1824 2.49762 9.56 2.50002H5C4.20435 2.50002 3.44129 2.81609 2.87868 3.3787C2.31607 3.94131 2 4.70437 2 5.50002V18.5C2 19.2957 2.31607 20.0587 2.87868 20.6213C3.44129 21.184 4.20435 21.5 5 21.5H19C19.7956 21.5 20.5587 21.184 21.1213 20.6213C21.6839 20.0587 22 19.2957 22 18.5V8.50002C22 7.70437 21.6839 6.94131 21.1213 6.3787C20.5587 5.81609 19.7956 5.50002 19 5.50002ZM12.42 16.17C12.4765 16.2053 12.5271 16.2492 12.57 16.3C12.6641 16.383 12.7392 16.4853 12.79 16.6C12.8425 16.7233 12.8697 16.856 12.87 16.99C12.8662 17.2538 12.7584 17.5054 12.57 17.69C12.4787 17.7836 12.37 17.8583 12.25 17.91C12.1291 17.9578 12 17.9816 11.87 17.98C11.7366 17.9829 11.604 17.9591 11.48 17.91C11.36 17.8583 11.2513 17.7836 11.16 17.69C10.9753 17.5038 10.8711 17.2524 10.87 16.99C10.8671 16.8567 10.8909 16.7241 10.94 16.6C10.9917 16.48 11.0665 16.3713 11.16 16.28C11.2754 16.163 11.418 16.0762 11.5749 16.0273C11.7319 15.9785 11.8985 15.9691 12.06 16L12.25 16.08L12.42 16.17ZM10.3689 9.40146C10.8253 9.13814 11.3431 8.99968 11.87 9.00002C12.6656 9.00002 13.4287 9.31609 13.9913 9.8787C14.5539 10.4413 14.87 11.2044 14.87 12C14.87 12.7957 14.5539 13.5587 13.9913 14.1213C13.4287 14.684 12.6656 15 11.87 15C11.6048 15 11.3504 14.8947 11.1629 14.7071C10.9754 14.5196 10.87 14.2652 10.87 14C10.87 13.7348 10.9754 13.4805 11.1629 13.2929C11.3504 13.1054 11.6048 13 11.87 13C12.1352 13 12.3896 12.8947 12.5771 12.7071C12.7646 12.5196 12.87 12.2652 12.87 12C12.8715 11.7786 12.7996 11.5629 12.6653 11.3868C12.5311 11.2107 12.3422 11.0842 12.1283 11.027C11.9144 10.9698 11.6876 10.9852 11.4834 11.0708C11.2792 11.1564 11.1092 11.3074 11 11.5C10.9375 11.6195 10.8514 11.7252 10.747 11.8105C10.6427 11.8959 10.5221 11.9593 10.3925 11.9969C10.263 12.0345 10.1272 12.0455 9.99333 12.0292C9.85945 12.0129 9.73024 11.9698 9.61347 11.9023C9.49671 11.8348 9.3948 11.7444 9.31388 11.6365C9.23297 11.5286 9.17472 11.4054 9.14263 11.2744C9.11054 11.1434 9.10529 11.0073 9.12717 10.8742C9.14906 10.7411 9.19765 10.6138 9.27 10.5C9.53347 10.0437 9.91248 9.66479 10.3689 9.40146Z" fill="#E7E6E2"/>
</svg>
