<svg width="24" height="24" viewBox="0 0 24 24" fill="none" xmlns="http://www.w3.org/2000/svg">
<path d="M19 5.50002H12.72L12.4 4.50002C12.1926 3.91325 11.8077 3.40553 11.2989 3.04718C10.7901 2.68884 10.1824 2.49762 9.56 2.50002H5C4.20435 2.50002 3.44129 2.81609 2.87868 3.3787C2.31607 3.94131 2 4.70437 2 5.50002V18.5C2 19.2957 2.31607 20.0587 2.87868 20.6213C3.44129 21.184 4.20435 21.5 5 21.5H19C19.7956 21.5 20.5587 21.184 21.1213 20.6213C21.6839 20.0587 22 19.2957 22 18.5V8.50002C22 7.70437 21.6839 6.94131 21.1213 6.3787C20.5587 5.81609 19.7956 5.50002 19 5.50002ZM14.3846 10.5711C14.5064 10.6219 14.617 10.6963 14.71 10.79C14.8037 10.883 14.8781 10.9936 14.9289 11.1154C14.9797 11.2373 15.0058 11.368 15.0058 11.5C15.0058 11.632 14.9797 11.7627 14.9289 11.8846C14.8781 12.0065 14.8037 12.1171 14.71 12.21L13.41 13.5L14.71 14.79C14.8037 14.883 14.8781 14.9936 14.9289 15.1154C14.9797 15.2373 15.0058 15.368 15.0058 15.5C15.0058 15.632 14.9797 15.7627 14.9289 15.8846C14.8781 16.0065 14.8037 16.1171 14.71 16.21C14.617 16.3037 14.5064 16.3781 14.3846 16.4289C14.2627 16.4797 14.132 16.5058 14 16.5058C13.868 16.5058 13.7373 16.4797 13.6154 16.4289C13.4936 16.3781 13.383 16.3037 13.29 16.21L12 14.91L10.71 16.21C10.617 16.3037 10.5064 16.3781 10.3846 16.4289C10.2627 16.4797 10.132 16.5058 10 16.5058C9.86799 16.5058 9.73728 16.4797 9.61542 16.4289C9.49356 16.3781 9.38296 16.3037 9.29 16.21C9.19627 16.1171 9.12188 16.0065 9.07111 15.8846C9.02034 15.7627 8.9942 15.632 8.9942 15.5C8.9942 15.368 9.02034 15.2373 9.07111 15.1154C9.12188 14.9936 9.19627 14.883 9.29 14.79L10.59 13.5L9.29 12.21C9.1017 12.0217 8.99591 11.7663 8.99591 11.5C8.99591 11.2337 9.1017 10.9783 9.29 10.79C9.4783 10.6017 9.7337 10.4959 10 10.4959C10.2663 10.4959 10.5217 10.6017 10.71 10.79L12 12.09L13.29 10.79C13.383 10.6963 13.4936 10.6219 13.6154 10.5711C13.7373 10.5204 13.868 10.4942 14 10.4942C14.132 10.4942 14.2627 10.5204 14.3846 10.5711Z" fill="#E7E6E2"/>
</svg>
