<svg width="24" height="24" viewBox="0 0 24 24" fill="none" xmlns="http://www.w3.org/2000/svg">
<path d="M19 5.50002H12.72L12.4 4.50002C12.1926 3.91325 11.8077 3.40553 11.2989 3.04718C10.7901 2.68884 10.1824 2.49762 9.56 2.50002H5C4.20435 2.50002 3.44129 2.81609 2.87868 3.3787C2.31607 3.94131 2 4.70437 2 5.50002V18.5C2 19.2957 2.31607 20.0587 2.87868 20.6213C3.44129 21.184 4.20435 21.5 5 21.5H19C19.7956 21.5 20.5587 21.184 21.1213 20.6213C21.6839 20.0587 22 19.2957 22 18.5V8.50002C22 7.70437 21.6839 6.94131 21.1213 6.3787C20.5587 5.81609 19.7956 5.50002 19 5.50002ZM11 14.09L14.29 10.79C14.4783 10.6017 14.7337 10.4959 15 10.4959C15.2663 10.4959 15.5217 10.6017 15.71 10.79C15.8983 10.9783 16.0041 11.2337 16.0041 11.5C16.0041 11.7663 15.8983 12.0217 15.71 12.21L11.71 16.21C11.617 16.3037 11.5064 16.3781 11.3846 16.4289C11.2627 16.4797 11.132 16.5058 11 16.5058C10.868 16.5058 10.7373 16.4797 10.6154 16.4289C10.4936 16.3781 10.383 16.3037 10.29 16.21L8.29 14.21C8.1017 14.0217 7.99591 13.7663 7.99591 13.5C7.99591 13.2337 8.1017 12.9783 8.29 12.79C8.4783 12.6017 8.7337 12.4959 9 12.4959C9.2663 12.4959 9.5217 12.6017 9.71 12.79L11 14.09Z" fill="#E7E6E2"/>
</svg>
