<svg width="24" height="24" viewBox="0 0 24 24" fill="none" xmlns="http://www.w3.org/2000/svg">
<path d="M21.71 20.2899L3.71 2.28994C3.61676 2.1967 3.50607 2.12274 3.38425 2.07228C3.26243 2.02182 3.13186 1.99585 3 1.99585C2.86814 1.99585 2.73758 2.02182 2.61575 2.07228C2.49393 2.12274 2.38324 2.1967 2.29 2.28994C2.1017 2.47824 1.99591 2.73364 1.99591 2.99994C1.99591 3.26624 2.1017 3.52164 2.29 3.70994L3.69 5.09994C3.24713 5.63438 3.00328 6.30586 3 6.99994V17.9999C3 18.7956 3.31607 19.5587 3.87868 20.1213C4.44129 20.6839 5.20435 20.9999 6 20.9999H18C18.447 20.9973 18.8877 20.8948 19.29 20.6999L20.29 21.6999C20.383 21.7937 20.4936 21.8681 20.6154 21.9188C20.7373 21.9696 20.868 21.9957 21 21.9957C21.132 21.9957 21.2627 21.9696 21.3846 21.9188C21.5064 21.8681 21.617 21.7937 21.71 21.6999C21.8963 21.5126 22.0008 21.2591 22.0008 20.9949C22.0008 20.7308 21.8963 20.4773 21.71 20.2899Z" fill="#E7E6E2"/>
<path d="M19.2929 15.047C19.4804 15.2346 19.7348 15.3399 20 15.3399C20.2652 15.3399 20.5196 15.2346 20.7071 15.047C20.8946 14.8595 21 14.6052 21 14.3399V9.99994C21 9.20429 20.6839 8.44123 20.1213 7.87862C19.5587 7.31601 18.7957 6.99994 18 6.99994H13.72L13.4 5.99994C13.2022 5.43822 12.8418 4.94807 12.3645 4.5919C11.8872 4.23573 11.3148 4.02967 10.72 3.99994C10.5887 3.99338 10.4574 4.01274 10.3335 4.05693C10.2097 4.10112 10.0958 4.16926 9.99825 4.25748C9.90075 4.34569 9.82158 4.45225 9.76526 4.57106C9.70894 4.68988 9.67657 4.81862 9.67 4.94994C9.66344 5.08126 9.6828 5.21259 9.72699 5.33643C9.77118 5.46027 9.83932 5.57419 9.92754 5.67169L19.2929 15.047Z" fill="#E7E6E2"/>
</svg>
