<svg width="24" height="24" viewBox="0 0 24 24" fill="none" xmlns="http://www.w3.org/2000/svg">
<path d="M19 5.50002H12.72L12.4 4.50002C12.1926 3.91325 11.8077 3.40553 11.2989 3.04718C10.7901 2.68884 10.1824 2.49762 9.56 2.50002H5C4.20435 2.50002 3.44129 2.81609 2.87868 3.3787C2.31607 3.94131 2 4.70437 2 5.50002V18.5C2 19.2957 2.31607 20.0587 2.87868 20.6213C3.44129 21.184 4.20435 21.5 5 21.5H19C19.7956 21.5 20.5587 21.184 21.1213 20.6213C21.6839 20.0587 22 19.2957 22 18.5V8.50002C22 7.70437 21.6839 6.94131 21.1213 6.3787C20.5587 5.81609 19.7956 5.50002 19 5.50002ZM13 12.5H14C14.2652 12.5 14.5196 12.6054 14.7071 12.7929C14.8946 12.9805 15 13.2348 15 13.5C15 13.7652 14.8946 14.0196 14.7071 14.2071C14.5196 14.3947 14.2652 14.5 14 14.5H13V15.5C13 15.7652 12.8946 16.0196 12.7071 16.2071C12.5196 16.3947 12.2652 16.5 12 16.5C11.7348 16.5 11.4804 16.3947 11.2929 16.2071C11.1054 16.0196 11 15.7652 11 15.5V14.5H10C9.73478 14.5 9.48043 14.3947 9.29289 14.2071C9.10536 14.0196 9 13.7652 9 13.5C9 13.2348 9.10536 12.9805 9.29289 12.7929C9.48043 12.6054 9.73478 12.5 10 12.5H11V11.5C11 11.2348 11.1054 10.9805 11.2929 10.7929C11.4804 10.6054 11.7348 10.5 12 10.5C12.2652 10.5 12.5196 10.6054 12.7071 10.7929C12.8946 10.9805 13 11.2348 13 11.5V12.5Z" fill="#E7E6E2"/>
</svg>
