<svg width="24" height="24" viewBox="0 0 24 24" fill="none" xmlns="http://www.w3.org/2000/svg">
<path d="M19 19.0023C19 19.798 18.6837 20.5618 18.1211 21.1244C17.5585 21.6868 16.7955 22.0023 16 22.0023H12.9902V15.0043H19V19.0023Z" fill="#E7E6E2"/>
<path d="M10.9902 15.0043V22.0023H8C7.20451 22.0023 6.44148 21.6868 5.87891 21.1244C5.3163 20.5618 5 19.798 5 19.0023V15.0043H10.9902Z" fill="#E7E6E2"/>
<path fill-rule="evenodd" clip-rule="evenodd" d="M13.7891 2.07265C14.4706 1.92876 15.18 1.9919 15.8252 2.25429C16.4704 2.51675 17.0225 2.96653 17.4102 3.5453C17.7977 4.12407 18.003 4.80578 18 5.50233C17.9979 6.02218 17.8785 6.5352 17.6504 7.00233H18C18.7956 7.00233 19.5585 7.31872 20.1211 7.88124C20.6836 8.44378 20.9999 9.20678 21 10.0023V12.0023C21 12.2675 20.8945 12.5218 20.707 12.7094C20.5195 12.8969 20.2652 13.0023 20 13.0023H19V13.0043H12.9902V9.98475C12.9901 9.43268 12.5423 8.98492 11.9902 8.98475C11.438 8.98475 10.9904 9.43258 10.9902 9.98475V13.0043H5V13.0023H4C3.73478 13.0023 3.48051 12.8969 3.29297 12.7094C3.10552 12.5218 3 12.2675 3 12.0023V10.0023C3.00007 9.20678 3.31636 8.44378 3.87891 7.88124C4.4415 7.31872 5.20442 7.00233 6 7.00233H6.34961C6.12151 6.5352 6.00213 6.02218 6 5.50233C5.99703 4.80578 6.20226 4.12407 6.58984 3.5453C6.97745 2.96653 7.52957 2.51675 8.1748 2.25429C8.82002 1.9919 9.52945 1.92876 10.2109 2.07265C10.8926 2.21666 11.5159 2.56182 12 3.06288C12.4841 2.56182 13.1074 2.21666 13.7891 2.07265ZM10.0742 4.11659C9.80013 4.00306 9.498 3.97375 9.20703 4.03163C8.91626 4.08954 8.64912 4.23217 8.43945 4.44179C8.22967 4.65156 8.08717 4.91937 8.0293 5.21034C7.97149 5.50122 8.00078 5.80256 8.11426 6.07655C8.22779 6.35064 8.42032 6.58458 8.66699 6.7494C8.91366 6.9142 9.20335 7.00233 9.5 7.00233H11V5.50233C10.9999 5.20576 10.9118 4.91592 10.7471 4.66932C10.5823 4.42269 10.3483 4.23012 10.0742 4.11659ZM14.793 4.03163C14.502 3.97375 14.1999 4.00306 13.9258 4.11659C13.6517 4.23012 13.4177 4.42269 13.2529 4.66932C13.0882 4.91592 13.0001 5.20576 13 5.50233V7.00233H14.5C14.7967 7.00233 15.0863 6.9142 15.333 6.7494C15.5797 6.58458 15.7722 6.35064 15.8857 6.07655C15.9992 5.80256 16.0285 5.50122 15.9707 5.21034C15.9128 4.91937 15.7703 4.65156 15.5605 4.44179C15.3509 4.23217 15.0837 4.08954 14.793 4.03163Z" fill="#E7E6E2"/>
</svg>
