<svg width="24" height="24" viewBox="0 0 24 24" fill="none" xmlns="http://www.w3.org/2000/svg">
<path d="M12.9716 3.46343V7.95373L15.7885 7.95373C15.4074 6.75501 14.8623 5.68415 14.199 4.79275C13.8222 4.28646 13.4106 3.84148 12.9716 3.46343Z" fill="#E7E6E2"/>
<path d="M16.2487 9.95373H12.9716V13.9537H16.2502C16.3448 13.3107 16.3947 12.6438 16.3947 11.959C16.3947 11.2705 16.3442 10.6 16.2487 9.95373Z" fill="#E7E6E2"/>
<path d="M18.2696 13.9537C18.352 13.3037 18.3947 12.6372 18.3947 11.959C18.3947 11.2771 18.3516 10.6071 18.2683 9.95373H21.8C21.9311 10.6 22 11.2688 22 11.9537C22 12.6387 21.9311 13.3075 21.8 13.9537H18.2696Z" fill="#E7E6E2"/>
<path d="M15.7918 15.9537H12.9716V20.4545C13.4106 20.0765 13.8222 19.6315 14.199 19.1252C14.8643 18.2312 15.4106 17.1567 15.7918 15.9537Z" fill="#E7E6E2"/>
<path d="M14.7339 2.33203C17.6241 3.15164 19.9815 5.23832 21.1679 7.95373L17.8761 7.95373C17.4311 6.29307 16.715 4.79226 15.7885 3.54726C15.4636 3.11059 15.1111 2.70368 14.7339 2.33203Z" fill="#E7E6E2"/>
<path d="M14.7488 21.5712C15.1204 21.2035 15.4679 20.8016 15.7885 20.3707C16.717 19.1231 17.4341 17.6186 17.879 15.9537H21.1679C19.9835 18.6645 17.6322 20.7486 14.7488 21.5712Z" fill="#E7E6E2"/>
<path d="M2 11.959C2.00035 12.6421 2.0692 13.3092 2.20004 13.9537H6.06943C5.99773 13.3115 5.96066 12.6545 5.96066 11.9867C5.96066 11.296 6.00031 10.6169 6.07693 9.95373H2.20004C2.06886 10.5999 2 11.2688 2 11.9537L2 11.959Z" fill="#E7E6E2"/>
<path d="M10.1564 4.41439C9.45844 5.40541 8.89148 6.60637 8.50861 7.95373H10.9716V3.41412C10.6853 3.7163 10.4128 4.05034 10.1564 4.41439Z" fill="#E7E6E2"/>
<path d="M2.83209 7.95373H6.43004C6.87058 6.11971 7.60539 4.46348 8.56684 3.09831C8.74355 2.84739 8.92842 2.60577 9.12096 2.37439C6.29712 3.22189 3.99858 5.28392 2.83209 7.95373Z" fill="#E7E6E2"/>
<path d="M10.9716 15.9537V20.5593C10.6853 20.2571 10.4128 19.9231 10.1564 19.559C9.44707 18.5519 8.87304 17.3279 8.49004 15.9537H10.9716Z" fill="#E7E6E2"/>
<path d="M8.56684 20.8751C7.59387 19.4936 6.85301 17.814 6.41434 15.9537H2.83209C3.98859 18.6007 6.2578 20.6502 9.04848 21.511C8.88192 21.3066 8.72126 21.0944 8.56684 20.8751Z" fill="#E7E6E2"/>
<path d="M7.96066 11.9867C7.96066 12.6605 8.00395 13.3178 8.08626 13.9537H10.9716V9.95373H8.09495C8.007 10.6101 7.96066 11.2897 7.96066 11.9867Z" fill="#E7E6E2"/>
</svg>
