<svg width="24" height="24" viewBox="0 0 24 24" fill="none" xmlns="http://www.w3.org/2000/svg">
<path d="M20.9884 9.10004L21.9884 9.65004C22.1429 9.73686 22.2715 9.86318 22.3611 10.016C22.4507 10.1689 22.4981 10.3428 22.4984 10.52V13.96C22.4984 14.2253 22.3931 14.4796 22.2055 14.6671C22.018 14.8547 21.7636 14.96 21.4984 14.96C21.2332 14.96 20.9788 14.8547 20.7913 14.6671C20.6038 14.4796 20.4984 14.2253 20.4984 13.96V11.1L18.4984 12.22V12.2573L12.5221 15.57C11.9189 15.9044 11.186 15.9044 10.5828 15.57L2.41185 11.0408L2.40216 11.0583L2.00841 10.84C1.85452 10.7528 1.72651 10.6263 1.63745 10.4735C1.54839 10.3207 1.50146 10.1469 1.50146 9.97004C1.50146 9.79315 1.54839 9.61942 1.63745 9.46658C1.72651 9.31374 1.85452 9.18726 2.00841 9.10004L11.0084 4.10004H11.1184C11.1832 4.07412 11.2501 4.05404 11.3184 4.04004H11.6884C11.7535 4.05403 11.8171 4.07412 11.8784 4.10004H11.9884L20.9884 9.10004Z" fill="#E7E6E2"/>
<path d="M4.49841 14.4841V16.96C4.49841 17.7557 4.81448 18.5188 5.37709 19.0814C5.9397 19.644 6.70276 19.96 7.49841 19.96H15.4984C16.2941 19.96 17.0571 19.644 17.6197 19.0814C18.1823 18.5188 18.4984 17.7557 18.4984 16.96V14.544L11.5602 18.3899L11.3232 18.2671L4.49841 14.4841Z" fill="#E7E6E2"/>
</svg>
