<svg width="24" height="24" viewBox="0 0 24 24" fill="none" xmlns="http://www.w3.org/2000/svg">
<path d="M20.16 4.99997C19.0937 3.94467 17.6854 3.30524 16.1891 3.19705C14.6928 3.08886 13.207 3.51904 12 4.40997C10.7277 3.46361 9.14402 3.03448 7.56795 3.20901C5.99188 3.38353 4.54047 4.14875 3.506 5.35055C2.47154 6.55236 1.93085 8.10149 1.99283 9.68598C2.05481 11.2705 2.71485 12.7726 3.84003 13.89L9.84003 19.94C10.4025 20.5018 11.165 20.8173 11.96 20.8173C12.755 20.8173 13.5175 20.5018 14.08 19.94L20.08 13.89C20.671 13.3126 21.142 12.6242 21.466 11.8642C21.79 11.1042 21.9606 10.2877 21.968 9.4616C21.9755 8.63548 21.8196 7.81603 21.5093 7.05035C21.199 6.28467 20.7405 5.58786 20.16 4.99997Z" fill="#E7E6E2"/>
</svg>
