<svg width="24" height="24" viewBox="0 0 24 24" fill="none" xmlns="http://www.w3.org/2000/svg">
<path d="M20 8.01197L14 2.75197C13.45 2.26001 12.7379 1.98804 12 1.98804C11.262 1.98804 10.55 2.26001 9.99997 2.75197L3.99997 8.01197C3.68234 8.29604 3.42887 8.64453 3.25644 9.03421C3.08402 9.4239 2.99659 9.84585 2.99997 10.272V19.012C2.99997 19.8076 3.31604 20.5707 3.87865 21.1333C4.44126 21.6959 5.20432 22.012 5.99997 22.012H8.00082C8.0008 22.008 8.00079 22.004 8.00079 22V14.9951C8.00079 13.3383 9.34394 11.9951 11.0008 11.9951H12.985C14.6419 11.9951 15.985 13.3383 15.985 14.9951V22C15.985 22.004 15.985 22.008 15.985 22.012H18C18.7956 22.012 19.5587 21.6959 20.1213 21.1333C20.6839 20.5707 21 19.8076 21 19.012V10.262C21.0019 9.83753 20.9138 9.41751 20.7414 9.02965C20.5691 8.64179 20.3163 8.29493 20 8.01197Z" fill="#E7E6E2"/>
<path d="M13.9849 22.012C13.985 22.008 13.985 22.004 13.985 22V14.9951C13.985 14.4428 13.5373 13.9951 12.985 13.9951H11.0008C10.4485 13.9951 10.0008 14.4428 10.0008 14.9951V22C10.0008 22.004 10.0008 22.008 10.0009 22.012H13.9849Z" fill="#E7E6E2"/>
</svg>
