<svg width="24" height="24" viewBox="0 0 24 24" fill="none" xmlns="http://www.w3.org/2000/svg">
<path d="M17.9647 3.36279C17.9647 2.81714 18.407 2.37488 18.9525 2.37488C19.4981 2.37488 19.9404 2.81714 19.9404 3.36279V4.37781H20.9555C21.5011 4.37781 21.9434 4.82007 21.9434 5.36572C21.9434 5.91125 21.5011 6.35364 20.9555 6.35364H19.9404V7.36865C19.9404 7.91431 19.4981 8.35657 18.9525 8.35657C18.407 8.35657 17.9647 7.91431 17.9647 7.36865V6.35352H16.9496C16.404 6.35352 15.9617 5.91125 15.9617 5.36572C15.9617 4.82007 16.404 4.37781 16.9496 4.37781H17.9647V3.36279Z" fill="#E7E6E2"/>
<path d="M4.71221 4.28784H14.162C14.0326 4.62221 13.9617 4.98568 13.9617 5.36572C13.9617 6.71718 14.859 7.8589 16.0901 8.22805C16.4592 9.45935 17.6011 10.3566 18.9525 10.3566C19.3257 10.3566 19.6829 10.2882 20.0122 10.1632V16.8265L16.4919 13.3178C15.4405 12.2698 13.7403 12.2672 12.6857 13.3119L11.9196 14.0708L9.32286 11.4826C8.26645 10.4297 6.55638 10.4328 5.50381 11.4896L2.01221 14.9952V6.98784C2.01221 6.27176 2.29667 5.585 2.80302 5.07865C3.30937 4.57231 3.99612 4.28784 4.71221 4.28784Z" fill="#E7E6E2"/>
<path d="M2.01221 19.5878V17.5459L6.77915 12.7598C7.13001 12.4076 7.70003 12.4065 8.05217 12.7575L17.5942 22.2681C17.5007 22.2799 17.4065 22.2865 17.3122 22.2878H4.71221C3.99612 22.2878 3.30937 22.0034 2.80302 21.497C2.29667 20.9907 2.01221 20.3039 2.01221 19.5878Z" fill="#E7E6E2"/>
<path d="M19.5082 21.1718C19.4441 21.261 19.3741 21.3458 19.2985 21.4254L13.1945 15.3415L13.9525 14.5907C14.304 14.2425 14.8707 14.2434 15.2212 14.5927L20.0122 19.3679V19.5878C20.0034 19.7707 19.9732 19.952 19.9222 20.1278V20.2628C19.9112 20.2985 19.9011 20.3341 19.8911 20.3695C19.8681 20.4503 19.8455 20.5297 19.8142 20.6048C19.797 20.6515 19.7759 20.6967 19.7512 20.7398C19.7063 20.8493 19.6521 20.9546 19.5892 21.0548L19.5082 21.1718Z" fill="#E7E6E2"/>
</svg>
