<svg width="24" height="24" viewBox="0 0 24 24" fill="none" xmlns="http://www.w3.org/2000/svg">
<path d="M20.789 19.3691L21.719 20.2991C21.8996 20.4886 21.9986 20.7414 21.9949 21.0032C21.9911 21.2649 21.8849 21.5148 21.699 21.6991C21.606 21.7928 21.4954 21.8672 21.3736 21.918C21.2517 21.9688 21.121 21.9949 20.989 21.9949C20.857 21.9949 20.7263 21.9688 20.6044 21.918C20.4825 21.8672 20.3719 21.7928 20.279 21.6991L19.329 20.6991H19.279C18.8848 20.8977 18.4504 21.0038 18.009 21.0091H6.00897C5.21333 21.0091 4.45026 20.693 3.88765 20.1304C3.32505 19.5678 3.00897 18.8047 3.00897 18.0091V17.5975L5.00717 15.5484L9.00717 11.5484C9.15686 11.41 9.35327 11.3331 9.55717 11.3331C9.76108 11.3331 9.95748 11.41 10.1072 11.5484L8.24717 9.65845C8.00169 9.78502 7.77598 9.94672 7.57717 10.1384L3.00897 14.7273V6.0091C3.0085 5.56288 3.10757 5.12218 3.29897 4.7191L2.29897 3.7191C2.11067 3.53079 2.00488 3.2754 2.00488 3.0091C2.00488 2.74279 2.11067 2.4874 2.29897 2.2991C2.39221 2.20586 2.5029 2.1319 2.62473 2.08144C2.74655 2.03098 2.87712 2.005 3.00897 2.005C3.14083 2.005 3.2714 2.03098 3.39322 2.08144C3.51505 2.1319 3.62574 2.20586 3.71897 2.2991L11.439 10.0091L11.539 10.1391L14.739 13.3491L14.829 13.4291L20.009 18.6291L20.139 18.6991L20.639 19.1991L20.699 19.2691L20.789 19.3691Z" fill="#E7E6E2"/>
<path d="M19.329 15.1091L17.589 13.3691L8.96187 4.7162C8.77433 4.52867 8.66897 4.27431 8.66897 4.0091C8.66897 3.74388 8.77433 3.48953 8.96187 3.30199C9.1494 3.11445 9.40376 3.0091 9.66897 3.0091H18.039C18.8346 3.0091 19.5977 3.32517 20.1603 3.88778C20.7229 4.45039 21.039 5.21345 21.039 6.0091V14.3891C21.0411 14.5224 21.0165 14.6547 20.9667 14.7784C20.9169 14.902 20.8429 15.0145 20.749 15.1091C20.656 15.2028 20.5454 15.2772 20.4236 15.328C20.3017 15.3788 20.171 15.4049 20.039 15.4049C19.907 15.4049 19.7763 15.3788 19.6544 15.328C19.5325 15.2772 19.4219 15.2028 19.329 15.1091Z" fill="#E7E6E2"/>
</svg>
