<svg width="24" height="24" viewBox="0 0 24 24" fill="none" xmlns="http://www.w3.org/2000/svg">
<path d="M20.5226 2.0451C20.9073 1.6627 21.548 1.6627 21.9326 2.0451C22.3123 2.43248 22.3078 3.07314 21.9226 3.4551L17.8426 7.4551C17.6557 7.63832 17.4044 7.74095 17.1426 7.74095C16.8809 7.74095 16.6296 7.63832 16.4426 7.4551L14.5226 5.5751C14.1332 5.19383 14.1264 4.54953 14.5076 4.1601C14.8889 3.77066 15.5332 3.76383 15.9226 4.1451L17.1426 5.3451L20.5226 2.0451Z" fill="#E7E6E2"/>
<path d="M4.96747 3.46753H12.5654C11.9702 4.60938 12.1591 6.06006 13.1235 7.00427L15.0426 8.88342L15.0434 8.88416C15.6041 9.43335 16.3577 9.74097 17.1426 9.74097C17.9279 9.74097 18.682 9.43298 19.2428 8.8833L20.2675 7.87866V16.0062L16.7472 12.4974C15.6957 11.4496 13.9956 11.4469 12.9409 12.4916L12.1749 13.2505L9.57812 10.6624C8.5217 9.60938 6.81161 9.61255 5.75906 10.6693L2.26746 14.1749V6.16748C2.26746 5.45142 2.55191 4.76465 3.05826 4.2583C3.56461 3.75195 4.25137 3.46753 4.96747 3.46753Z" fill="#E7E6E2"/>
<path d="M2.26746 18.7676V16.7256L7.03439 11.9396C7.38525 11.5873 7.95529 11.5862 8.3074 11.9373L17.8494 21.4478C17.7559 21.4596 17.6618 21.4662 17.5674 21.4675H4.96747C4.25137 21.4675 3.56461 21.1831 3.05826 20.6768C2.55191 20.1704 2.26746 19.4836 2.26746 18.7676Z" fill="#E7E6E2"/>
<path d="M19.7635 20.3516C19.6994 20.4407 19.6293 20.5255 19.5537 20.6051L13.4498 14.5212L14.2077 13.7704C14.5593 13.4221 15.126 13.4231 15.4764 13.7723L20.2675 18.5476V18.7676C20.2587 18.9504 20.2285 19.1317 20.1775 19.3075V19.4425C20.1665 19.4781 20.1564 19.5138 20.1463 19.5492C20.1344 19.5911 20.1227 19.6324 20.1097 19.6731C20.0977 19.7111 20.0846 19.7483 20.0695 19.7845C20.0522 19.8312 20.0312 19.8763 20.0065 19.9196C19.9615 20.0289 19.9073 20.1343 19.8445 20.2345L19.7635 20.3516Z" fill="#E7E6E2"/>
</svg>
