<svg width="24" height="24" viewBox="0 0 24 24" fill="none" xmlns="http://www.w3.org/2000/svg">
<path d="M20.1367 2.58562C20.5272 2.19509 21.1604 2.19509 21.5509 2.58562C21.9414 2.97614 21.9414 3.60931 21.5509 3.99983L20.2603 5.29041L21.5509 6.58098C21.9414 6.97151 21.9414 7.60467 21.5509 7.99519C21.1604 8.38572 20.5272 8.38572 20.1367 7.99519L18.8461 6.70462L17.5555 7.99519C17.165 8.38572 16.5318 8.38572 16.1413 7.99519C15.7508 7.60467 15.7508 6.97151 16.1413 6.58098L17.4319 5.29041L16.1413 3.99983C15.7508 3.60931 15.7508 2.97614 16.1413 2.58562C16.5318 2.19509 17.165 2.19509 17.5555 2.58562L18.8461 3.87619L20.1367 2.58562Z" fill="#E7E6E2"/>
<path d="M14.6101 5.29041C13.5569 6.46838 13.5959 8.2782 14.7271 9.40942C15.8583 10.5406 17.6681 10.5796 18.8461 9.52637C19.1596 9.80664 19.5178 10.0096 19.8961 10.1353V16.8834L16.37 13.3777C15.3169 12.3306 13.6139 12.328 12.5576 13.3718L11.7902 14.13L9.18915 11.5441C8.13101 10.4919 6.41812 10.4951 5.36383 11.551L1.86646 15.0537V7.05298C1.86646 6.33752 2.1514 5.65125 2.65857 5.14539C3.16574 4.6394 3.85364 4.35522 4.57089 4.35522H14.0421C14.169 4.69116 14.3584 5.00879 14.6101 5.29041Z" fill="#E7E6E2"/>
<path d="M1.86646 19.6425V17.6023L6.64127 12.8202C6.99268 12.4681 7.56366 12.4672 7.91638 12.8179L17.4741 22.3206C17.3804 22.3323 17.2861 22.3389 17.1917 22.3402H4.57089C3.85364 22.3402 3.16574 22.056 2.65857 21.55C2.1514 21.0442 1.86646 20.3579 1.86646 19.6425Z" fill="#E7E6E2"/>
<path d="M19.3913 21.2251C19.3271 21.3143 19.2569 21.3989 19.1812 21.4785L13.0672 15.3997L13.8264 14.6495C14.1785 14.3015 14.7462 14.3025 15.0972 14.6515L19.8961 19.4227V19.6425C19.8873 19.8252 19.8571 20.0063 19.806 20.182V20.3169C19.795 20.3525 19.7849 20.3881 19.7748 20.4235C19.7518 20.504 19.7291 20.5838 19.6978 20.6586C19.6919 20.6746 19.6855 20.6904 19.6787 20.7061C19.673 20.7191 19.667 20.7321 19.6606 20.7448C19.6525 20.7612 19.6438 20.7775 19.6347 20.7935C19.5897 20.9028 19.5354 21.0082 19.4724 21.1083L19.3913 21.2251Z" fill="#E7E6E2"/>
</svg>
