<svg width="24" height="24" viewBox="0 0 24 24" fill="none" xmlns="http://www.w3.org/2000/svg">
<path d="M21.3418 12.6071C21.6655 12.4992 21.9998 12.7396 22 13.0807V17.9996C22 19.1042 21.1046 19.9996 20 19.9996H4C2.89543 19.9996 2 19.1042 2 17.9996V17.0807C2.00011 16.8657 2.13783 16.6752 2.3418 16.6071L9.76367 14.1325C9.94401 14.0724 10.1379 14.0649 10.3223 14.111L13.1924 14.8287C13.7458 14.9671 14.327 14.9446 14.8682 14.7643L21.3418 12.6071Z" fill="#E7E6E2"/>
<path d="M19.0771 4.23304C20.4086 3.54079 22 4.50683 22 6.00746V9.91859C22 10.1338 21.8624 10.3251 21.6582 10.3932L14.2363 12.8668C14.056 12.9269 13.8621 12.9343 13.6777 12.8883L10.8076 12.1705C10.2541 12.0322 9.67213 12.0546 9.13086 12.235L2.6582 14.3932C2.33444 14.5011 2 14.2599 2 13.9186V11.5797C2.00008 10.8621 2.38473 10.1994 3.00781 9.84339L9.15527 6.3307C9.60298 6.07494 10.1326 6.00154 10.6328 6.1266L13.5068 6.84535C13.7437 6.90456 13.9943 6.87497 14.2109 6.76234L19.0771 4.23304Z" fill="#E7E6E2"/>
</svg>
