<svg width="24" height="24" viewBox="0 0 24 24" fill="none" xmlns="http://www.w3.org/2000/svg">
<path d="M13.9383 1.23552C15.094 1.52271 16.171 2.06426 17.0907 2.82068V2.80068C18.7165 4.14217 19.7473 6.07111 19.9588 8.1683C20.1704 10.2655 19.5458 12.3615 18.2207 14.0007C17.5055 14.8464 17.082 15.8981 17.0097 17H13V14C13 13.4477 12.5523 13 12 13C11.4477 13 11 13.4477 11 14V17H7.00065C6.96754 15.9398 6.56421 14.9246 5.86067 14.1307C5.10244 13.217 4.55515 12.1473 4.25784 10.9978C3.96053 9.84833 3.92052 8.6474 4.14067 7.48068C4.44215 5.92461 5.19905 4.49317 6.31536 3.36796C7.43166 2.24275 8.85705 1.4745 10.4107 1.16068C11.5775 0.922768 12.7827 0.948338 13.9383 1.23552Z" fill="#E7E6E2"/>
<path d="M7.00067 19V20.0007C7.00067 20.7963 7.31674 21.5594 7.87935 22.122C8.44196 22.6846 9.20502 23.0007 10.0007 23.0007H14.0007C14.7963 23.0007 15.5594 22.6846 16.122 22.122C16.6846 21.5594 17.0007 20.7963 17.0007 20.0007V19H7.00067Z" fill="#E7E6E2"/>
</svg>
