<svg width="24" height="24" viewBox="0 0 24 24" fill="none" xmlns="http://www.w3.org/2000/svg">
<path d="M21.15 2.86001C20.768 2.47057 20.2835 2.19723 19.7526 2.07158C19.2217 1.94594 18.6661 1.97313 18.15 2.15001L4.00005 6.88001C3.42936 7.06681 2.93074 7.42616 2.573 7.90845C2.21527 8.39073 2.01607 8.97218 2.0029 9.57251C1.98973 10.1728 2.16324 10.7625 2.49948 11.26C2.83572 11.7575 3.31811 12.1384 3.88005 12.35L9.12005 14.35C9.23937 14.3956 9.34801 14.4654 9.43919 14.5548C9.53038 14.6443 9.60216 14.7516 9.65005 14.87L11.65 20.12C11.8536 20.674 12.2231 21.1518 12.708 21.4882C13.193 21.8246 13.7698 22.0033 14.36 22H14.43C15.0311 21.9891 15.6136 21.7903 16.096 21.4317C16.5784 21.073 16.9365 20.5724 17.1201 20L21.85 5.83001C22.0221 5.31895 22.0477 4.76995 21.924 4.2451C21.8003 3.72024 21.5322 3.24046 21.15 2.86001Z" fill="#E7E6E2"/>
</svg>
