<svg width="24" height="24" viewBox="0 0 24 24" fill="none" xmlns="http://www.w3.org/2000/svg">
<path d="M19 20.4541H18V18.4521H6V20.4541H5C4.73478 20.4541 4.48043 20.5594 4.29289 20.7469C4.10536 20.9345 4 21.1888 4 21.4541C4 21.7193 4.10536 21.9736 4.29289 22.1612C4.48043 22.3487 4.73478 22.4541 5 22.4541H19C19.2652 22.4541 19.5196 22.3487 19.7071 22.1612C19.8946 21.9736 20 21.7193 20 21.4541C20 21.1888 19.8946 20.9345 19.7071 20.7469C19.5196 20.5594 19.2652 20.4541 19 20.4541Z" fill="#E7E6E2"/>
<path d="M18 9.45405V16.4521H6V9.45405H5C4.73478 9.45405 4.48043 9.3487 4.29289 9.16116C4.10536 8.97362 4 8.71927 4 8.45405C4 8.18884 4.10536 7.93448 4.29289 7.74695C4.48043 7.55941 4.73478 7.45405 5 7.45405H6.09C6.33361 6.06347 7.05975 4.80332 8.14072 3.89526C9.22169 2.98719 10.5882 2.48938 12 2.48938C13.4118 2.48938 14.7783 2.98719 15.8593 3.89526C16.9402 4.80332 17.6664 6.06347 17.91 7.45405H19C19.2652 7.45405 19.5196 7.55941 19.7071 7.74695C19.8946 7.93448 20 8.18884 20 8.45405C20 8.71927 19.8946 8.97362 19.7071 9.16116C19.5196 9.3487 19.2652 9.45405 19 9.45405H18ZM10.998 11.457C10.4468 11.457 10 11.9039 10 12.4551C10 13.0063 10.4468 13.4531 10.998 13.4531H13.002C13.5532 13.4531 14 13.0063 14 12.4551C14 11.9039 13.5532 11.457 13.002 11.457H10.998Z" fill="#E7E6E2"/>
</svg>
