<svg width="24" height="24" viewBox="0 0 24 24" fill="none" xmlns="http://www.w3.org/2000/svg">
<path fill-rule="evenodd" clip-rule="evenodd" d="M19.6084 2.07792C19.7298 2.02769 19.8599 2.00188 19.9912 2.00195C20.1226 2.00188 20.2526 2.02769 20.374 2.07792C20.4953 2.12815 20.6056 2.2018 20.6985 2.29468C20.7914 2.38755 20.865 2.49782 20.9152 2.61918C20.9655 2.74054 20.9913 2.87061 20.9912 3.00195V19.002C20.9912 19.2672 20.8859 19.5215 20.6983 19.7091C20.5108 19.8966 20.2564 20.002 19.9912 20.002C19.726 20.002 19.4716 19.8966 19.2841 19.7091C19.0966 19.5215 18.9912 19.2672 18.9912 19.002V18.365C18.215 17.4058 17.2505 16.6158 16.157 16.0439C15.0636 15.472 13.8646 15.1303 12.6339 15.04L9.91016 21.3955C9.83329 21.5755 9.7052 21.729 9.54182 21.8368C9.37843 21.9446 9.18696 22.0021 8.99121 22.002H4.99121C4.82572 22.0021 4.6628 21.9611 4.51706 21.8827C4.37133 21.8043 4.24734 21.6909 4.15624 21.5528C4.06514 21.4146 4.00978 21.256 3.99512 21.0911C3.98047 20.9263 4.00698 20.7604 4.07227 20.6084L6.475 15.002H5.99121C5.19583 15.0011 4.43327 14.6847 3.87085 14.1223C3.30843 13.5599 2.99208 12.7973 2.99121 12.002V10.002C2.99208 9.20657 3.30843 8.44401 3.87085 7.88159C4.43327 7.31917 5.19583 7.00282 5.99121 7.00195H11.9912C13.3346 6.99696 14.66 6.69248 15.871 6.11067C17.0819 5.52887 18.1478 4.68438 18.9912 3.63867V3.00195C18.9911 2.87061 19.017 2.74054 19.0672 2.61918C19.1174 2.49782 19.1911 2.38755 19.2839 2.29468C19.3768 2.20181 19.4871 2.12815 19.6084 2.07792ZM8.33203 20.002H6.50781L8.65039 15.002H10.4746L8.33203 20.002ZM6.99121 13.002V9.00195L8.99121 9.0019V13.0019L6.99121 13.002Z" fill="#E7E6E2"/>
</svg>
