<svg width="24" height="24" viewBox="0 0 24 24" fill="none" xmlns="http://www.w3.org/2000/svg">
<path d="M12.4514 1.57886C10.4736 1.57886 8.54021 2.16535 6.89572 3.26416C5.25123 4.36298 3.9695 5.92476 3.21263 7.75202C2.45575 9.57928 2.25772 11.59 2.64357 13.5298C3.02942 15.4696 3.98183 17.2514 5.38035 18.6499C6.77888 20.0485 8.56071 21.0009 10.5005 21.3867C12.4403 21.7726 14.451 21.5745 16.2783 20.8177C18.1055 20.0608 19.6673 18.7791 20.7661 17.1346C21.8649 15.4901 22.4514 13.5567 22.4514 11.5789C22.4514 10.2656 22.1928 8.96528 21.6902 7.75202C21.1877 6.53877 20.4511 5.43638 19.5225 4.50779C18.5939 3.5792 17.4915 2.84261 16.2783 2.34006C15.065 1.83752 13.7646 1.57886 12.4514 1.57886ZM8.45142 10.5789H16.4514C16.7166 10.5789 16.971 10.6842 17.1585 10.8718C17.3461 11.0593 17.4514 11.3136 17.4514 11.5789C17.4514 11.8441 17.3461 12.0984 17.1585 12.286C16.971 12.4735 16.7166 12.5789 16.4514 12.5789H8.45142C8.1862 12.5789 7.93185 12.4735 7.74431 12.286C7.55678 12.0984 7.45142 11.8441 7.45142 11.5789C7.45142 11.3136 7.55678 11.0593 7.74431 10.8718C7.93185 10.6842 8.1862 10.5789 8.45142 10.5789Z" fill="#E7E6E2"/>
</svg>
