<svg width="24" height="24" viewBox="0 0 24 24" fill="none" xmlns="http://www.w3.org/2000/svg">
<path d="M21.36 9.88008C21.362 9.08613 21.0491 8.32378 20.49 7.76008L16.24 3.51008C15.6677 2.96707 14.9089 2.66436 14.12 2.66436C13.3311 2.66436 12.5723 2.96707 12 3.51008L3.51 12.0001C2.9482 12.5626 2.63264 13.3251 2.63264 14.1201C2.63264 14.9151 2.9482 15.6776 3.51 16.2401L7.76 20.4901C8.32251 21.0519 9.085 21.3674 9.88 21.3674C10.675 21.3674 11.4375 21.0519 12 20.4901L20.49 12.0001C21.0491 11.4364 21.362 10.674 21.36 9.88008ZM9.73 14.0001L9.88 14.1201C9.97261 14.2139 10.0442 14.3264 10.09 14.4501C10.146 14.5688 10.1734 14.6989 10.17 14.8301C10.1716 14.9601 10.1478 15.0892 10.1 15.2101C10.0483 15.3301 9.97354 15.4388 9.88 15.5301C9.79128 15.6266 9.68188 15.7018 9.56 15.7501C9.43602 15.8005 9.30381 15.8276 9.17 15.8301C9.03933 15.8285 8.91023 15.8013 8.79 15.7501C8.54971 15.6426 8.35746 15.4504 8.25 15.2101C8.1971 15.0904 8.16977 14.961 8.16977 14.8301C8.16977 14.6992 8.1971 14.5698 8.25 14.4501C8.29559 14.3239 8.37108 14.2107 8.47 14.1201C8.58642 14.0048 8.72938 13.9199 8.88632 13.8728C9.04325 13.8257 9.20935 13.8179 9.37 13.8501L9.55 13.9001L9.73 14.0001Z" fill="#E7E6E2"/>
<path d="M3.51 8.76008C3.64231 8.75953 3.77319 8.73273 3.89507 8.68124C4.01694 8.62974 4.12739 8.55457 4.22 8.46008L8.46 4.22008C8.64626 4.03272 8.7508 3.77927 8.7508 3.51508C8.7508 3.25089 8.64626 2.99744 8.46 2.81008C8.27264 2.62383 8.01919 2.51929 7.755 2.51929C7.49082 2.51929 7.23737 2.62383 7.05 2.81008L2.81 7.05008C2.62375 7.23744 2.51921 7.49089 2.51921 7.75508C2.51921 8.01927 2.62375 8.27272 2.81 8.46008C2.99463 8.64849 3.24623 8.75632 3.51 8.76008Z" fill="#E7E6E2"/>
<path d="M21.19 15.5401C21.0026 15.3538 20.7492 15.2493 20.485 15.2493C20.2208 15.2493 19.9674 15.3538 19.78 15.5401L15.54 19.7801C15.3996 19.9194 15.3036 20.0971 15.2642 20.2909C15.2248 20.4848 15.2438 20.6859 15.3187 20.8689C15.3937 21.052 15.5212 21.2087 15.6852 21.3192C15.8491 21.4298 16.0422 21.4893 16.24 21.4901C16.3723 21.4895 16.5032 21.4627 16.6251 21.4112C16.7469 21.3597 16.8574 21.2846 16.95 21.1901L21.19 17.0001C21.2899 16.9065 21.3696 16.7935 21.424 16.6679C21.4785 16.5424 21.5066 16.4069 21.5066 16.2701C21.5066 16.1332 21.4785 15.9978 21.424 15.8722C21.3696 15.7467 21.2899 15.6336 21.19 15.5401Z" fill="#E7E6E2"/>
</svg>
