<svg width="24" height="24" viewBox="0 0 24 24" fill="none" xmlns="http://www.w3.org/2000/svg">
<path d="M16 2H8C7.20435 2 6.44129 2.31607 5.87868 2.87868C5.31607 3.44129 5 4.20435 5 5V19C5 19.7956 5.31607 20.5587 5.87868 21.1213C6.44129 21.6839 7.20435 22 8 22H16C16.7956 22 17.5587 21.6839 18.1213 21.1213C18.6839 20.5587 19 19.7956 19 19V5C19 4.20435 18.6839 3.44129 18.1213 2.87868C17.5587 2.31607 16.7956 2 16 2ZM12.56 16.17L12.71 16.29C12.7989 16.3792 12.8701 16.4844 12.92 16.6C12.9966 16.7821 13.0175 16.9828 12.9801 17.1768C12.9428 17.3708 12.8488 17.5494 12.71 17.69C12.6105 17.778 12.4995 17.852 12.38 17.91C12.1972 17.9843 11.9966 18.0028 11.8033 17.9633C11.61 17.9238 11.4327 17.828 11.2937 17.688C11.1547 17.5479 11.0603 17.3699 11.0223 17.1763C10.9842 16.9827 11.0043 16.7822 11.08 16.6C11.1306 16.4788 11.2017 16.3672 11.29 16.27C11.4074 16.1531 11.5521 16.0673 11.7109 16.0201C11.8698 15.973 12.0378 15.9661 12.2 16L12.38 16.08C12.4437 16.1019 12.5043 16.1322 12.56 16.17Z" fill="#E7E6E2"/>
</svg>
