<svg width="24" height="24" viewBox="0 0 24 24" fill="none" xmlns="http://www.w3.org/2000/svg">
<path fill-rule="evenodd" clip-rule="evenodd" d="M4.71 2.28994L11.86 9.44994L22.71 20.2899C22.8037 20.3829 22.8781 20.4935 22.9289 20.6154C22.9797 20.7372 23.0058 20.8679 23.0058 20.9999C23.0058 21.132 22.9797 21.2627 22.9289 21.3845C22.8781 21.5064 22.8037 21.617 22.71 21.7099C22.617 21.8037 22.5064 21.8781 22.3846 21.9288C22.2627 21.9796 22.132 22.0057 22 22.0057C21.868 22.0057 21.7373 21.9796 21.6154 21.9288C21.4936 21.8781 21.383 21.8037 21.29 21.7099L18.59 18.9999H4C3.20435 18.9999 2.44129 18.6839 1.87868 18.1213C1.31607 17.5587 1 16.7956 1 15.9999V7.99994C1 7.20429 1.31607 6.44123 1.87868 5.87862C2.44129 5.31601 3.20435 4.99994 4 4.99994H4.59L3.29 3.70994C3.1017 3.52164 2.99591 3.26624 2.99591 2.99994C2.99591 2.73364 3.1017 2.47824 3.29 2.28994C3.38324 2.1967 3.49393 2.12274 3.61575 2.07228C3.73757 2.02182 3.86814 1.99585 4 1.99585C4.13186 1.99585 4.26243 2.02182 4.38425 2.07228C4.50607 2.12274 4.61676 2.1967 4.71 2.28994ZM12.46 12.8799C12.3185 12.9563 12.1608 12.9975 12 12.9999C11.7348 12.9999 11.4804 12.8946 11.2929 12.707C11.1054 12.5195 11 12.2652 11 11.9999C11.0024 11.8392 11.0436 11.6814 11.12 11.5399L9.69 10.0999C9.24713 10.6344 9.00328 11.3059 9 11.9999C9 12.7956 9.31607 13.5587 9.87868 14.1213C10.4413 14.6839 11.2044 14.9999 12 14.9999C12.6941 14.9967 13.3656 14.7528 13.9 14.3099L12.46 12.8799ZM5.44443 11.1685C5.60888 11.0586 5.80222 10.9999 6 10.9999C6.26522 10.9999 6.51957 11.1053 6.70711 11.2928C6.89464 11.4804 7 11.7347 7 11.9999C7 12.1977 6.94135 12.3911 6.83147 12.5555C6.72159 12.72 6.56541 12.8481 6.38268 12.9238C6.19996 12.9995 5.99889 13.0193 5.80491 12.9807C5.61093 12.9421 5.43275 12.8469 5.29289 12.707C5.15304 12.5672 5.0578 12.389 5.01921 12.195C4.98063 12.001 5.00043 11.8 5.07612 11.6173C5.15181 11.4345 5.27998 11.2784 5.44443 11.1685Z" fill="#E7E6E2"/>
<path d="M20 4.99994H12.66C12.3948 4.99994 12.1404 5.1053 11.9529 5.29283C11.7654 5.48037 11.66 5.73472 11.66 5.99994C11.66 6.26516 11.7654 6.51951 11.9529 6.70705L21.2929 16.047C21.4804 16.2346 21.7348 16.3399 22 16.3399C22.2652 16.3399 22.5196 16.2346 22.7071 16.047C22.8946 15.8595 23 15.6052 23 15.3399V7.99994C23 7.20429 22.6839 6.44123 22.1213 5.87862C21.5587 5.31601 20.7956 4.99994 20 4.99994Z" fill="#E7E6E2"/>
</svg>
