<svg width="24" height="24" viewBox="0 0 24 24" fill="none" xmlns="http://www.w3.org/2000/svg">
<path d="M23 14.0073C22.1648 14.6369 21.1264 15.0107 20 15.0107H14V18.0215H20C21.6534 18.0215 23 16.6711 23 15.0107V14.0073Z" fill="#E7E6E2"/>
<path d="M10 15.0107H4C2.87365 15.0107 1.83522 14.6369 1 14.0073V15.0107C1 16.6711 2.34663 18.0215 4 18.0215H10V15.0107Z" fill="#E7E6E2"/>
<path d="M1 20V19.018C1.83522 19.6476 2.87365 20.0215 4 20.0215H10V23H4C3.20435 23 2.44129 22.6839 1.87868 22.1213C1.31607 21.5587 1 20.7956 1 20Z" fill="#E7E6E2"/>
<path d="M14 23V20.0215H20C21.1264 20.0215 22.1648 19.6476 23 19.018V20C23 20.7956 22.6839 21.5587 22.1213 22.1213C21.5587 22.6839 20.7956 23 20 23H14Z" fill="#E7E6E2"/>
<path fill-rule="evenodd" clip-rule="evenodd" d="M4 1H20C20.7956 1 21.5587 1.31607 22.1213 1.87868C22.6839 2.44129 23 3.20435 23 4V10C23 11.6603 21.6534 13.0107 20 13.0107H4C2.34663 13.0107 1 11.6603 1 10V4C1 3.20435 1.31607 2.44129 1.87868 1.87868C2.44129 1.31607 3.20435 1 4 1ZM6.55557 7.83147C6.39112 7.94135 6.19778 8 6 8C5.73478 8 5.48043 7.89464 5.29289 7.70711C5.10536 7.51957 5 7.26522 5 7C5 6.80222 5.05865 6.60888 5.16853 6.44443C5.27841 6.27998 5.43459 6.15181 5.61732 6.07612C5.80004 6.00043 6.00111 5.98063 6.19509 6.01921C6.38907 6.0578 6.56725 6.15304 6.70711 6.29289C6.84696 6.43275 6.9422 6.61093 6.98079 6.80491C7.01937 6.99889 6.99957 7.19996 6.92388 7.38268C6.84819 7.56541 6.72002 7.72159 6.55557 7.83147ZM18 6C17.8022 6 17.6089 6.05865 17.4444 6.16853C17.28 6.27841 17.1518 6.43459 17.0761 6.61732C17.0004 6.80004 16.9806 7.00111 17.0192 7.19509C17.0578 7.38907 17.153 7.56725 17.2929 7.70711C17.4327 7.84696 17.6109 7.9422 17.8049 7.98079C17.9989 8.01937 18.2 7.99957 18.3827 7.92388C18.5654 7.84819 18.7216 7.72002 18.8315 7.55557C18.9414 7.39112 19 7.19778 19 7C19 6.73478 18.8946 6.48043 18.7071 6.29289C18.5196 6.10536 18.2652 6 18 6ZM10 3H14V11H10V3Z" fill="#E7E6E2"/>
</svg>
