<svg width="24" height="24" viewBox="0 0 24 24" fill="none" xmlns="http://www.w3.org/2000/svg">
<path d="M20 5H4C3.20435 5 2.44129 5.31607 1.87868 5.87868C1.31607 6.44129 1 7.20435 1 8V16C1 16.7956 1.31607 17.5587 1.87868 18.1213C2.44129 18.6839 3.20435 19 4 19H20C20.7956 19 21.5587 18.6839 22.1213 18.1213C22.6839 17.5587 23 16.7956 23 16V8C23 7.20435 22.6839 6.44129 22.1213 5.87868C21.5587 5.31607 20.7956 5 20 5ZM9.22836 10.8519C9.45542 10.3038 9.83994 9.83524 10.3333 9.50559C10.8266 9.17595 11.4067 9 12 9C12.7956 9 13.5587 9.31607 14.1213 9.87868C14.6839 10.4413 15 11.2044 15 12C15 12.5933 14.8241 13.1734 14.4944 13.6667C14.1648 14.1601 13.6962 14.5446 13.1481 14.7716C12.5999 14.9987 11.9967 15.0581 11.4147 14.9424C10.8328 14.8266 10.2982 14.5409 9.87868 14.1213C9.45912 13.7018 9.1734 13.1672 9.05764 12.5853C8.94189 12.0033 9.0013 11.4001 9.22836 10.8519ZM12 13C11.8022 13 11.6089 12.9414 11.4444 12.8315C11.28 12.7216 11.1518 12.5654 11.0761 12.3827C11.0004 12.2 10.9806 11.9989 11.0192 11.8049C11.0578 11.6109 11.153 11.4327 11.2929 11.2929C11.4327 11.153 11.6109 11.0578 11.8049 11.0192C11.9989 10.9806 12.2 11.0004 12.3827 11.0761C12.5654 11.1518 12.7216 11.28 12.8315 11.4444C12.9414 11.6089 13 11.8022 13 12C13 12.2652 12.8946 12.5196 12.7071 12.7071C12.5196 12.8946 12.2652 13 12 13ZM5.44443 11.1685C5.60888 11.0586 5.80222 11 6 11C6.26522 11 6.51957 11.1054 6.70711 11.2929C6.89464 11.4804 7 11.7348 7 12C7 12.1978 6.94135 12.3911 6.83147 12.5556C6.72159 12.72 6.56541 12.8482 6.38268 12.9239C6.19996 12.9996 5.99889 13.0194 5.80491 12.9808C5.61093 12.9422 5.43275 12.847 5.29289 12.7071C5.15304 12.5673 5.0578 12.3891 5.01921 12.1951C4.98063 12.0011 5.00043 11.8 5.07612 11.6173C5.15181 11.4346 5.27998 11.2784 5.44443 11.1685ZM18 11C18.2652 11 18.5196 11.1054 18.7071 11.2929C18.8946 11.4804 19 11.7348 19 12C19 12.1978 18.9414 12.3911 18.8315 12.5556C18.7216 12.72 18.5654 12.8482 18.3827 12.9239C18.2 12.9996 17.9989 13.0194 17.8049 12.9808C17.6109 12.9422 17.4327 12.847 17.2929 12.7071C17.153 12.5673 17.0578 12.3891 17.0192 12.1951C16.9806 12.0011 17.0004 11.8 17.0761 11.6173C17.1518 11.4346 17.28 11.2784 17.4444 11.1685C17.6089 11.0586 17.8022 11 18 11Z" fill="#E7E6E2"/>
</svg>
