<svg width="24" height="24" viewBox="0 0 24 24" fill="none" xmlns="http://www.w3.org/2000/svg">
<path d="M11 4.89867L10.46 5.48867C10.2664 5.68227 10.0038 5.79104 9.72998 5.79104C9.45617 5.79104 9.19359 5.68227 8.99998 5.48867C8.80637 5.29506 8.6976 5.03247 8.6976 4.75867C8.6976 4.48486 8.80637 4.22227 8.99998 4.02867L11.29 1.77867C11.3851 1.68763 11.4972 1.61626 11.62 1.56867C11.8634 1.46865 12.1365 1.46865 12.38 1.56867C12.5027 1.61626 12.6149 1.68763 12.71 1.77867L15 4.06867C15.0937 4.16163 15.1681 4.27223 15.2189 4.39409C15.2696 4.51595 15.2958 4.64665 15.2958 4.77867C15.2958 4.91068 15.2696 5.04138 15.2189 5.16324C15.1681 5.2851 15.0937 5.3957 15 5.48867C14.9037 5.58606 14.7885 5.66266 14.6614 5.7137C14.5344 5.76474 14.3982 5.78914 14.2613 5.78539C14.1244 5.78164 13.9898 5.74982 13.8657 5.6919C13.7416 5.63398 13.6307 5.55119 13.54 5.44867L13 4.89867V8.48867C13 8.75388 12.8946 9.00824 12.7071 9.19577C12.5195 9.38331 12.2652 9.48867 12 9.48867C11.7348 9.48867 11.4804 9.38331 11.2929 9.19577C11.1053 9.00824 11 8.75388 11 8.48867V4.89867Z" fill="#E7E6E2"/>
<path d="M11.9636 16.47C11.7658 16.47 11.5725 16.4113 11.4081 16.3014C11.2436 16.1916 11.1154 16.0354 11.0397 15.8527C10.9641 15.6699 10.9443 15.4689 10.9828 15.2749C11.0214 15.0809 11.1167 14.9027 11.2565 14.7629C11.3964 14.623 11.5746 14.5278 11.7685 14.4892C11.9625 14.4506 12.1636 14.4704 12.3463 14.5461C12.529 14.6218 12.6852 14.75 12.7951 14.9144C12.905 15.0788 12.9636 15.2722 12.9636 15.47C12.9636 15.7352 12.8583 15.9895 12.6707 16.1771C12.4832 16.3646 12.2288 16.47 11.9636 16.47Z" fill="#E7E6E2"/>
<path d="M3.96362 8.46997H8.99998V8.48867C8.99998 9.28432 9.31605 10.0474 9.87866 10.61C10.4413 11.1726 11.2043 11.4887 12 11.4887C12.7956 11.4887 13.5587 11.1726 14.1213 10.61C14.6839 10.0474 15 9.28432 15 8.48867V8.46997H19.9636C20.7593 8.46997 21.5223 8.78604 22.0849 9.34865C22.6476 9.91126 22.9636 10.6743 22.9636 11.47V19.47C22.9636 20.2656 22.6476 21.0287 22.0849 21.5913C21.5223 22.1539 20.7593 22.47 19.9636 22.47H3.96362C3.16797 22.47 2.40491 22.1539 1.8423 21.5913C1.27969 21.0287 0.963623 20.2656 0.963623 19.47V11.47C0.963623 10.6743 1.27969 9.91126 1.8423 9.34865C2.40491 8.78604 3.16797 8.46997 3.96362 8.46997ZM10.2969 12.9756C9.80357 13.3052 9.41905 13.7737 9.19198 14.3219C8.96492 14.8701 8.90551 15.4733 9.02127 16.0552C9.13702 16.6372 9.42274 17.1717 9.8423 17.5913C10.2619 18.0108 10.7964 18.2966 11.3784 18.4123C11.9603 18.5281 12.5635 18.4687 13.1117 18.2416C13.6599 18.0145 14.1284 17.63 14.458 17.1367C14.7877 16.6433 14.9636 16.0633 14.9636 15.47C14.9636 14.6743 14.6476 13.9113 14.0849 13.3486C13.5223 12.786 12.7593 12.47 11.9636 12.47C11.3703 12.47 10.7903 12.6459 10.2969 12.9756ZM5.13215 16.0255C5.24203 16.19 5.39821 16.3182 5.58094 16.3939C5.76367 16.4695 5.96473 16.4893 6.15871 16.4508C6.35269 16.4122 6.53088 16.3169 6.67073 16.1771C6.81058 16.0372 6.90582 15.859 6.94441 15.6651C6.98299 15.4711 6.96319 15.27 6.8875 15.0873C6.81182 14.9046 6.68364 14.7484 6.51919 14.6385C6.35474 14.5286 6.1614 14.47 5.96362 14.47C5.69841 14.47 5.44405 14.5753 5.25652 14.7629C5.06898 14.9504 4.96362 15.2048 4.96362 15.47C4.96362 15.6678 5.02227 15.8611 5.13215 16.0255ZM18.7951 14.9144C18.6852 14.75 18.529 14.6218 18.3463 14.5461C18.1636 14.4704 17.9625 14.4506 17.7685 14.4892C17.5746 14.5278 17.3964 14.623 17.2565 14.7629C17.1167 14.9027 17.0214 15.0809 16.9828 15.2749C16.9443 15.4689 16.9641 15.6699 17.0397 15.8527C17.1154 16.0354 17.2436 16.1916 17.4081 16.3014C17.5725 16.4113 17.7658 16.47 17.9636 16.47C18.2288 16.47 18.4832 16.3646 18.6707 16.1771C18.8583 15.9895 18.9636 15.7352 18.9636 15.47C18.9636 15.2722 18.905 15.0788 18.7951 14.9144Z" fill="#E7E6E2"/>
</svg>
