<svg width="24" height="24" viewBox="0 0 24 24" fill="none" xmlns="http://www.w3.org/2000/svg">
<path d="M13.0471 5.6027L13.5871 5.0127C13.7807 4.81909 14.0432 4.71032 14.3171 4.71032C14.5909 4.71032 14.8534 4.81909 15.0471 5.0127C15.2407 5.2063 15.3494 5.46889 15.3494 5.7427C15.3494 6.0165 15.2407 6.27909 15.0471 6.4727L12.7571 8.7227C12.6619 8.81374 12.5498 8.8851 12.4271 8.9327C12.1836 9.03271 11.9105 9.03271 11.6671 8.9327C11.5443 8.8851 11.4322 8.81374 11.3371 8.7227L9.04705 6.4327C8.95332 6.33973 8.87893 6.22913 8.82816 6.10727C8.77739 5.98541 8.75125 5.85471 8.75125 5.7227C8.75125 5.59068 8.77739 5.45998 8.82816 5.33812C8.87893 5.21626 8.95332 5.10566 9.04705 5.0127C9.1433 4.9153 9.25853 4.8387 9.38559 4.78766C9.51265 4.73662 9.64885 4.71222 9.78573 4.71597C9.92261 4.71972 10.0573 4.75154 10.1813 4.80946C10.3054 4.86739 10.4163 4.95017 10.5071 5.0527L11.0471 5.6027L11.0471 2.0127C11.0471 1.74748 11.1524 1.49313 11.3399 1.30559C11.5275 1.11805 11.7818 1.0127 12.0471 1.0127C12.3123 1.0127 12.5666 1.11805 12.7542 1.30559C12.9417 1.49313 13.0471 1.74748 13.0471 2.0127L13.0471 5.6027Z" fill="#E7E6E2"/>
<path d="M12 15.9999C11.8022 15.9999 11.6089 15.9412 11.4444 15.8314C11.28 15.7215 11.1518 15.5653 11.0761 15.3826C11.0004 15.1999 10.9806 14.9988 11.0192 14.8048C11.0578 14.6108 11.153 14.4326 11.2929 14.2928C11.4327 14.1529 11.6109 14.0577 11.8049 14.0191C11.9989 13.9805 12.2 14.0003 12.3827 14.076C12.5654 14.1517 12.7216 14.2799 12.8315 14.4443C12.9414 14.6088 13 14.8021 13 14.9999C13 15.2651 12.8946 15.5195 12.7071 15.707C12.5196 15.8945 12.2652 15.9999 12 15.9999Z" fill="#E7E6E2"/>
<path d="M4 7.9999H7.78583L9.93827 10.1523L9.95404 10.1674C10.2345 10.436 10.5645 10.6474 10.9255 10.7902C11.645 11.0802 12.449 11.0802 13.1686 10.7902C13.5296 10.6474 13.8596 10.436 14.1401 10.1674L14.1495 10.1584L16.3464 7.9999H20C20.7956 7.9999 21.5587 8.31597 22.1213 8.87858C22.6839 9.44118 23 10.2042 23 10.9999V18.9999C23 19.7955 22.6839 20.5586 22.1213 21.1212C21.5587 21.6838 20.7956 21.9999 20 21.9999H4C3.20435 21.9999 2.44129 21.6838 1.87868 21.1212C1.31607 20.5586 1 19.7955 1 18.9999V10.9999C1 10.2042 1.31607 9.44118 1.87868 8.87858C2.44129 8.31597 3.20435 7.9999 4 7.9999ZM10.3333 12.5055C9.83994 12.8351 9.45542 13.3037 9.22836 13.8518C9.0013 14.4 8.94189 15.0032 9.05764 15.5852C9.1734 16.1671 9.45912 16.7017 9.87868 17.1212C10.2982 17.5408 10.8328 17.8265 11.4147 17.9423C11.9967 18.058 12.5999 17.9986 13.1481 17.7715C13.6962 17.5445 14.1648 17.16 14.4944 16.6666C14.8241 16.1733 15 15.5932 15 14.9999C15 14.2042 14.6839 13.4412 14.1213 12.8786C13.5587 12.316 12.7956 11.9999 12 11.9999C11.4067 11.9999 10.8266 12.1758 10.3333 12.5055ZM18.8315 14.4443C18.7216 14.2799 18.5654 14.1517 18.3827 14.076C18.2 14.0003 17.9989 13.9805 17.8049 14.0191C17.6109 14.0577 17.4327 14.1529 17.2929 14.2928C17.153 14.4326 17.0578 14.6108 17.0192 14.8048C16.9806 14.9988 17.0004 15.1999 17.0761 15.3826C17.1518 15.5653 17.28 15.7215 17.4444 15.8314C17.6089 15.9412 17.8022 15.9999 18 15.9999C18.2652 15.9999 18.5196 15.8945 18.7071 15.707C18.8946 15.5195 19 15.2651 19 14.9999C19 14.8021 18.9414 14.6088 18.8315 14.4443ZM5.16853 15.5555C5.27841 15.7199 5.43459 15.8481 5.61732 15.9238C5.80004 15.9995 6.00111 16.0193 6.19509 15.9807C6.38907 15.9421 6.56725 15.8469 6.70711 15.707C6.84696 15.5672 6.9422 15.389 6.98079 15.195C7.01937 15.001 6.99957 14.7999 6.92388 14.6172C6.84819 14.4345 6.72002 14.2783 6.55557 14.1684C6.39112 14.0585 6.19778 13.9999 6 13.9999C5.73478 13.9999 5.48043 14.1053 5.29289 14.2928C5.10536 14.4803 5 14.7347 5 14.9999C5 15.1977 5.05865 15.391 5.16853 15.5555Z" fill="#E7E6E2"/>
</svg>
