<svg width="24" height="24" viewBox="0 0 24 24" fill="none" xmlns="http://www.w3.org/2000/svg">
<path d="M22 2H2C1.73478 2 1.48043 2.10536 1.29289 2.29289C1.10536 2.48043 1 2.73478 1 3V11C1 11.2652 1.10536 11.5196 1.29289 11.7071C1.48043 11.8946 1.73478 12 2 12H3V4H21V12H22C22.2652 12 22.5196 11.8946 22.7071 11.7071C22.8946 11.5196 23 11.2652 23 11V3C23 2.73478 22.8946 2.48043 22.7071 2.29289C22.5196 2.10536 22.2652 2 22 2Z" fill="#E7E6E2"/>
<path d="M5 21C5 21.2652 5.10536 21.5196 5.29289 21.7071C5.48043 21.8946 5.73478 22 6 22H18C18.2652 22 18.5196 21.8946 18.7071 21.7071C18.8946 21.5196 19 21.2652 19 21V7C19 6.73478 18.8946 6.48043 18.7071 6.29289C18.5196 6.10536 18.2652 6 18 6H6C5.73478 6 5.48043 6.10536 5.29289 6.29289C5.10536 6.48043 5 6.73478 5 7V21ZM8.41421 18.5858C8.03914 18.2107 7.53043 18 7 18V16C8.06087 16 9.07828 16.4214 9.82843 17.1716C10.5786 17.9217 11 18.9391 11 20H9C9 19.4696 8.78929 18.9609 8.41421 18.5858ZM15.5858 18.5858C15.2107 18.9609 15 19.4696 15 20H13C13 18.9391 13.4214 17.9217 14.1716 17.1716C14.9217 16.4214 15.9391 16 17 16V18C16.4696 18 15.9609 18.2107 15.5858 18.5858ZM13.6667 14.4944C13.1734 14.8241 12.5933 15 12 15C11.2044 15 10.4413 14.6839 9.87868 14.1213C9.31607 13.5587 9 12.7956 9 12C9 11.4067 9.17595 10.8266 9.50559 10.3333C9.83524 9.83994 10.3038 9.45542 10.8519 9.22836C11.4001 9.0013 12.0033 8.94189 12.5853 9.05764C13.1672 9.1734 13.7018 9.45912 14.1213 9.87868C14.5409 10.2982 14.8266 10.8328 14.9424 11.4147C15.0581 11.9967 14.9987 12.5999 14.7716 13.1481C14.5446 13.6962 14.1601 14.1648 13.6667 14.4944Z" fill="#E7E6E2"/>
<path d="M12 11C12.1978 11 12.3911 11.0586 12.5556 11.1685C12.72 11.2784 12.8482 11.4346 12.9239 11.6173C12.9996 11.8 13.0194 12.0011 12.9808 12.1951C12.9422 12.3891 12.847 12.5673 12.7071 12.7071C12.5673 12.847 12.3891 12.9422 12.1951 12.9808C12.0011 13.0194 11.8 12.9996 11.6173 12.9239C11.4346 12.8482 11.2784 12.72 11.1685 12.5556C11.0586 12.3911 11 12.1978 11 12C11 11.7348 11.1054 11.4804 11.2929 11.2929C11.4804 11.1054 11.7348 11 12 11Z" fill="#E7E6E2"/>
</svg>
