<svg width="24" height="24" viewBox="0 0 24 24" fill="none" xmlns="http://www.w3.org/2000/svg">
<path d="M19.4401 13.0001C19.2201 13.0001 18.9901 12.9301 18.7701 12.8801C18.3246 12.7819 17.8868 12.6516 17.4601 12.4901C16.9962 12.3213 16.4862 12.3301 16.0284 12.5147C15.5706 12.6993 15.1972 13.0467 14.9801 13.4901L14.7601 13.9401C13.7861 13.3983 12.8911 12.7253 12.1001 11.9401C11.3149 11.1491 10.6419 10.2541 10.1001 9.28011L10.5201 9.00011C10.9635 8.78303 11.3109 8.40964 11.4955 7.9518C11.6801 7.49396 11.6889 6.98402 11.5201 6.52011C11.3613 6.09253 11.231 5.65491 11.1301 5.21011C11.0801 4.99011 11.0401 4.76011 11.0101 4.53011C10.8887 3.82573 10.5197 3.18785 9.96972 2.73135C9.41972 2.27485 8.7248 2.02972 8.0101 2.04011H5.0101C4.57913 2.03607 4.15235 2.12493 3.75881 2.30064C3.36527 2.47636 3.01421 2.73481 2.72953 3.05839C2.44485 3.38198 2.23324 3.76311 2.10909 4.17583C1.98494 4.58855 1.95118 5.02317 2.0101 5.45011C2.54284 9.63949 4.45613 13.532 7.44775 16.5127C10.4394 19.4935 14.3388 21.3926 18.5301 21.9101H18.9101C19.6475 21.9112 20.3595 21.6406 20.9101 21.1501C21.2265 20.8672 21.4792 20.5203 21.6516 20.1324C21.8239 19.7446 21.9121 19.3245 21.9101 18.9001V15.9001C21.8979 15.2055 21.6449 14.5367 21.1944 14.0078C20.744 13.4789 20.1239 13.1227 19.4401 13.0001ZM21.8601 2.68011C21.7586 2.43576 21.5644 2.24159 21.3201 2.14011C21.1999 2.08887 21.0708 2.06169 20.9401 2.06011H16.9401C16.6749 2.06011 16.4205 2.16547 16.233 2.35301C16.0455 2.54054 15.9401 2.7949 15.9401 3.06011C15.9401 3.32533 16.0455 3.57968 16.233 3.76722C16.4205 3.95476 16.6749 4.06011 16.9401 4.06011H18.5201L15.2301 7.36011C15.0438 7.54747 14.9393 7.80093 14.9393 8.06511C14.9393 8.3293 15.0438 8.58275 15.2301 8.77011C15.4175 8.95636 15.6709 9.0609 15.9351 9.0609C16.1993 9.0609 16.4527 8.95636 16.6401 8.77011L19.9401 5.48011V7.06011C19.9401 7.32533 20.0455 7.57968 20.233 7.76722C20.4205 7.95476 20.6749 8.06011 20.9401 8.06011C21.2053 8.06011 21.4597 7.95476 21.6472 7.76722C21.8347 7.57968 21.9401 7.32533 21.9401 7.06011V3.06011C21.9385 2.92944 21.9113 2.80033 21.8601 2.68011Z" fill="#E7E6E2"/>
</svg>
