<svg width="24" height="24" viewBox="0 0 24 24" fill="none" xmlns="http://www.w3.org/2000/svg">
<path fill-rule="evenodd" clip-rule="evenodd" d="M19 6C19 3.23858 16.7614 1 14 1C11.2386 1 9 3.23858 9 6V16C9 17.6569 10.3431 19 12 19C13.6569 19 15 17.6569 15 16V8C15 7.44772 14.5523 7 14 7C13.4477 7 13 7.44772 13 8V16C13 16.5523 12.5523 17 12 17C11.4477 17 11 16.5523 11 16V6C11 4.34315 12.3431 3 14 3C15.6569 3 17 4.34315 17 6V16C17 18.7614 14.7614 21 12 21C9.23858 21 7 18.7614 7 16V8C7 7.44772 6.55229 7 6 7C5.44771 7 5 7.44772 5 8V16C5 19.866 8.13401 23 12 23C15.866 23 19 19.866 19 16V6Z" fill="#E7E6E2"/>
</svg>
