<svg width="24" height="24" viewBox="0 0 24 24" fill="none" xmlns="http://www.w3.org/2000/svg">
<path d="M21.9258 6.85611C21.9756 6.97795 22.0008 7.10841 22 7.24002L21.93 7.29002C21.9347 7.33657 21.9347 7.38347 21.93 7.43002C21.9397 7.50973 21.9397 7.59031 21.93 7.67002C21.8757 7.79155 21.8013 7.9031 21.71 8.00002L19.5947 10.0706L13.9321 4.40798L16.05 2.29002C16.1435 2.19734 16.2543 2.12401 16.3761 2.07425C16.4979 2.02448 16.6284 1.99926 16.76 2.00002C16.8916 1.99926 17.0221 2.02448 17.1439 2.07425C17.2658 2.12401 17.3766 2.19734 17.47 2.29002L21.71 6.53002C21.8027 6.62346 21.876 6.73427 21.9258 6.85611Z" fill="#E7E6E2"/>
<path d="M12.5178 5.82219L18.1748 11.4791L8.00002 21.71C7.90073 21.8089 7.78176 21.8858 7.65084 21.9358C7.51991 21.9857 7.37994 22.0076 7.24002 22H3.00002C2.7348 22 2.48045 21.8947 2.29291 21.7071C2.10537 21.5196 2.00002 21.2652 2.00002 21V16.76C1.99926 16.6284 2.02448 16.4979 2.07425 16.3761C2.12401 16.2543 2.19734 16.1435 2.29002 16.05L12.5178 5.82219Z" fill="#E7E6E2"/>
</svg>
