<svg width="24" height="24" viewBox="0 0 24 24" fill="none" xmlns="http://www.w3.org/2000/svg">
<path d="M18 1.53784H6C5.20435 1.53784 4.44129 1.85391 3.87868 2.41652C3.31607 2.97913 3 3.74219 3 4.53784V15.5378C3 16.3335 3.31607 17.0966 3.87868 17.6592C4.44129 18.2218 5.20435 18.5378 6 18.5378H8.59L11.29 21.2478C11.3834 21.3405 11.4943 21.4138 11.6161 21.4636C11.7379 21.5134 11.8684 21.5386 12 21.5378C12.2383 21.5379 12.4689 21.4527 12.65 21.2978L15.87 18.5378H18C18.7956 18.5378 19.5587 18.2218 20.1213 17.6592C20.6839 17.0966 21 16.3335 21 15.5378V4.53784C21 3.74219 20.6839 2.97913 20.1213 2.41652C19.5587 1.85391 18.7956 1.53784 18 1.53784ZM15.29 8.83784C15.2846 9.56531 15.0345 10.2698 14.58 10.8378C15.4751 11.3787 16.1781 12.1866 16.59 13.1478C16.6932 13.3919 16.6954 13.6669 16.596 13.9125C16.4966 14.1581 16.3039 14.3542 16.06 14.4578C15.936 14.5082 15.8038 14.5353 15.67 14.5378C15.4737 14.5377 15.2818 14.4798 15.1182 14.3713C14.9546 14.2628 14.8266 14.1086 14.75 13.9278C14.5195 13.389 14.1362 12.9295 13.6475 12.6061C13.1588 12.2827 12.586 12.1094 12 12.1078C11.4157 12.1114 10.8451 12.2855 10.3583 12.6088C9.87157 12.9322 9.48983 13.3906 9.26 13.9278C9.21231 14.0537 9.13971 14.1686 9.04655 14.2657C8.95338 14.3629 8.84157 14.4402 8.71782 14.4931C8.59406 14.5459 8.4609 14.5733 8.32632 14.5735C8.19174 14.5737 8.0585 14.5467 7.93459 14.4942C7.81068 14.4417 7.69865 14.3647 7.60521 14.2678C7.51177 14.171 7.43884 14.0562 7.39079 13.9305C7.34274 13.8048 7.32056 13.6707 7.32558 13.5362C7.3306 13.4017 7.36271 13.2696 7.42 13.1478C7.8293 12.188 8.52863 11.3803 9.42 10.8378C8.96551 10.2698 8.71542 9.56531 8.71 8.83784C8.71 7.96528 9.05662 7.12846 9.67362 6.51146C10.2906 5.89447 11.1274 5.54784 12 5.54784C12.8726 5.54784 13.7094 5.89447 14.3264 6.51146C14.9434 7.12846 15.29 7.96528 15.29 8.83784Z" fill="#E7E6E2"/>
<path d="M12 10.1078C11.7444 10.1078 11.4946 10.0319 11.2823 9.88972C11.0699 9.74753 10.9046 9.54547 10.8073 9.30917C10.7099 9.07287 10.685 8.81298 10.7356 8.56247C10.7862 8.31197 10.91 8.08214 11.0914 7.90213C11.2728 7.72213 11.5036 7.60006 11.7545 7.55142C12.0054 7.50278 12.2651 7.52976 12.5006 7.62893C12.7362 7.7281 12.9369 7.895 13.0775 8.10845C13.218 8.3219 13.292 8.57229 13.29 8.82784C13.2874 9.16824 13.1503 9.49379 12.9087 9.73355C12.667 9.97332 12.3404 10.1079 12 10.1078Z" fill="#E7E6E2"/>
</svg>
