<svg width="24" height="24" viewBox="0 0 24 24" fill="none" xmlns="http://www.w3.org/2000/svg">
<path d="M19.5199 12.8899L18.9199 12.7799H18.8399C18.3875 12.6831 17.943 12.5528 17.5099 12.3899C17.0473 12.224 16.5397 12.2342 16.0841 12.4186C15.6286 12.6031 15.2568 12.9489 15.0399 13.3899L14.8299 13.8499C14.1478 13.4554 13.5049 12.9966 12.9099 12.4799L21.7099 3.68992C21.8032 3.59668 21.8771 3.48599 21.9276 3.36417C21.9781 3.24235 22.004 3.11178 22.004 2.97992C22.004 2.84806 21.9781 2.71749 21.9276 2.59567C21.8771 2.47385 21.8032 2.36316 21.7099 2.26992C21.6167 2.17668 21.506 2.10272 21.3842 2.05226C21.2624 2.0018 21.1318 1.97583 20.9999 1.97583C20.8681 1.97583 20.7375 2.0018 20.6157 2.05226C20.4939 2.10272 20.3832 2.17668 20.2899 2.26992L2.28994 20.2699C2.19621 20.3629 2.12182 20.4735 2.07105 20.5953C2.02028 20.7172 1.99414 20.8479 1.99414 20.9799C1.99414 21.1119 2.02028 21.2426 2.07105 21.3645C2.12182 21.4864 2.19621 21.597 2.28994 21.6899C2.3829 21.7837 2.4935 21.858 2.61536 21.9088C2.73722 21.9596 2.86793 21.9857 2.99994 21.9857C3.13195 21.9857 3.26266 21.9596 3.38452 21.9088C3.50637 21.858 3.61698 21.7837 3.70994 21.6899L8.29994 17.0899C11.1725 19.6711 14.7605 21.3204 18.5899 21.8199C18.7231 21.8298 18.8568 21.8298 18.9899 21.8199C19.726 21.8238 20.4379 21.5568 20.9899 21.0699C21.3063 20.787 21.559 20.4401 21.7314 20.0522C21.9038 19.6644 21.9919 19.2444 21.9899 18.8199V15.8199C21.9846 15.1201 21.7348 14.4442 21.2837 13.9091C20.8327 13.3741 20.2088 13.0135 19.5199 12.8899Z" fill="#E7E6E2"/>
<path d="M4.90994 13.0999C5.00001 13.244 5.12532 13.3628 5.27404 13.4451C5.42277 13.5273 5.58999 13.5703 5.75994 13.5699C5.94491 13.5752 6.12772 13.5291 6.28803 13.4367C6.44834 13.3443 6.57987 13.2092 6.66797 13.0464L9.50994 10.1499C9.67335 10.0562 9.80698 9.9183 9.89544 9.752C9.9839 9.5857 10.0236 9.39779 10.0099 9.20992L10.5799 8.99992C11.0323 8.79153 11.3907 8.42182 11.5849 7.96314C11.7791 7.50446 11.7952 6.98982 11.6299 6.51992C11.4685 6.09667 11.3381 5.66218 11.2399 5.21992V5.11992C11.2399 4.91992 11.1599 4.71992 11.1299 4.53992C11.02 3.83153 10.6601 3.18591 10.1153 2.71998C9.57045 2.25405 8.87681 1.99861 8.15994 1.99992H5.15994C4.73046 1.99367 4.30466 2.07972 3.91131 2.25224C3.51796 2.42476 3.16624 2.67974 2.87994 2.99992C2.59539 3.32326 2.38381 3.70408 2.25957 4.11648C2.13533 4.52889 2.10135 4.96321 2.15994 5.38992C2.50709 8.12883 3.44542 10.7596 4.90994 13.0999Z" fill="#E7E6E2"/>
</svg>
