<svg width="24" height="24" viewBox="0 0 24 24" fill="none" xmlns="http://www.w3.org/2000/svg">
<path d="M19.44 13.0001C19.22 13.0001 18.99 12.9301 18.77 12.8801C18.3245 12.7819 17.8866 12.6516 17.46 12.4901C16.9961 12.3213 16.4861 12.3301 16.0283 12.5147C15.5704 12.6993 15.1971 13.0467 14.98 13.4901L14.76 13.9401C13.786 13.3983 12.891 12.7253 12.1 11.9401C11.3147 11.1491 10.6418 10.2541 10.1 9.28011L10.52 9.00011C10.9633 8.78303 11.3108 8.40964 11.4954 7.9518C11.68 7.49396 11.6888 6.98402 11.52 6.52011C11.3612 6.09253 11.2309 5.65491 11.13 5.21011C11.08 4.99011 11.04 4.76011 11.01 4.53011C10.8885 3.82573 10.5196 3.18785 9.9696 2.73135C9.4196 2.27485 8.72467 2.02972 8.00998 2.04011H5.00998C4.57901 2.03607 4.15223 2.12493 3.75869 2.30064C3.36515 2.47636 3.01409 2.73481 2.72941 3.05839C2.44473 3.38198 2.23311 3.76311 2.10897 4.17583C1.98482 4.58855 1.95106 5.02317 2.00998 5.45011C2.54272 9.63949 4.45601 13.532 7.44763 16.5127C10.4393 19.4935 14.3387 21.3926 18.53 21.9101H18.91C19.6474 21.9112 20.3594 21.6406 20.91 21.1501C21.2263 20.8672 21.4791 20.5203 21.6514 20.1324C21.8238 19.7446 21.9119 19.3245 21.91 18.9001V15.9001C21.8977 15.2055 21.6448 14.5367 21.1943 14.0078C20.7439 13.4789 20.1238 13.1227 19.44 13.0001Z" fill="#E7E6E2"/>
</svg>
