<svg width="24" height="24" viewBox="0 0 24 24" fill="none" xmlns="http://www.w3.org/2000/svg">
<path d="M18.54 9.00003L8.87997 3.46003C8.35725 3.15819 7.76397 3.00006 7.16036 3.00172C6.55676 3.00338 5.96435 3.16476 5.4433 3.46947C4.92225 3.77417 4.49112 4.21135 4.19372 4.7366C3.89631 5.26185 3.74321 5.85646 3.74997 6.46003V17.58C3.74997 18.4871 4.11029 19.357 4.75167 19.9983C5.39304 20.6397 6.26293 21 7.16997 21C7.77041 20.999 8.36006 20.8404 8.87997 20.54L18.54 15C19.059 14.6996 19.49 14.268 19.7896 13.7485C20.0891 13.2289 20.2468 12.6397 20.2468 12.04C20.2468 11.4403 20.0891 10.8511 19.7896 10.3316C19.49 9.81206 19.059 9.38044 18.54 9.08003V9.00003Z" fill="#E7E6E2"/>
</svg>
