<svg width="24" height="24" viewBox="0 0 24 24" fill="none" xmlns="http://www.w3.org/2000/svg">
<path d="M18 6H19C19.7956 6 20.5587 6.31607 21.1213 6.87868C21.6839 7.44129 22 8.20435 22 9V15C22 15.7956 21.6839 16.5587 21.1213 17.1213C20.5587 17.6839 19.7956 18 19 18H18V21C18 21.2652 17.8946 21.5196 17.7071 21.7071C17.5196 21.8946 17.2652 22 17 22H7C6.73478 22 6.48043 21.8946 6.29289 21.7071C6.10536 21.5196 6 21.2652 6 21V18H5C4.20435 18 3.44129 17.6839 2.87868 17.1213C2.31607 16.5587 2 15.7956 2 15V9C2 8.20435 2.31607 7.44129 2.87868 6.87868C3.44129 6.31607 4.20435 6 5 6H6V3C6 2.73478 6.10536 2.48043 6.29289 2.29289C6.48043 2.10536 6.73478 2 7 2H17C17.2652 2 17.5196 2.10536 17.7071 2.29289C17.8946 2.48043 18 2.73478 18 3V6ZM7 10C6.80222 10 6.60888 10.0586 6.44443 10.1685C6.27998 10.2784 6.15181 10.4346 6.07612 10.6173C6.00043 10.8 5.98063 11.0011 6.01921 11.1951C6.0578 11.3891 6.15304 11.5673 6.29289 11.7071C6.43275 11.847 6.61093 11.9422 6.80491 11.9808C6.99889 12.0194 7.19996 11.9996 7.38268 11.9239C7.56541 11.8482 7.72159 11.72 7.83147 11.5556C7.94135 11.3911 8 11.1978 8 11C8 10.7348 7.89464 10.4804 7.70711 10.2929C7.51957 10.1054 7.26522 10 7 10ZM16 4H8V6H16V4ZM8 20H16V16H8V20Z" fill="#E7E6E2"/>
</svg>
