<svg width="24" height="24" viewBox="0 0 24 24" fill="none" xmlns="http://www.w3.org/2000/svg">
<path d="M12 2C10.0222 2 8.08879 2.58649 6.4443 3.6853C4.79981 4.78412 3.51809 6.3459 2.76121 8.17317C2.00433 10.0004 1.8063 12.0111 2.19215 13.9509C2.578 15.8907 3.53041 17.6725 4.92894 19.0711C6.32746 20.4696 8.10929 21.422 10.0491 21.8079C11.9889 22.1937 13.9996 21.9957 15.8268 21.2388C17.6541 20.4819 19.2159 19.2002 20.3147 17.5557C21.4135 15.9112 22 13.9778 22 12C22 10.6868 21.7413 9.38642 21.2388 8.17317C20.7363 6.95991 19.9997 5.85752 19.0711 4.92893C18.1425 4.00035 17.0401 3.26375 15.8268 2.7612C14.6136 2.25866 13.3132 2 12 2ZM11.17 15.44C11.2069 15.3876 11.247 15.3375 11.29 15.29C11.383 15.1963 11.4936 15.1219 11.6154 15.0711C11.7373 15.0203 11.868 14.9942 12 14.9942C12.132 14.9942 12.2627 15.0203 12.3846 15.0711C12.5064 15.1219 12.617 15.1963 12.71 15.29C12.8027 15.3834 12.876 15.4943 12.9258 15.6161C12.9755 15.7379 13.0008 15.8684 13 16C13.0048 16.1294 12.9844 16.2584 12.94 16.38C12.8951 16.5041 12.8234 16.6168 12.7301 16.7101C12.6368 16.8034 12.5241 16.8751 12.4 16.92C12.2803 16.9729 12.1509 17.0002 12.02 17.0002C11.8891 17.0002 11.7597 16.9729 11.64 16.92C11.5159 16.8751 11.4032 16.8034 11.3099 16.7101C11.2166 16.6168 11.1449 16.5041 11.1 16.38C11.044 16.2613 11.0166 16.1312 11.02 16C11.0151 15.9334 11.0151 15.8666 11.02 15.8C11.031 15.7374 11.0512 15.6767 11.08 15.62C11.1019 15.5563 11.1322 15.4957 11.17 15.44ZM10.4989 7.40144C10.9553 7.13812 11.4731 6.99966 12 7C12.7035 7.00546 13.3828 7.25801 13.919 7.71352C14.4552 8.16902 14.8143 8.79849 14.9334 9.49189C15.0525 10.1853 14.9242 10.8985 14.5708 11.5069C14.2174 12.1152 13.6614 12.58 13 12.82V13C13 13.2652 12.8946 13.5196 12.7071 13.7071C12.5196 13.8946 12.2652 14 12 14C11.7348 14 11.4804 13.8946 11.2929 13.7071C11.1054 13.5196 11 13.2652 11 13V12C11 11.7348 11.1054 11.4804 11.2929 11.2929C11.4804 11.1054 11.7348 11 12 11C12.2652 11 12.5196 10.8946 12.7071 10.7071C12.8946 10.5196 13 10.2652 13 10C13 9.73478 12.8946 9.48043 12.7071 9.29289C12.5196 9.10536 12.2652 9 12 9C11.8238 8.9993 11.6505 9.04518 11.4978 9.13298C11.345 9.22078 11.2181 9.3474 11.13 9.5C11.0675 9.6195 10.9814 9.72513 10.8771 9.81052C10.7727 9.89591 10.6521 9.9593 10.5225 9.99688C10.393 10.0345 10.2572 10.0454 10.1233 10.0292C9.98945 10.0129 9.86024 9.96974 9.74348 9.90224C9.62671 9.83475 9.52481 9.74433 9.44389 9.63643C9.36297 9.52854 9.30472 9.40538 9.27263 9.27439C9.24055 9.14339 9.23529 9.00726 9.25718 8.87418C9.27907 8.7411 9.32765 8.61382 9.4 8.5C9.66347 8.04366 10.0425 7.66476 10.4989 7.40144Z" fill="#E7E6E2"/>
</svg>
