<svg width="24" height="24" viewBox="0 0 24 24" fill="none" xmlns="http://www.w3.org/2000/svg">
<path d="M20 2H4C3.73478 2 3.48043 2.10536 3.29289 2.29289C3.10536 2.48043 3 2.73478 3 3V21C3 21.1857 3.05171 21.3678 3.14935 21.5257C3.24698 21.6837 3.38668 21.8114 3.55279 21.8944C3.71889 21.9775 3.90484 22.0126 4.08981 21.996C4.27477 21.9793 4.45143 21.9114 4.6 21.8L6.67 20.25L8.73 21.8C8.9031 21.9298 9.11363 22 9.33 22C9.54637 22 9.7569 21.9298 9.93 21.8L12 20.25L14.07 21.8C14.2431 21.9298 14.4536 22 14.67 22C14.8864 22 15.0969 21.9298 15.27 21.8L17.33 20.25L19.4 21.8C19.5493 21.9113 19.7267 21.9786 19.9122 21.9945C20.0977 22.0104 20.284 21.9742 20.45 21.89C20.6149 21.8069 20.7536 21.6798 20.8507 21.5227C20.9478 21.3656 20.9994 21.1847 21 21V3C21 2.73478 20.8946 2.48043 20.7071 2.29289C20.5196 2.10536 20.2652 2 20 2ZM16 8H10C9.73478 8 9.48043 7.89464 9.29289 7.70711C9.10536 7.51957 9 7.26522 9 7C9 6.73478 9.10536 6.48043 9.29289 6.29289C9.48043 6.10536 9.73478 6 10 6H16C16.2652 6 16.5196 6.10536 16.7071 6.29289C16.8946 6.48043 17 6.73478 17 7C17 7.26522 16.8946 7.51957 16.7071 7.70711C16.5196 7.89464 16.2652 8 16 8ZM16 12H8C7.73478 12 7.48043 11.8946 7.29289 11.7071C7.10536 11.5196 7 11.2652 7 11C7 10.7348 7.10536 10.4804 7.29289 10.2929C7.48043 10.1054 7.73478 10 8 10H16C16.2652 10 16.5196 10.1054 16.7071 10.2929C16.8946 10.4804 17 10.7348 17 11C17 11.2652 16.8946 11.5196 16.7071 11.7071C16.5196 11.8946 16.2652 12 16 12ZM16 16H8C7.73478 16 7.48043 15.8946 7.29289 15.7071C7.10536 15.5196 7 15.2652 7 15C7 14.7348 7.10536 14.4804 7.29289 14.2929C7.48043 14.1054 7.73478 14 8 14H16C16.2652 14 16.5196 14.1054 16.7071 14.2929C16.8946 14.4804 17 14.7348 17 15C17 15.2652 16.8946 15.5196 16.7071 15.7071C16.5196 15.8946 16.2652 16 16 16Z" fill="#E7E6E2"/>
</svg>
