<svg width="24" height="24" viewBox="0 0 24 24" fill="none" xmlns="http://www.w3.org/2000/svg">
<path d="M5 2H19C19.7956 2 20.5587 2.31607 21.1213 2.87868C21.6839 3.44129 22 4.20435 22 5V15.9319L18.0885 12.0333C16.9203 10.8689 15.0312 10.866 13.8595 12.0268L13.0082 12.87L10.1229 9.99421C8.94915 8.82427 7.04908 8.82774 5.87956 10.002L2 13.8971V5C2 4.20435 2.31607 3.44129 2.87868 2.87868C3.44129 2.31607 4.20435 2 5 2ZM12.6666 6.2528C12.42 6.41762 12.2277 6.65189 12.1142 6.92597C12.0007 7.20006 11.9709 7.50166 12.0288 7.79264C12.0867 8.08361 12.2296 8.35088 12.4393 8.56066C12.6491 8.77044 12.9164 8.9133 13.2074 8.97118C13.4983 9.02906 13.7999 8.99935 14.074 8.88582C14.3481 8.77229 14.5824 8.58003 14.7472 8.33335C14.912 8.08668 15 7.79667 15 7.5C15 7.10218 14.842 6.72064 14.5607 6.43934C14.2794 6.15804 13.8978 6 13.5 6C13.2033 6 12.9133 6.08797 12.6666 6.2528Z" fill="#E7E6E2"/>
<path d="M2 16.7312V19C2 19.7956 2.31607 20.5587 2.87868 21.1213C3.44129 21.6839 4.20435 22 5 22H19C19.1048 21.9985 19.2094 21.9912 19.3133 21.9781L8.71107 11.4107C8.3198 11.0208 7.68645 11.0219 7.29661 11.4133L2 16.7312Z" fill="#E7E6E2"/>
<path d="M21.44 20.76C21.3688 20.8591 21.2909 20.9533 21.207 21.0418L14.4248 14.2819L15.267 13.4476C15.6576 13.0607 16.2873 13.0617 16.6767 13.4498L22 18.7556V19C21.9903 19.2032 21.9567 19.4046 21.9 19.6V19.75C21.8878 19.7896 21.8766 19.8292 21.8654 19.8685C21.8399 19.9582 21.8148 20.0465 21.78 20.13C21.7609 20.1818 21.7374 20.232 21.71 20.28C21.6601 20.4016 21.5998 20.5187 21.53 20.63L21.44 20.76Z" fill="#E7E6E2"/>
</svg>
