<svg width="24" height="24" viewBox="0 0 24 24" fill="none" xmlns="http://www.w3.org/2000/svg">
<path d="M13.7681 2.0519C12.7147 1.28348 11.2856 1.28348 10.2321 2.0519L9.31256 2.7227C9.1409 2.84792 8.93381 2.9152 8.72133 2.9148L7.58308 2.91263C6.27919 2.91015 5.123 3.75017 4.72244 4.99101L4.37276 6.07422C4.30749 6.27642 4.1795 6.45258 4.00736 6.57715L3.08523 7.24444C2.0289 8.00884 1.58727 9.36802 1.99256 10.6073L2.34636 11.6892C2.4124 11.8911 2.4124 12.1089 2.34636 12.3108L1.99256 13.3927C1.58727 14.632 2.0289 15.9912 3.08523 16.7556L4.00736 17.4229C4.1795 17.5475 4.30749 17.7236 4.37276 17.9258L4.72244 19.009C5.123 20.2499 6.27919 21.0899 7.58308 21.0874L8.72133 21.0852C8.93381 21.0848 9.1409 21.1521 9.31256 21.2773L10.2321 21.9481C11.2856 22.7166 12.7147 22.7166 13.7681 21.9481L14.6877 21.2773C14.8593 21.1521 15.0664 21.0848 15.2789 21.0852L16.4172 21.0874C17.721 21.0899 18.8772 20.2499 19.2778 19.009L19.6275 17.9258C19.6928 17.7236 19.8207 17.5475 19.9929 17.4229L20.915 16.7556C21.9713 15.9912 22.413 14.632 22.0077 13.3927L21.6539 12.3108C21.5878 12.1089 21.5878 11.8911 21.6539 11.6892L22.0077 10.6073C22.413 9.36802 21.9713 8.00884 20.915 7.24444L19.9929 6.57715C19.8207 6.45258 19.6928 6.27642 19.6275 6.07422L19.2778 4.99101C18.8772 3.75017 17.721 2.91015 16.4172 2.91263L15.2789 2.9148C15.0664 2.9152 14.8593 2.84792 14.6877 2.7227L13.7681 2.0519ZM10.4301 13.09L14.7201 8.79002C14.9075 8.60377 15.1609 8.49923 15.4251 8.49923C15.6893 8.49923 15.9428 8.60377 16.1301 8.79002C16.2239 8.88298 16.2982 8.99358 16.349 9.11544C16.3998 9.2373 16.4259 9.36801 16.4259 9.50002C16.4259 9.63203 16.3998 9.76274 16.349 9.8846C16.2982 10.0065 16.2239 10.1171 16.1301 10.21L11.1301 15.21C10.9439 15.3948 10.6925 15.4989 10.4301 15.5C10.2985 15.5008 10.1681 15.4756 10.0462 15.4258C9.92438 15.376 9.81357 15.3027 9.72013 15.21L7.37013 12.85C7.26544 12.7604 7.18042 12.6501 7.1204 12.526C7.06038 12.4019 7.02665 12.2668 7.02133 12.1291C7.01601 11.9914 7.03921 11.854 7.08949 11.7257C7.13976 11.5974 7.21602 11.4808 7.31348 11.3834C7.41093 11.2859 7.52748 11.2097 7.6558 11.1594C7.78413 11.1091 7.92146 11.0859 8.05918 11.0912C8.1969 11.0965 8.33203 11.1303 8.4561 11.1903C8.58016 11.2503 8.69048 11.3353 8.78013 11.44L10.4301 13.09Z" fill="#E7E6E2"/>
</svg>
