<svg width="24" height="24" viewBox="0 0 24 24" fill="none" xmlns="http://www.w3.org/2000/svg">
<path d="M21.71 20.2899L18 16.6099C19.4401 14.8143 20.1375 12.5352 19.9488 10.2412C19.7601 7.94721 18.6997 5.81269 16.9855 4.27655C15.2714 2.74041 13.0338 1.91941 10.7329 1.98237C8.43203 2.04534 6.24272 2.98747 4.61514 4.61505C2.98756 6.24263 2.04543 8.43194 1.98247 10.7328C1.91951 13.0337 2.7405 15.2713 4.27664 16.9854C5.81278 18.6996 7.9473 19.76 10.2413 19.9487C12.5353 20.1374 14.8144 19.44 16.61 17.9999L20.29 21.6799C20.383 21.7736 20.4936 21.848 20.6154 21.8988C20.7373 21.9496 20.868 21.9757 21 21.9757C21.132 21.9757 21.2627 21.9496 21.3846 21.8988C21.5064 21.848 21.617 21.7736 21.71 21.6799C21.8902 21.4934 21.991 21.2442 21.991 20.9849C21.991 20.7256 21.8902 20.4764 21.71 20.2899ZM7 9.9999H15C15.2652 9.9999 15.5196 10.1053 15.7071 10.2928C15.8946 10.4803 16 10.7347 16 10.9999C16 11.2651 15.8946 11.5195 15.7071 11.707C15.5196 11.8945 15.2652 11.9999 15 11.9999H7C6.73478 11.9999 6.48043 11.8945 6.29289 11.707C6.10535 11.5195 6 11.2651 6 10.9999C6 10.7347 6.10535 10.4803 6.29289 10.2928C6.48043 10.1053 6.73478 9.9999 7 9.9999Z" fill="#E7E6E2"/>
</svg>
