<svg width="24" height="24" viewBox="0 0 24 24" fill="none" xmlns="http://www.w3.org/2000/svg">
<path fill-rule="evenodd" clip-rule="evenodd" d="M21.71 20.2899L18 16.6099C19.4401 14.8143 20.1375 12.5352 19.9488 10.2412C19.7601 7.94721 18.6997 5.81269 16.9855 4.27655C15.2714 2.74041 13.0338 1.91941 10.7329 1.98237C8.43207 2.04534 6.24275 2.98747 4.61517 4.61505C2.98759 6.24263 2.04546 8.43194 1.9825 10.7328C1.91954 13.0337 2.74053 15.2713 4.27667 16.9854C5.81281 18.6996 7.94733 19.76 10.2413 19.9487C12.5353 20.1374 14.8144 19.44 16.61 17.9999L20.29 21.6799C20.383 21.7736 20.4936 21.848 20.6154 21.8988C20.7373 21.9496 20.868 21.9757 21 21.9757C21.132 21.9757 21.2627 21.9496 21.3846 21.8988C21.5065 21.848 21.6171 21.7736 21.71 21.6799C21.8903 21.4934 21.991 21.2442 21.991 20.9849C21.991 20.7256 21.8903 20.4764 21.71 20.2899ZM12 9.9999H15C15.2652 9.9999 15.5196 10.1053 15.7071 10.2928C15.8947 10.4803 16 10.7347 16 10.9999C16 11.2651 15.8947 11.5195 15.7071 11.707C15.5196 11.8945 15.2652 11.9999 15 11.9999H12V14.9999C12 15.2651 11.8947 15.5195 11.7071 15.707C11.5196 15.8945 11.2652 15.9999 11 15.9999C10.7348 15.9999 10.4805 15.8945 10.2929 15.707C10.1054 15.5195 10 15.2651 10 14.9999V11.9999H7.00003C6.73481 11.9999 6.48046 11.8945 6.29292 11.707C6.10538 11.5195 6.00003 11.2651 6.00003 10.9999C6.00003 10.7347 6.10538 10.4803 6.29292 10.2928C6.48046 10.1053 6.73481 9.9999 7.00003 9.9999H10V6.9999C10 6.73469 10.1054 6.48033 10.2929 6.2928C10.4805 6.10526 10.7348 5.9999 11 5.9999C11.2652 5.9999 11.5196 6.10526 11.7071 6.2928C11.8947 6.48033 12 6.73469 12 6.9999V9.9999Z" fill="#E7E6E2"/>
</svg>
