<svg width="24" height="24" viewBox="0 0 24 24" fill="none" xmlns="http://www.w3.org/2000/svg">
<path d="M18 14.0001C17.4092 14.004 16.8266 14.1388 16.294 14.3947C15.7615 14.6506 15.2922 15.0213 14.92 15.4801L9.82003 13.1301C10.0598 12.3959 10.0598 11.6044 9.82003 10.8701L14.92 8.52011C15.5216 9.24608 16.3604 9.73619 17.2882 9.90395C18.216 10.0717 19.1732 9.90634 19.991 9.43702C20.8087 8.96769 21.4344 8.22459 21.7576 7.33886C22.0808 6.45312 22.0807 5.4817 21.7573 4.59602C21.434 3.71035 20.8082 2.96736 19.9903 2.49818C19.1725 2.02901 18.2152 1.86381 17.2875 2.03174C16.3597 2.19967 15.521 2.68993 14.9196 3.41601C14.3181 4.14208 13.9924 5.05729 14 6.00011C14.003 6.23835 14.0265 6.47588 14.07 6.71011L8.79003 9.14011C8.22711 8.58969 7.51427 8.21763 6.74083 8.07054C5.96739 7.92345 5.16775 8.00788 4.44208 8.31325C3.71641 8.61861 3.09699 9.13133 2.66143 9.78718C2.22587 10.443 1.99353 11.2128 1.99353 12.0001C1.99353 12.7874 2.22587 13.5572 2.66143 14.2131C3.09699 14.8689 3.71641 15.3816 4.44208 15.687C5.16775 15.9923 5.96739 16.0768 6.74083 15.9297C7.51427 15.7826 8.22711 15.4105 8.79003 14.8601L14.07 17.2901C14.0265 17.5243 14.003 17.7619 14 18.0001C14 18.7912 14.2346 19.5646 14.6742 20.2224C15.1137 20.8802 15.7384 21.3929 16.4693 21.6956C17.2002 21.9984 18.0045 22.0776 18.7804 21.9233C19.5563 21.7689 20.269 21.388 20.8285 20.8285C21.3879 20.2691 21.7688 19.5564 21.9232 18.7805C22.0775 18.0046 21.9983 17.2003 21.6955 16.4694C21.3928 15.7385 20.8801 15.1138 20.2223 14.6742C19.5645 14.2347 18.7912 14.0001 18 14.0001Z" fill="#E7E6E2"/>
</svg>
