<svg width="24" height="24" viewBox="0 0 24 24" fill="none" xmlns="http://www.w3.org/2000/svg">
<path d="M19.63 3.65006C19.5138 3.55609 19.3781 3.48934 19.2327 3.45473C19.0873 3.42012 18.9361 3.41852 18.79 3.45006C17.7214 3.67401 16.6183 3.67686 15.5486 3.45845C14.4789 3.24003 13.4653 2.80498 12.57 2.18006C12.4026 2.06394 12.2037 2.00171 12 2.00171C11.7963 2.00171 11.5974 2.06394 11.43 2.18006C10.5348 2.80498 9.52108 3.24003 8.45137 3.45845C7.38166 3.67686 6.27857 3.67401 5.21001 3.45006C5.06394 3.41852 4.91267 3.42012 4.76731 3.45473C4.62194 3.48934 4.48618 3.55609 4.37001 3.65006C4.25399 3.74418 4.16053 3.8631 4.0965 3.99808C4.03247 4.13306 3.9995 4.28067 4.00001 4.43006V11.8801C3.99912 13.3138 4.34078 14.727 4.99654 16.002C5.6523 17.277 6.60319 18.3769 7.77001 19.2101L11.42 21.8101C11.5894 21.9306 11.7921 21.9954 12 21.9954C12.2079 21.9954 12.4106 21.9306 12.58 21.8101L16.23 19.2101C17.3968 18.3769 18.3477 17.277 19.0035 16.002C19.6592 14.727 20.0009 13.3138 20 11.8801V4.43006C20.0005 4.28067 19.9675 4.13306 19.9035 3.99808C19.8395 3.8631 19.746 3.74418 19.63 3.65006ZM12.83 14.8301C12.8696 14.8811 12.9 14.9386 12.92 15.0001C12.9629 15.0579 12.9966 15.122 13.02 15.1901C13.0249 15.2533 13.0249 15.3168 13.02 15.3801C13.0197 15.5141 12.9925 15.6467 12.94 15.7701C12.8913 15.8893 12.82 15.9979 12.73 16.0901C12.6331 16.1813 12.5215 16.2557 12.4 16.3101C12.1559 16.4096 11.8823 16.4087 11.6389 16.3076C11.3954 16.2064 11.2018 16.0133 11.1 15.7701C11.0439 15.6479 11.0165 15.5145 11.02 15.3801C11.0151 15.3168 11.0151 15.2533 11.02 15.1901C11.0308 15.1242 11.051 15.0602 11.08 15.0001C11.1 14.9386 11.1304 14.8811 11.17 14.8301C11.2018 14.774 11.2423 14.7234 11.29 14.6801C11.383 14.5863 11.4936 14.5119 11.6154 14.4612C11.7373 14.4104 11.868 14.3843 12 14.3843C12.132 14.3843 12.2627 14.4104 12.3846 14.4612C12.5064 14.5119 12.617 14.5863 12.71 14.6801L12.83 14.8301ZM11.2929 7.65296C11.4804 7.46542 11.7348 7.36006 12 7.36006C12.2652 7.36006 12.5196 7.46542 12.7071 7.65296C12.8946 7.84049 13 8.09485 13 8.36006V11.3601C13 11.6253 12.8946 11.8796 12.7071 12.0672C12.5196 12.2547 12.2652 12.3601 12 12.3601C11.7348 12.3601 11.4804 12.2547 11.2929 12.0672C11.1054 11.8796 11 11.6253 11 11.3601V8.36006C11 8.09485 11.1054 7.84049 11.2929 7.65296Z" fill="#E7E6E2"/>
</svg>
