<svg width="24" height="24" viewBox="0 0 24 24" fill="none" xmlns="http://www.w3.org/2000/svg">
<path d="M19.9999 8.18V3C19.9999 2.73478 19.8946 2.48043 19.707 2.29289C19.5195 2.10536 19.2651 2 18.9999 2C18.7347 2 18.4803 2.10536 18.2928 2.29289C18.1053 2.48043 17.9999 2.73478 17.9999 3V8.18C17.4208 8.3902 16.9204 8.77363 16.5668 9.27816C16.2131 9.7827 16.0234 10.3839 16.0234 11C16.0234 11.6161 16.2131 12.2173 16.5668 12.7218C16.9204 13.2264 17.4208 13.6098 17.9999 13.82V21C17.9999 21.2652 18.1053 21.5196 18.2928 21.7071C18.4803 21.8946 18.7347 22 18.9999 22C19.2651 22 19.5195 21.8946 19.707 21.7071C19.8946 21.5196 19.9999 21.2652 19.9999 21V13.82C20.5791 13.6098 21.0795 13.2264 21.4331 12.7218C21.7867 12.2173 21.9764 11.6161 21.9764 11C21.9764 10.3839 21.7867 9.7827 21.4331 9.27816C21.0795 8.77363 20.5791 8.3902 19.9999 8.18ZM12.9999 14.18V3C12.9999 2.73478 12.8946 2.48043 12.707 2.29289C12.5195 2.10536 12.2651 2 11.9999 2C11.7347 2 11.4803 2.10536 11.2928 2.29289C11.1053 2.48043 10.9999 2.73478 10.9999 3V14.18C10.4208 14.3902 9.92037 14.7736 9.56676 15.2782C9.21314 15.7827 9.02344 16.3839 9.02344 17C9.02344 17.6161 9.21314 18.2173 9.56676 18.7218C9.92037 19.2264 10.4208 19.6098 10.9999 19.82V21C10.9999 21.2652 11.1053 21.5196 11.2928 21.7071C11.4803 21.8946 11.7347 22 11.9999 22C12.2651 22 12.5195 21.8946 12.707 21.7071C12.8946 21.5196 12.9999 21.2652 12.9999 21V19.82C13.5791 19.6098 14.0795 19.2264 14.4331 18.7218C14.7867 18.2173 14.9764 17.6161 14.9764 17C14.9764 16.3839 14.7867 15.7827 14.4331 15.2782C14.0795 14.7736 13.5791 14.3902 12.9999 14.18ZM5.99991 6.18V3C5.99991 2.73478 5.89456 2.48043 5.70702 2.29289C5.51948 2.10536 5.26513 2 4.99991 2C4.7347 2 4.48034 2.10536 4.29281 2.29289C4.10527 2.48043 3.99991 2.73478 3.99991 3V6.18C3.42076 6.3902 2.92037 6.77363 2.56676 7.27817C2.21314 7.7827 2.02344 8.38388 2.02344 9C2.02344 9.61612 2.21314 10.2173 2.56676 10.7218C2.92037 11.2264 3.42076 11.6098 3.99991 11.82V21C3.99991 21.2652 4.10527 21.5196 4.29281 21.7071C4.48034 21.8946 4.7347 22 4.99991 22C5.26513 22 5.51948 21.8946 5.70702 21.7071C5.89456 21.5196 5.99991 21.2652 5.99991 21V11.82C6.57907 11.6098 7.07945 11.2264 7.43307 10.7218C7.78669 10.2173 7.97639 9.61612 7.97639 9C7.97639 8.38388 7.78669 7.7827 7.43307 7.27817C7.07945 6.77363 6.57907 6.3902 5.99991 6.18Z" fill="#E7E6E2"/>
</svg>
