<svg width="24" height="24" viewBox="0 0 24 24" fill="none" xmlns="http://www.w3.org/2000/svg">
<path d="M10.5991 5.62707C10.3339 5.67481 10.0985 5.82595 9.9447 6.04724C9.79092 6.26854 9.73135 6.54185 9.77909 6.80707C9.82683 7.07229 9.97797 7.30768 10.1993 7.46146L13.4091 10.6671C13.5023 10.5738 13.613 10.4999 13.7348 10.4494C13.8567 10.399 13.9872 10.373 14.1191 10.373C14.2509 10.373 14.3815 10.399 14.5033 10.4494C14.6252 10.4999 14.7358 10.5738 14.8291 10.6671C14.9223 10.7603 14.9963 10.871 15.0467 10.9928C15.0972 11.1146 15.1232 11.2452 15.1232 11.3771C15.1232 11.5089 15.0972 11.6395 15.0467 11.7613C14.9965 11.8827 14.9228 11.9931 14.83 12.0861L18.0301 15.2819C18.1799 15.4992 18.4096 15.6484 18.6691 15.6971H18.8491C19.0859 15.7009 19.3163 15.6206 19.4995 15.4705C19.6826 15.3203 19.8065 15.11 19.8491 14.8771C19.9419 14.4227 19.9921 13.9607 19.9991 13.4971C19.9945 11.7168 19.3963 9.989 18.2991 8.58707L19.2091 7.68707C19.3974 7.49877 19.5032 7.24337 19.5032 6.97707C19.5032 6.71077 19.3974 6.45537 19.2091 6.26707C19.0208 6.07877 18.7654 5.97298 18.4991 5.97298C18.2328 5.97298 17.9774 6.07877 17.7891 6.26707L16.8891 7.17707C15.49 6.09124 13.7701 5.50036 11.9991 5.49707C11.5294 5.49617 11.0606 5.5397 10.5991 5.62707Z" fill="#E7E6E2"/>
<path d="M13.4891 13.5771V13.4171L14.8291 12.0871L14.83 12.0861L13.4091 10.6671L12.0791 11.9971H11.9191L5.70909 5.78707C5.52078 5.59877 5.26539 5.49298 4.99909 5.49298C4.73278 5.49298 4.47739 5.59877 4.28909 5.78707C4.10078 5.97537 3.995 6.23077 3.995 6.49707C3.995 6.76337 4.10078 7.01877 4.28909 7.20707L5.67909 8.59707C4.49256 10.1367 3.90715 12.0556 4.03224 13.9953C4.15732 15.9351 4.98435 17.7629 6.3588 19.1374C7.73325 20.5118 9.56109 21.3388 11.5008 21.4639C13.4406 21.589 15.3595 21.0036 16.8991 19.8171L18.2891 21.2071C18.3821 21.3008 18.4927 21.3752 18.6145 21.426C18.7364 21.4767 18.8671 21.5029 18.9991 21.5029C19.1311 21.5029 19.2618 21.4767 19.3837 21.426C19.5055 21.3752 19.6161 21.3008 19.7091 21.2071C19.8028 21.1141 19.8772 21.0035 19.928 20.8816C19.9787 20.7598 20.0049 20.6291 20.0049 20.4971C20.0049 20.3651 19.9787 20.2344 19.928 20.1125C19.8772 19.9906 19.8028 19.88 19.7091 19.7871L13.4891 13.5771Z" fill="#E7E6E2"/>
<path d="M9.99909 4.49707H13.9991C14.2643 4.49707 14.5187 4.39171 14.7062 4.20418C14.8937 4.01664 14.9991 3.76229 14.9991 3.49707C14.9991 3.23185 14.8937 2.9775 14.7062 2.78996C14.5187 2.60243 14.2643 2.49707 13.9991 2.49707H9.99909C9.73387 2.49707 9.47952 2.60243 9.29198 2.78996C9.10444 2.9775 8.99909 3.23185 8.99909 3.49707C8.99909 3.76229 9.10444 4.01664 9.29198 4.20418C9.47952 4.39171 9.73387 4.49707 9.99909 4.49707Z" fill="#E7E6E2"/>
</svg>
