<svg width="24" height="24" viewBox="0 0 24 24" fill="none" xmlns="http://www.w3.org/2000/svg">
<path d="M16 6H19C19.7956 6 20.5587 6.31607 21.1213 6.87868C21.6839 7.44129 22 8.20435 22 9V10.9944H2V9C2 8.20435 2.31607 7.44129 2.87868 6.87868C3.44129 6.31607 4.20435 6 5 6H8V5C8 4.46957 8.21071 3.96086 8.58579 3.58579C8.96086 3.21071 9.46957 3 10 3H14C14.5304 3 15.0391 3.21071 15.4142 3.58579C15.7893 3.96086 16 4.46957 16 5V6ZM14 5H10V6H14V5Z" fill="#E7E6E2"/>
<path d="M2 12.9944V18C2 18.7956 2.31607 19.5587 2.87868 20.1213C3.44129 20.6839 4.20435 21 5 21H19C19.7956 21 20.5587 20.6839 21.1213 20.1213C21.6839 19.5587 22 18.7956 22 18V12.9944H16V13.9672C16 14.5194 15.5523 14.9672 15 14.9672C14.4477 14.9672 14 14.5194 14 13.9672V12.9944H10V13.9672C10 14.5194 9.55229 14.9672 9 14.9672C8.44772 14.9672 8 14.5194 8 13.9672V12.9944H2Z" fill="#E7E6E2"/>
</svg>
