<svg width="24" height="24" viewBox="0 0 24 24" fill="none" xmlns="http://www.w3.org/2000/svg">
<path d="M21.12 10.71L12.71 2.29002C12.6166 2.19734 12.5058 2.12401 12.3839 2.07425C12.2621 2.02448 12.1316 1.99926 12 2.00002H3.00002C2.7348 2.00002 2.48045 2.10537 2.29291 2.29291C2.10537 2.48045 2.00002 2.7348 2.00002 3.00002V12C1.99926 12.1316 2.02448 12.2621 2.07425 12.3839C2.12401 12.5058 2.19734 12.6166 2.29002 12.71L10.71 21.12C11.2725 21.6818 12.035 21.9974 12.83 21.9974C13.625 21.9974 14.3875 21.6818 14.95 21.12L21.12 15C21.6818 14.4375 21.9974 13.675 21.9974 12.88C21.9974 12.085 21.6818 11.3225 21.12 10.76V10.71ZM6.66666 6.25281C6.91333 6.08799 7.20334 6.00002 7.50002 6.00002C7.89784 6.00002 8.27937 6.15805 8.56068 6.43936C8.84198 6.72066 9.00002 7.10219 9.00002 7.50002C9.00002 7.79669 8.91204 8.0867 8.74722 8.33337C8.5824 8.58005 8.34813 8.7723 8.07404 8.88584C7.79995 8.99937 7.49835 9.02907 7.20738 8.97119C6.91641 8.91332 6.64914 8.77046 6.43936 8.56068C6.22958 8.3509 6.08672 8.08362 6.02884 7.79265C5.97096 7.50168 6.00067 7.20008 6.1142 6.92599C6.22773 6.6519 6.41999 6.41763 6.66666 6.25281Z" fill="#E7E6E2"/>
</svg>
