<svg width="24" height="24" viewBox="0 0 24 24" fill="none" xmlns="http://www.w3.org/2000/svg">
<path d="M19 2H6.26998C5.56817 2.00023 4.88865 2.24651 4.34966 2.69598C3.81066 3.14544 3.4463 3.76965 3.31998 4.46L2.04998 11.46C1.97085 11.8924 1.98772 12.337 2.09941 12.7622C2.2111 13.1874 2.41488 13.5828 2.69631 13.9206C2.97775 14.2583 3.32997 14.53 3.72806 14.7166C4.12614 14.9031 4.56036 14.9999 4.99998 15H9.55998L8.99998 16.43C8.76704 17.0561 8.68947 17.7294 8.77391 18.3921C8.85835 19.0548 9.10229 19.6871 9.48479 20.2348C9.86729 20.7825 10.3769 21.2292 10.97 21.5367C11.5631 21.8441 12.2219 22.0031 12.89 22C13.0823 21.9996 13.2705 21.9437 13.4319 21.8391C13.5933 21.7344 13.7211 21.5854 13.8 21.41L16.65 15H19C19.7956 15 20.5587 14.6839 21.1213 14.1213C21.6839 13.5587 22 12.7956 22 12V5C22 4.20435 21.6839 3.44129 21.1213 2.87868C20.5587 2.31607 19.7956 2 19 2ZM20 12C20 12.2652 19.8946 12.5196 19.7071 12.7071C19.5195 12.8946 19.2652 13 19 13H17V4H19C19.2652 4 19.5195 4.10536 19.7071 4.29289C19.8946 4.48043 20 4.73478 20 5V12Z" fill="#E7E6E2"/>
</svg>
