<svg width="24" height="24" viewBox="0 0 24 24" fill="none" xmlns="http://www.w3.org/2000/svg">
<path d="M19 2H5C4.20435 2 3.44129 2.31607 2.87868 2.87868C2.31607 3.44129 2 4.20435 2 5V19C2 19.7956 2.31607 20.5587 2.87868 21.1213C3.44129 21.6839 4.20435 22 5 22H19C19.7956 22 20.5587 21.6839 21.1213 21.1213C21.6839 20.5587 22 19.7956 22 19V5C22 4.20435 21.6839 3.44129 21.1213 2.87868C20.5587 2.31607 19.7956 2 19 2ZM15.3846 8.07111C15.5064 8.12188 15.617 8.19627 15.71 8.29C15.8037 8.38296 15.8781 8.49356 15.9289 8.61542C15.9797 8.73728 16.0058 8.86799 16.0058 9C16.0058 9.13201 15.9797 9.26272 15.9289 9.38458C15.8781 9.50644 15.8037 9.61704 15.71 9.71L13.41 12L15.71 14.29C15.8037 14.383 15.8781 14.4936 15.9289 14.6154C15.9797 14.7373 16.0058 14.868 16.0058 15C16.0058 15.132 15.9797 15.2627 15.9289 15.3846C15.8781 15.5064 15.8037 15.617 15.71 15.71C15.617 15.8037 15.5064 15.8781 15.3846 15.9289C15.2627 15.9797 15.132 16.0058 15 16.0058C14.868 16.0058 14.7373 15.9797 14.6154 15.9289C14.4936 15.8781 14.383 15.8037 14.29 15.71L12 13.41L9.71 15.71C9.61704 15.8037 9.50644 15.8781 9.38458 15.9289C9.26272 15.9797 9.13201 16.0058 9 16.0058C8.86799 16.0058 8.73728 15.9797 8.61542 15.9289C8.49356 15.8781 8.38296 15.8037 8.29 15.71C8.19627 15.617 8.12188 15.5064 8.07111 15.3846C8.02034 15.2627 7.9942 15.132 7.9942 15C7.9942 14.868 8.02034 14.7373 8.07111 14.6154C8.12188 14.4936 8.19627 14.383 8.29 14.29L10.59 12L8.29 9.71C8.1017 9.5217 7.99591 9.2663 7.99591 9C7.99591 8.7337 8.1017 8.4783 8.29 8.29C8.4783 8.1017 8.7337 7.99591 9 7.99591C9.2663 7.99591 9.5217 8.1017 9.71 8.29L12 10.59L14.29 8.29C14.383 8.19627 14.4936 8.12188 14.6154 8.07111C14.7373 8.02034 14.868 7.9942 15 7.9942C15.132 7.9942 15.2627 8.02034 15.3846 8.07111Z" fill="#E7E6E2"/>
</svg>
