<svg width="24" height="24" viewBox="0 0 24 24" fill="none" xmlns="http://www.w3.org/2000/svg">
<path d="M8.2948 12.7204C6.89987 11.6218 6.00421 9.91756 6.00421 8.00415C6.00421 4.69044 8.6905 2.00415 12.0042 2.00415C15.3179 2.00415 18.0042 4.69044 18.0042 8.00415C18.0042 9.90826 17.1172 11.6052 15.7339 12.7044C15.7765 12.7213 15.8189 12.7385 15.8613 12.7561C17.0745 13.2586 18.1769 13.9952 19.1055 14.9238C20.0341 15.8524 20.7707 16.9548 21.2732 18.168C21.7758 19.3813 22.0344 20.6817 22.0344 21.9949C22.0344 22.5472 21.5867 22.9949 21.0344 22.9949H3.03442C2.48214 22.9949 2.03442 22.5472 2.03442 21.9949C2.03442 20.6817 2.29308 19.3813 2.79563 18.168C3.29818 16.9548 4.03477 15.8524 4.96336 14.9238C5.89194 13.9952 6.99433 13.2586 8.20759 12.7561C8.23661 12.7441 8.26568 12.7322 8.2948 12.7204Z" fill="#E7E6E2"/>
</svg>
