<svg width="24" height="24" viewBox="0 0 24 24" fill="none" xmlns="http://www.w3.org/2000/svg">
<path d="M4.00537 8.49025C4.00537 5.733 6.24057 3.4978 8.99782 3.4978C11.7551 3.4978 13.9903 5.733 13.9903 8.49025C13.9903 9.97174 13.345 11.3025 12.3201 12.2168C13.1815 12.6098 13.9745 13.1561 14.6569 13.8385C16.1571 15.3388 17 17.3736 17 19.4954C17 20.0476 16.5523 20.4954 16 20.4954H2C1.73478 20.4954 1.48043 20.39 1.29289 20.2025C1.10536 20.0149 1 19.7606 1 19.4954C1 17.3736 1.84286 15.3388 3.34315 13.8385C4.02476 13.1569 4.81671 12.611 5.67701 12.2182C4.65129 11.3038 4.00537 9.97246 4.00537 8.49025Z" fill="#E7E6E2"/>
<path d="M14.9408 3.49788C16.0398 3.49185 17.1101 3.84862 17.9856 4.51286C18.8612 5.1771 19.4931 6.11169 19.7834 7.17167C20.0736 8.23166 20.006 9.3578 19.591 10.3754C19.3781 10.8976 19.0798 11.3763 18.7116 11.7935C19.8362 12.4326 20.7962 13.339 21.501 14.4422C22.4885 15.9881 22.9148 17.8264 22.7084 19.6492C22.6463 20.198 22.151 20.5925 21.6022 20.5303C21.0535 20.4682 20.659 19.9729 20.7211 19.4242C20.8759 18.0571 20.5562 16.6783 19.8155 15.5189C19.0749 14.3595 17.9582 13.4898 16.6527 13.0556C16.176 12.8971 15.8984 12.4144 15.9832 11.934C15.9845 11.5917 16.1617 11.2589 16.4786 11.0735C17.0473 10.741 17.4903 10.2302 17.7391 9.62022C17.9878 9.01025 18.0284 8.33525 17.8544 7.6999C17.6804 7.06455 17.3016 6.50437 16.7768 6.10622C16.252 5.70808 15.6105 5.49423 14.9518 5.49785C14.3995 5.50088 13.9493 5.05563 13.9463 4.50335C13.9433 3.95107 14.3885 3.50091 14.9408 3.49788Z" fill="#E7E6E2"/>
</svg>
