<svg width="24" height="24" viewBox="0 0 24 24" fill="none" xmlns="http://www.w3.org/2000/svg">
<path d="M5.01428 8.51025C5.01428 5.74883 7.25286 3.51025 10.0143 3.51025C12.7757 3.51025 15.0143 5.74883 15.0143 8.51025C15.0143 9.99653 14.3658 11.3313 13.3363 12.2472C14.1988 12.6429 14.9848 13.1893 15.6569 13.8615C16.3998 14.6043 16.9891 15.4862 17.3911 16.4568C17.7931 17.4274 18.0001 18.4677 18.0001 19.5183C18.0001 20.0706 17.5523 20.5183 17.0001 20.5183H3.00006C2.44778 20.5183 2.00006 20.0706 2.00006 19.5183C2.00006 18.4677 2.20699 17.4274 2.60902 16.4568C3.01106 15.4862 3.60034 14.6043 4.34321 13.8615C5.02023 13.1844 5.81273 12.635 6.68261 12.2386C5.65873 11.323 5.01428 9.99189 5.01428 8.51025Z" fill="#E7E6E2"/>
<path d="M21.7072 11.2099L20.9072 11.9999L21.7072 12.7899C21.8009 12.8829 21.8753 12.9935 21.9261 13.1154C21.9768 13.2372 22.003 13.3679 22.003 13.4999C22.003 13.632 21.9768 13.7627 21.9261 13.8845C21.8753 14.0064 21.8009 14.117 21.7072 14.2099C21.6142 14.3037 21.5036 14.3781 21.3817 14.4288C21.2599 14.4796 21.1292 14.5057 20.9972 14.5057C20.8652 14.5057 20.7344 14.4796 20.6126 14.4288C20.4907 14.3781 20.3801 14.3037 20.2872 14.2099L19.4972 13.4099L18.7072 14.2099C18.6142 14.3037 18.5036 14.3781 18.3817 14.4288C18.2599 14.4796 18.1292 14.5057 17.9972 14.5057C17.8652 14.5057 17.7344 14.4796 17.6126 14.4288C17.4907 14.3781 17.3801 14.3037 17.2872 14.2099C17.1934 14.117 17.119 14.0064 17.0683 13.8845C17.0175 13.7627 16.9914 13.632 16.9914 13.4999C16.9914 13.3679 17.0175 13.2372 17.0683 13.1154C17.119 12.9935 17.1934 12.8829 17.2872 12.7899L18.0872 11.9999L17.2872 11.2099C17.0989 11.0216 16.9931 10.7662 16.9931 10.4999C16.9931 10.3681 17.019 10.2375 17.0695 10.1157C17.12 9.99387 17.1939 9.88318 17.2872 9.78994C17.4755 9.60164 17.7309 9.49585 17.9972 9.49585C18.129 9.49585 18.2596 9.52182 18.3814 9.57228C18.5032 9.62274 18.6139 9.6967 18.7072 9.78994L19.4972 10.5899L20.2872 9.78994C20.3804 9.6967 20.4911 9.62274 20.6129 9.57228C20.7347 9.52182 20.8653 9.49585 20.9972 9.49585C21.129 9.49585 21.2596 9.52182 21.3814 9.57228C21.5032 9.62274 21.6139 9.6967 21.7072 9.78994C21.8004 9.88318 21.8744 9.99387 21.9248 10.1157C21.9753 10.2375 22.0013 10.3681 22.0013 10.4999C22.0013 10.6318 21.9753 10.7624 21.9248 10.8842C21.8744 11.006 21.8004 11.1167 21.7072 11.2099Z" fill="#E7E6E2"/>
</svg>
