<svg width="24" height="24" viewBox="0 0 24 24" fill="none" xmlns="http://www.w3.org/2000/svg">
<path d="M6.54128 3.63374C8.16393 2.57131 10.0605 2.00369 12 2C13.9396 2.00369 15.8362 2.57131 17.4588 3.63374C19.0815 4.69617 20.3602 6.20754 21.1391 7.98377C21.9181 9.76 22.1637 11.7244 21.846 13.6378C21.5707 15.296 20.8827 16.8538 19.8506 18.1701C19.1401 15.6268 17.3311 13.5545 14.9743 12.5972C15.5974 11.8956 15.9759 10.9717 15.9759 9.95953C15.9759 7.76479 14.1967 5.9856 12.0019 5.9856C9.80718 5.9856 8.02798 7.76479 8.02798 9.95953C8.02798 10.98 8.41261 11.9106 9.04479 12.6143C6.69082 13.5862 4.88966 15.6728 4.19453 18.2271C3.13743 16.8989 2.43335 15.32 2.15408 13.6378C1.83643 11.7244 2.08204 9.76 2.86099 7.98377C3.63994 6.20754 4.91862 4.69617 6.54128 3.63374Z" fill="#E7E6E2"/>
<path d="M18.1436 19.8696C17.4902 20.3784 16.7745 20.8053 16.0121 21.1392C14.7471 21.6933 13.3811 21.9793 12 21.9793C10.619 21.9793 9.25298 21.6933 7.98799 21.1392C7.24751 20.8149 6.55105 20.4028 5.91298 19.9133C6.22594 16.5644 8.88961 14.0242 12.0304 14.0242C15.1575 14.0242 17.8117 16.5423 18.1436 19.8696Z" fill="#E7E6E2"/>
<path d="M12.0019 7.9856C10.9117 7.9856 10.028 8.86936 10.028 9.95953C10.028 11.0497 10.9117 11.9335 12.0019 11.9335C13.0921 11.9335 13.9759 11.0497 13.9759 9.95953C13.9759 8.86936 13.0921 7.9856 12.0019 7.9856Z" fill="#E7E6E2"/>
</svg>
