<svg width="24" height="24" viewBox="0 0 24 24" fill="none" xmlns="http://www.w3.org/2000/svg">
<path d="M19.3694 1.71899H5.36938C4.57374 1.71899 3.81067 2.03506 3.24806 2.59767C2.68546 3.16028 2.36938 3.92334 2.36938 4.71899V18.719C2.36938 19.5146 2.68546 20.2777 3.24806 20.8403C3.81067 21.4029 4.57374 21.719 5.36938 21.719H19.3694C20.165 21.719 20.9281 21.4029 21.4907 20.8403C22.0533 20.2777 22.3694 19.5146 22.3694 18.719V4.71899C22.3694 3.92334 22.0533 3.16028 21.4907 2.59767C20.9281 2.03506 20.165 1.71899 19.3694 1.71899ZM16.1794 9.49899C16.169 10.4278 15.8124 11.3192 15.1794 11.999C16.0489 12.4476 16.7942 13.1041 17.349 13.91C17.9038 14.716 18.2508 15.6466 18.3594 16.619C18.3875 16.8814 18.3108 17.1442 18.1459 17.3502C17.9811 17.5563 17.7415 17.6888 17.4794 17.719H17.3694C17.112 17.736 16.8581 17.6529 16.6605 17.487C16.463 17.3212 16.3372 17.0854 16.3094 16.829C16.1901 15.8601 15.7205 14.9683 14.9893 14.3216C14.2581 13.6749 13.3156 13.318 12.3394 13.318C11.3632 13.318 10.4207 13.6749 9.68947 14.3216C8.95823 14.9683 8.48872 15.8601 8.36938 16.829C8.34021 17.0942 8.20687 17.337 7.99871 17.5039C7.79054 17.6708 7.5246 17.7482 7.25938 17.719C6.99417 17.6898 6.7514 17.5565 6.5845 17.3483C6.41759 17.1402 6.34021 16.8742 6.36938 16.609C6.48661 15.6314 6.845 14.6983 7.4123 13.8936C7.97961 13.0889 8.73804 12.4379 9.61938 11.999C8.98641 11.3192 8.62982 10.4278 8.61938 9.49899C8.61938 8.49648 9.01763 7.53502 9.72652 6.82613C10.4354 6.11724 11.3969 5.71899 12.3994 5.71899C13.4019 5.71899 14.3634 6.11724 15.0722 6.82613C15.7811 7.53502 16.1794 8.49648 16.1794 9.49899Z" fill="#E7E6E2"/>
<path d="M12.3694 11.279C12.0173 11.279 11.6732 11.1746 11.3805 10.979C11.0877 10.7834 10.8596 10.5054 10.7249 10.1802C10.5902 9.85492 10.5549 9.49702 10.6236 9.15173C10.6923 8.80645 10.8618 8.48928 11.1107 8.24034C11.3597 7.99141 11.6768 7.82188 12.0221 7.7532C12.3674 7.68451 12.7253 7.71976 13.0506 7.85449C13.3758 7.98921 13.6538 8.21736 13.8494 8.51008C14.045 8.8028 14.1494 9.14694 14.1494 9.49899C14.1494 9.97108 13.9618 10.4238 13.628 10.7576C13.2942 11.0915 12.8415 11.279 12.3694 11.279Z" fill="#E7E6E2"/>
</svg>
